<?xml version="1.0" standalone="no"?>
<!DOCTYPE svg PUBLIC "-//W3C//DTD SVG 1.1//EN" "http://www.w3.org/Graphics/SVG/1.1/DTD/svg11.dtd" >
<svg xmlns="http://www.w3.org/2000/svg" xmlns:xlink="http://www.w3.org/1999/xlink" version="1.1">
<metadata>
Created by FontForge 20201107 at Sun Sep 18 05:44:25 2016
 By 
Copyright (c) 2011 by Nick Cooke, G-Type. All rights reserved.
</metadata>
<defs>
<font id="SVN-Digitalis" horiz-adv-x="399" >
  <font-face 
    font-family="SVN-Digitalis"
    font-weight="400"
    font-style="italic"
    font-stretch="normal"
    units-per-em="1000"
    panose-1="2 11 6 3 6 0 0 2 0 4"
    ascent="800"
    descent="-200"
    x-height="418"
    cap-height="600"
    bbox="-51 -252.143 926 868"
    underline-thickness="50"
    underline-position="-175"
    unicode-range="U+0020-2122"
  />
<missing-glyph horiz-adv-x="1000" 
 />
    <glyph glyph-name=".notdef" horiz-adv-x="1000" 
 />
    <glyph glyph-name=".null" horiz-adv-x="0" 
 />
    <glyph glyph-name="nonmarkingreturn" horiz-adv-x="220" 
 />
    <glyph glyph-name="space" unicode=" " horiz-adv-x="220" 
 />
    <glyph glyph-name="exclam" unicode="!" horiz-adv-x="230" 
d="M174 556q0 -57 -6.5 -148.5t-19.5 -220.5q-1 -11 -11 -21q-9 -9 -22 -9t-22 9q-10 10 -11 21q-13 118 -19.5 209.5t-6.5 159.5q0 22 17 39q16 16 42 16t42 -16q17 -17 17 -39zM168 46q0 -23 -16 -39t-39 -16t-39 16t-16 39q0 22 17 39q16 16 39 16t39 -16q17 -17 17 -39
h-2z" />
    <glyph glyph-name="quotedbl" unicode="&#x22;" horiz-adv-x="285" 
d="M266 587q-6 -66 -18 -147q-1 -13 -11 -21t-22 -8q-29 0 -33 30q-12 81 -18 147l-1 10q0 21 15 36t36 15t36 -15t15 -36zM127 586q-6 -66 -18 -147q-1 -13 -11 -21t-22 -8q-29 0 -33 30q-12 81 -18 147l-1 10q0 21 15 36t36 15t36 -15t15 -36z" />
    <glyph glyph-name="numbersign" unicode="#" horiz-adv-x="572" 
d="M575 401q0 -14 -10 -24t-24 -10h-77l-33 -161h90q15 0 24 -11t9 -24q0 -14 -10 -24t-24 -10h-105l-33 -160q-3 -14 -15 -21q-12 -8 -25 -5q-14 3 -21 15q-8 12 -5 25l31 146h-176l-34 -160q-3 -14 -15 -21q-12 -8 -25 -5q-14 3 -21 15q-8 12 -5 25l30 146h-61
q-13 0 -24 11q-10 10 -10 24q0 13 9 24t24 11h76l33 161h-89q-13 0 -24 11q-10 10 -10 24q0 13 9 24t24 11h104l33 158q3 13 15 21t25 5t21 -15q7 -12 6 -25l-31 -144h176l33 158q3 13 15 21q13 8 26 5t21 -15t5 -25l-30 -144h62q15 0 24 -11t9 -24zM219 367l-34 -161h176
l34 161h-176z" />
    <glyph glyph-name="dollar" unicode="$" horiz-adv-x="423" 
d="M179 608q0 12 9 21t21 9t21 -9t9 -21v-42q31 -2 66 -9q36 -8 57 -19q14 -8 14 -30q0 -11 -10 -21t-22 -10q-11 0 -50 14t-69 14q-45 0 -72 -21t-27 -51q0 -20 9 -39t30 -34q23 -16 57 -32t47 -23q23 -12 41 -22.5t30 -20.5q25 -20 38 -45q14 -26 14 -63q0 -40 -18 -73
q-18 -34 -54 -56q-36 -23 -82 -30v-42q0 -12 -9 -21t-21 -9t-21 9t-9 21v38q-18 1 -35 2.5t-34 4.5q-33 6 -66 24q-21 10 -19 32q2 13 10 21q9 9 23 9q12 0 38 -12t49 -15q24 -3 47 -3q39 0 68 22q30 22 30 63q0 25 -15 43q-16 19 -33 29q-20 12 -44 23q-13 6 -21 9.5
t-11 5.5q-54 26 -72 41q-15 12 -30 29q-14 15 -24 39q-10 23 -10 57q0 27 14 60q14 32 51 59q37 26 87 34z" />
    <glyph glyph-name="percent" unicode="%" horiz-adv-x="635" 
d="M305 477q0 -65 -33 -99t-84 -34q-52 0 -85 34t-33 99q0 64 33 99q33 34 85 34q51 0 84 -34q33 -35 33 -99zM172 4q-7 -10 -19 -13q-13 -3 -23 4t-13 21q-3 13 3 24l357 558q7 10 21 13q13 3 24 -3q10 -7 13 -21t-3 -24zM579 124q0 -33 -10 -63q-11 -32 -39 -51
q-29 -20 -67 -20q-39 0 -68 20q-29 19 -39 51q-10 30 -10 63q0 62 33 98t86 36q24 0 52 -11q26 -10 46 -42q19 -31 19 -81h-3zM234 476q0 92 -52 92t-52 -92t52 -92t52 92zM514 124q0 91 -52 91t-52 -91q0 -92 52 -92t52 92z" />
    <glyph glyph-name="ampersand" unicode="&#x26;" horiz-adv-x="516" 
d="M500 47q0 -23 -16 -39t-37 -15q-12 0 -25 6t-21 17l-29 38q-61 -61 -144 -61q-67 0 -113 23q-45 23 -68 62q-23 40 -23 94q0 32 15 65q15 32 53 60q37 27 80 36q-56 98 -56 147q0 64 45 99q44 34 145 34q14 0 35 -3q22 -3 32 -6q28 -6 28 -34q0 -14 -9 -23t-22 -9
q-9 0 -29 5t-33 5q-23 0 -42 -6q-20 -6 -30 -21q-10 -14 -10 -36q0 -32 33 -93q17 -31 48.5 -76.5t79.5 -106.5q7 19 12 54q4 34 6 45q3 10 17 18q13 7 30 3q11 -5 18 -13q7 -9 6 -21q-1 -11 -3 -27t-7 -37q-9 -43 -28 -85l56 -70q10 -13 10 -30zM330 104q-83 106 -123 168
q-21 -8 -40 -26q-19 -17 -26 -39q-8 -24 -8 -43q0 -38 18 -63t40 -34t39 -9q60 0 102 47z" />
    <glyph glyph-name="quotesingle" unicode="'" horiz-adv-x="144" 
d="M125 587q-6 -66 -18 -147q-1 -13 -11 -21t-22 -8q-29 0 -33 30q-12 81 -18 147l-1 10q0 21 15 36t36 15t36 -15t15 -36z" />
    <glyph glyph-name="parenleft" unicode="(" horiz-adv-x="249" 
d="M238 -34q0 -14 -10 -24t-24 -10q-19 0 -48 29q-27 27 -55 80q-27 52 -45 118q-18 67 -18 138q0 17 2 39.5t6 49.5q7 54 33 120q25 66 63 111q37 45 61 45q14 0 24 -10q11 -11 11 -24q0 -9 -8 -22q-24 -30 -49 -90q-23 -56 -34 -117q-10 -56 -10 -102t10 -102
q11 -61 34 -117q23 -57 50 -90q8 -13 8 -22h-1z" />
    <glyph glyph-name="parenright" unicode=")" horiz-adv-x="249" 
d="M206 293q0 -17 -1.5 -39t-5.5 -49q-8 -54 -33 -120q-26 -66 -63 -111q-38 -45 -61 -45q-13 0 -24 11q-10 10 -10 24q0 11 8 22q27 33 50 90q23 56 34 117q10 56 10 102t-10 102q-11 61 -34 117q-25 60 -49 90q-3 3 -6 11q-3 7 -3 12q0 13 11 24t24 11q19 0 48 -29
q27 -27 55 -80q27 -52 45 -118q18 -68 18 -138z" />
    <glyph glyph-name="asterisk" unicode="*" horiz-adv-x="328" 
d="M230 500l29 -71q4 -9 -2 -18t-15 -9t-13 4l-58 50l-59 -50q-4 -4 -12 -4t-14 9t-2 18l29 71l-65 40q-9 6 -9 16q0 11 7 15q8 5 13 5l77 -6l18 75q1 6 7 10q5 4 12 4t12 -4q6 -4 7 -10l18 -75l77 6q5 0 13 -5q7 -4 7 -15q0 -10 -9 -16z" />
    <glyph glyph-name="plus" unicode="+" horiz-adv-x="568" 
d="M495 266q0 -21 -15 -36t-36 -15h-115v-115q0 -19 -15 -34t-34 -15t-34 15t-15 35v115h-116q-19 0 -34 15t-15 36q0 20 15 35t35 15h116v115q0 20 15 35t35 15t35 -15t15 -35v-115h115q21 0 36 -15t15 -34z" />
    <glyph glyph-name="comma" unicode="," horiz-adv-x="217" 
d="M166 44q0 -17 -10 -31l-74 -111q-10 -16 -27 -16q-13 0 -24 11q-10 10 -10 24l2 12l40 123q5 14 13 24q9 10 20 15q9 4 20 4q21 0 36 -15t15 -36z" />
    <glyph glyph-name="hyphen" unicode="-" horiz-adv-x="458" 
d="M387 267q0 -21 -15 -36t-36 -15h-219q-19 0 -34 15t-15 36q0 20 15 35t35 15h219q21 0 36 -15t15 -34z" />
    <glyph glyph-name="period" unicode="." horiz-adv-x="210" 
d="M158 46q0 -23 -16 -39t-39 -16t-39 16t-16 39q0 22 17 39q16 16 39 16t39 -16q17 -17 17 -39h-2z" />
    <glyph glyph-name="slash" unicode="/" horiz-adv-x="365" 
d="M98 -20q-5 -12 -18 -18t-27 -1q-12 4 -18 18q-6 13 0 27l244 605q4 13 18 19q13 6 27 0q13 -4 19 -18t0 -27z" />
    <glyph glyph-name="zero" unicode="0" horiz-adv-x="480" 
d="M457 300q0 -155 -54 -231q-54 -77 -163 -77q-218 0 -218 309t218 309q217 0 217 -309v-1zM345 300q0 129 -24 189t-81 60t-81 -60t-24 -189q0 -131 24 -189q24 -59 81 -59t81 59q24 58 24 189z" />
    <glyph glyph-name="one" unicode="1" horiz-adv-x="270" 
d="M206 47q0 -23 -16 -39t-37 -16q-23 0 -39 16t-16 39v493h-53q-12 0 -21 9t-9 23q0 12 9 21t21 9h107q21 0 37 -16t16 -37v-503z" />
    <glyph glyph-name="two" unicode="2" horiz-adv-x="480" 
d="M430 41q0 -18 -13 -31t-31 -13h-303q-18 0 -31 13t-13 31q0 11 7 24t27 36q19 22 90 84q80 73 111 125q30 51 30 100q0 47 -16 76q-17 31 -45 44q-30 14 -63 14q-21 0 -43 -6q-23 -6 -34 -6q-12 0 -22 9t-10 26q0 12 6 21t18 12q28 9 96 9q76 0 126 -25q52 -26 77 -69
q26 -44 26 -105q0 -58 -36 -112q-35 -53 -119 -123q-42 -35 -68 -57t-37 -32h234q18 0 30 -12t12 -30z" />
    <glyph glyph-name="three" unicode="3" horiz-adv-x="480" 
d="M413 171q0 -33 -12 -66q-12 -32 -39 -58t-70 -42q-42 -16 -102 -16q-72 0 -96 7q-8 3 -18 11q-9 7 -9 23q0 17 11 26q10 9 23 9q6 0 14.5 -1.5t19.5 -3.5q25 -5 45 -5q18 0 48 8q28 7 51 33q22 25 22 71q0 56 -35 86t-105 30q-11 0 -22 11q-10 10 -10 24q0 13 9 24t24 11
q123 0 123 101q0 41 -25 65q-26 24 -73 24q-21 0 -36 -4t-27 -4q-14 0 -24 9t-10 24q0 11 7 21t24 15q22 6 71 6q63 0 107 -18t68 -51t24 -80q0 -37 -20 -69t-48 -48q-29 -17 -51 -24q28 -6 63 -21t57 -46q23 -32 23 -79z" />
    <glyph glyph-name="four" unicode="4" horiz-adv-x="480" 
d="M472 176q0 -14 -10 -24t-24 -10h-57v-97q0 -23 -16 -39t-39 -16q-21 0 -37 16t-16 39v97h-226q-13 0 -24 11q-10 10 -10 24q0 11 6 20l261 387q17 26 45 26q23 0 39 -16t16 -37v-345h57q15 0 24 -11t9 -24zM274 462l-170 -251h170v251z" />
    <glyph glyph-name="five" unicode="5" horiz-adv-x="480" 
d="M413 193q0 -46 -18 -83t-49 -64q-32 -27 -73 -42q-42 -15 -90 -15q-69 0 -99 8q-11 3 -19 12q-7 8 -7 20q0 17 11 26q10 9 24 9q5 0 14 -1.5l21 -3.5t24 -3.5t24 -1.5q34 0 65 14q30 13 48 44q18 30 18 74q0 26 -10 53q-11 29 -38 50t-63 21q-34 0 -60 -10t-43 -10
q-14 0 -21 12t-6 25l36 245q2 14 12 26t27 12h210q16 0 26 -10q11 -11 11 -25q0 -17 -9 -27t-24 -10h-186l-25 -169q28 5 48 8t34 3q24 0 59 -8q32 -7 63 -29t50 -58q20 -38 20 -90z" />
    <glyph glyph-name="six" unicode="6" horiz-adv-x="480" 
d="M444 198q0 -101 -54 -153q-53 -52 -145 -52q-41 0 -81 14q-39 13 -69 45q-30 31 -48 86q-18 54 -18 128q0 55 17 118q16 61 54 112q38 52 81 77q45 26 76 32q35 6 57 5q13 0 24 -9t11 -24q0 -10 -8 -21t-18 -12q-89 -17 -141 -111q-20 -36 -30 -81q-10 -43 -10 -82
q0 -101 26 -159q25 -57 80 -57q37 0 63 33q26 34 26 103q0 62 -31 93t-87 31l-16 -1q-14 0 -23 9t-9 26q0 36 65 36q30 0 66 -9t69 -30t55 -58t22 -90z" />
    <glyph glyph-name="seven" unicode="7" horiz-adv-x="480" 
d="M452 550q0 -18 -17 -50q-25 -49 -55.5 -107t-68.5 -127t-73 -129.5t-68 -114.5q-8 -13 -21 -20q-14 -8 -27 -8q-22 0 -37 15t-15 36q0 13 8 27q94 155 157.5 266t98.5 181q10 18 -12 18q-61 0 -126.5 -1t-137.5 -3q-15 -2 -24 9q-9 10 -9 24q0 13 11 24q10 10 24 12
q97 4 189 3q78 0 147 -3q26 -2 42 -16q17 -15 17 -39z" />
    <glyph glyph-name="eight" unicode="8" horiz-adv-x="480" 
d="M439 174q0 -45 -13 -75q-13 -31 -35 -54q-21 -23 -60 -39q-38 -16 -93 -16q-42 0 -81 11q-36 10 -64 32q-27 21 -42 54t-15 75q0 37 18 67q18 31 48 50q31 20 54 20q12 0 21 -9t9 -22q0 -11 -15 -30q-15 -20 -21 -37q-6 -18 -6 -39q0 -52 29 -81t66 -29t66 29t29 89
q0 33 -20 61q-20 27 -92 56q-71 28 -100 48q-28 19 -45 50q-16 29 -16 74q0 48 21 81t62 51q40 18 99 18q47 0 89 -15t63 -49q21 -35 21 -79q0 -21 -10 -45q-11 -26 -33 -47q-23 -21 -42 -21q-13 0 -24 8q-10 7 -10 24q0 8 9 29t9 47t-9 47t-28 31t-39 10q-29 0 -48 -16
t-25 -36t-6 -39q0 -30 24 -55q24 -26 91 -48q68 -23 101 -45q34 -23 50 -57q17 -36 17 -78z" />
    <glyph glyph-name="nine" unicode="9" horiz-adv-x="480" 
d="M449 334q0 -75 -22 -138q-23 -66 -61 -110q-39 -45 -90 -69t-105 -24q-13 0 -25 9t-12 24q0 10 8 21q7 10 18 12q24 4 54 20t53 39q12 12 21 24t16 23q18 33 27 80q9 46 9 86q0 102 -26 160q-26 57 -78 57q-40 0 -65 -33q-26 -34 -26 -103q0 -62 31 -93t87 -31l16 1
q14 0 23 -9t9 -26q0 -36 -65 -36q-30 0 -66 9t-69 30q-32 20 -55 59q-22 37 -22 90q0 35 9 71t36 69t68 48q40 15 83 15q71 0 118 -31q49 -32 74 -91q26 -61 26 -152z" />
    <glyph glyph-name="colon" unicode=":" horiz-adv-x="210" 
d="M158 363q0 -23 -16 -39t-39 -16q-22 0 -39 17q-16 16 -16 39q0 22 17 39t39 17q23 0 39 -16q17 -17 17 -39zM156 44q0 -23 -16 -39t-39 -16t-39 16t-16 39q0 22 17 39q16 16 39 16t39 -16q17 -17 17 -39h-2z" />
    <glyph glyph-name="semicolon" unicode=";" horiz-adv-x="217" 
d="M166 363q0 -23 -16 -39t-39 -16q-22 0 -39 17q-16 16 -16 39t16 39q17 17 39 17q23 0 39 -16q17 -17 17 -39zM165 42q0 -17 -10 -31l-74 -111q-10 -16 -27 -16q-13 0 -24 11q-10 10 -10 24l2 12l40 123q5 14 13 24q9 10 20 15q9 4 20 4q21 0 36 -15t15 -36z" />
    <glyph glyph-name="less" unicode="&#x3c;" horiz-adv-x="372" 
d="M331 87q0 -21 -15 -36t-34 -15q-6 0 -18 5q-9 4 -16 9l-194 182q-16 13 -16 36t16 36l194 182q14 13 34 13q21 0 36 -15t15 -36q0 -20 -16 -35l-156 -144l156 -144q16 -15 16 -35z" />
    <glyph glyph-name="equal" unicode="=" horiz-adv-x="528" 
d="M457 365q0 -19 -15 -34t-36 -15h-289q-19 0 -34 15t-15 35q0 21 15 36t35 15h289q21 0 36 -15t15 -36zM456 167q0 -21 -15 -36t-36 -15h-289q-19 0 -34 15t-15 36q0 20 15 35t35 15h289q21 0 36 -15t15 -34z" />
    <glyph glyph-name="greater" unicode="&#x3e;" horiz-adv-x="372" 
d="M334 271q0 -5 -3 -15q-3 -11 -13 -21l-194 -182q-19 -14 -35 -14q-19 0 -34 15t-15 36q0 20 16 35l156 144l-156 144q-16 15 -16 35q0 21 15 36t36 15q17 0 33 -13l194 -182q3 -3 9 -12t6 -23z" />
    <glyph glyph-name="question" unicode="?" horiz-adv-x="424" 
d="M394 456q0 -36 -19 -67q-20 -32 -73 -69q-56 -39 -68 -51q-13 -13 -22 -25q-8 -10 -13 -26q-5 -15 -5 -29t-10 -24t-22 -10q-14 0 -24 10t-10 24q0 24 8 54q7 27 26 52q9 12 24.5 27t37.5 34q44 38 53 62t9 42q0 34 -15 55t-39 30t-53 9q-20 0 -44 -3t-31 -3q-9 0 -19 8
q-9 7 -9 17q0 23 22 30q24 8 78 8q112 0 165 -39t53 -115v-1zM218 45q0 -23 -16 -39t-39 -16t-39 16t-16 39t16 39t39 16t39 -16t16 -39z" />
    <glyph glyph-name="at" unicode="@" horiz-adv-x="856" 
d="M755 356q1 -38 -9 -75q-11 -39 -34 -69t-59 -52q-34 -20 -72 -22q-106 -6 -111 89q-1 14 2 39q3 22 12 54q9 31 9 39q-1 13 -9 19t-24 5q-24 -1 -52 -32q-26 -29 -37 -61q-10 -31 -9 -49q1 -23 13 -34q12 -12 30 -10q12 1 23 5q9 3 15 3q9 1 15 -5t6 -14q1 -10 -8 -18
q-17 -16 -53 -17q-51 -1 -82 24q-32 25 -33 66q-1 31 12 64q14 34 39 62q24 27 59 46q34 19 66 20q27 2 49 -4q24 -6 36 -21q13 -16 14 -34q1 -14 -11 -65t-11 -72q1 -16 8 -29q6 -12 17 -15q12 -3 26 -2q25 2 50 24q26 23 39 61q13 39 12 79q-3 48 -23 91q-20 42 -54 72
q-35 30 -79 45q-45 15 -96 12q-55 -3 -109 -29q-51 -25 -91 -68q-39 -42 -60 -96t-18 -110q3 -57 25 -102q22 -46 60 -79q37 -32 85 -49q47 -16 99 -13q103 4 180 63q2 2 15 7q11 0 17 -9t6 -15q0 -11 -8 -17q-78 -70 -209 -78q-29 -2 -68 3q-39 4 -81 21q-40 16 -76 44
q-34 26 -60 65q-25 37 -36 77q-10 39 -12 71q-3 52 15 111t63 113q45 53 98 84q54 31 95 41q42 11 73 12q60 3 118 -14q56 -16 100 -51q43 -35 69 -84q26 -51 29 -108z" />
    <glyph glyph-name="A" unicode="A" horiz-adv-x="547" 
d="M521 58q1 -14 -3 -30q-5 -17 -19 -27t-30 -10q-20 0 -36 12t-19 36q-8 55 -18 102q-2 4 -6 15q-5 11 -27 17q-46 11 -108 11t-108 -12q-14 -3 -21 -9t-12 -23q-11 -55 -18 -121q-5 -29 -36 -29q-14 0 -25 11q-10 10 -7 29q8 57 20.5 113.5t29.5 115.5q33 117 81 213
q68 137 121 137q47 0 115 -135q23 -46 42.5 -94.5t34.5 -100.5q31 -106 47 -221h2zM378 233q-9 30 -20.5 60.5t-25.5 62.5t-28.5 61.5t-29.5 57.5q-3 7 -9 11q-7 5 -10 5q-11 0 -18 -16q-58 -110 -96 -242q44 14 118 14q28 0 63 -3q34 -3 54 -9z" />
    <glyph glyph-name="B" unicode="B" horiz-adv-x="516" 
d="M481 167q0 -87 -60 -133q-59 -46 -156 -46q-106 0 -155 45q-50 45 -50 135v327q0 28 13 51t32 36t35 17t32 6l76 2q66 0 114 -20q46 -20 72 -54q25 -34 25 -82q0 -23 -9 -48t-32 -45t-53 -32q-14 -3 -14 -5t6 -2q7 0 9 -1q115 -42 115 -146v-5zM368 161q0 28 -12 55
q-12 28 -48 44q-37 17 -87 17q-11 0 -22 11q-10 10 -10 24q0 13 9 24t24 11q64 0 98 23q33 22 33 71q0 50 -31 75t-87 25q-29 0 -48 -10t-19 -33v-319q0 -62 21 -96q21 -35 80 -35q43 0 72 29t29 89z" />
    <glyph glyph-name="C" unicode="C" horiz-adv-x="492" 
d="M485 56q0 -23 -21 -33q-60 -30 -165 -30q-54 0 -103 20q-48 20 -83 59q-34 39 -54 98q-19 57 -19 132t23 136q23 60 62 98q39 37 87 57q47 19 97 19q87 0 141 -22q17 -6 26 -15t9 -24q0 -12 -9 -24t-26 -12t-39 12q-39 19 -86 19q-28 0 -58 -15q-29 -15 -55 -45
q-26 -31 -41 -77q-15 -47 -15 -108q0 -44 11 -91q10 -44 35 -78t57 -53q34 -20 68 -20q20 0 42 5q21 5 44 15q25 11 38 11q15 0 25 -10t10 -25z" />
    <glyph glyph-name="D" unicode="D" horiz-adv-x="581" 
d="M542 300q0 -65 -16 -119q-17 -56 -51 -98q-35 -42 -90 -66q-56 -24 -129 -24q-72 0 -111 9q-38 9 -61 38q-22 28 -22 84v374q0 27 13 50q13 24 37 40q23 16 62 19l76 2q60 0 111 -19q53 -20 93 -58q41 -39 63 -97q23 -60 23 -134zM429 296q0 71 -25 130q-26 61 -69 89
q-44 29 -100 29q-35 0 -49 -13q-15 -14 -15 -30v-339q0 -58 18 -82t72 -24q45 0 83 29q37 28 60 83t23 132z" />
    <glyph glyph-name="E" unicode="E" horiz-adv-x="465" 
d="M450 34q0 -14 -10 -24t-24 -10h-159q-97 0 -146 45q-50 45 -50 131v247q0 61 26 101t70 59q46 20 105 20h135q14 0 24 -10q11 -11 11 -24q0 -14 -10 -24t-24 -10h-122q-50 0 -78 -27t-28 -91v-74h190q15 0 24 -11t9 -24q0 -14 -10 -24t-24 -10h-190v-90q0 -64 29 -90
q28 -25 80 -25h139q15 0 24 -11t9 -24z" />
    <glyph glyph-name="F" unicode="F" horiz-adv-x="428" 
d="M421 565q0 -15 -11 -24t-24 -9h-111q-49 0 -77 -26q-27 -26 -27 -90v-70h189q15 0 24 -11t9 -24q0 -14 -10 -24t-24 -10h-189v-232q0 -23 -16 -39t-39 -16t-39 16t-16 39v377q0 86 52 132q53 47 150 47h123q13 0 24 -9t11 -24z" />
    <glyph glyph-name="G" unicode="G" horiz-adv-x="560" 
d="M515 47q0 -23 -16 -39t-37 -16q-25 0 -41 19q-61 -19 -125 -19q-54 0 -103 20q-47 19 -82 59q-34 39 -54 98q-19 57 -19 132t23 136q23 60 62 98q39 37 87 57q47 19 97 19q87 0 141 -22q17 -6 26 -15t9 -24q0 -12 -9 -24t-26 -12t-39 12q-39 19 -86 19q-28 0 -58 -15
q-29 -15 -55 -45q-26 -31 -41 -77q-15 -47 -15 -108q0 -75 23 -129q22 -51 62 -82q39 -30 83 -30t89 18v160q0 21 16 37t39 16q21 0 37 -16t16 -37v-191z" />
    <glyph glyph-name="H" unicode="H" horiz-adv-x="603" 
d="M542 46q0 -23 -16 -39t-39 -16t-39 16t-16 39v232h-265v-232q0 -23 -16 -39t-39 -16t-39 16t-16 39v511q0 21 16 37t39 16t39 -16t16 -37v-214h265v214q0 21 16 37t39 16t39 -16t16 -37v-511v0z" />
    <glyph glyph-name="I" unicode="I" horiz-adv-x="302" 
d="M277 30q0 -13 -9 -22t-21 -9h-190q-12 0 -21 9t-9 23q0 11 9 22q9 10 21 10h41v475h-41q-12 0 -21 9t-9 23q0 12 9 21t21 9h190q12 0 21 -9t9 -21q0 -13 -9 -22t-21 -9h-42v-475h42q12 0 21 -10q9 -11 9 -22v-2z" />
    <glyph glyph-name="J" unicode="J" horiz-adv-x="278" 
d="M214 232q0 -71 -21 -122q-21 -52 -61 -81q-41 -30 -100 -36q-42 -5 -42 24q0 4 3 10q2 5 23 16q52 26 71 69q20 45 20 122v323q0 21 16 37t39 16t39 -16t16 -37v-325h-3z" />
    <glyph glyph-name="K" unicode="K" horiz-adv-x="539" 
d="M538 41q0 -21 -16 -37t-39 -16q-20 0 -55 20q-35 19 -81 60q-47 40 -84 90q-36 48 -58 93q-21 43 -21 78q0 24 26 64q25 39 84 93q57 53 117 88q59 35 81 35q16 0 25 -10q9 -11 9 -24q0 -11 -7 -19t-18 -13q-45 -20 -108 -63t-91 -76q-28 -32 -28 -51q0 -25 28 -69
t92 -105q62 -59 114 -88q11 -6 18 -19q8 -14 8 -27zM173 42q0 -23 -16 -39t-39 -16t-39 16t-16 39v511q0 21 16 37t39 16t39 -16t16 -37v-511z" />
    <glyph glyph-name="L" unicode="L" horiz-adv-x="424" 
d="M432 34q0 -14 -10 -24t-24 -10h-142q-98 0 -147 45q-50 45 -50 131v381q0 21 16 37t39 16t39 -16t16 -37v-373q0 -64 29 -90q28 -25 80 -25h123q15 0 24 -11t9 -24h-2z" />
    <glyph glyph-name="M" unicode="M" horiz-adv-x="735" 
d="M677 47q1 -22 -15 -40q-17 -18 -39 -18q-21 0 -36 15q-14 14 -16 36l-26 362l2 22q-2 1 -3 0l-6 -22l-146 -309q-6 -14 -18 -21q-11 -7 -28 -7t-30 9t-19 22l-147 308l-7 22h-3l2 -22l-21 -379q-2 -14 -12 -24t-24 -10t-25 11t-9 26l33 525q2 26 18 41t42 15q14 0 26 -9
t18 -21l183 -383l177 378q17 35 51 35q21 0 33 -13q13 -14 14 -36l36 -510z" />
    <glyph glyph-name="N" unicode="N" horiz-adv-x="599" 
d="M536 45q0 -23 -15 -39t-36 -16q-14 0 -27 6q-14 6 -21 16l-300 417l-7 22l-3 -1l2 -21v-404q0 -13 -11 -24t-24 -11q-14 0 -25 11q-10 10 -10 24v529q0 22 15 39q15 16 38 16q13 0 25 -6q13 -7 20 -16l303 -420l6 -22q1 -1 3 -1t0 2l-2 22v407q1 13 12 24t24 11
q14 0 24 -10q11 -11 11 -24v-529z" />
    <glyph glyph-name="O" unicode="O" horiz-adv-x="594" 
d="M552 298q0 -75 -19 -132q-20 -59 -54 -98q-34 -38 -81 -58q-45 -19 -102 -19q-54 0 -102 20q-46 19 -81 59q-34 39 -54 98q-19 57 -19 132t19 132q20 59 54 98q35 40 81 59q48 20 102 20q53 0 102 -20q47 -19 82 -59q35 -39 54 -97q19 -57 19 -132zM439 298
q0 248 -143 248q-144 0 -144 -248q0 -247 144 -247q143 0 143 247z" />
    <glyph glyph-name="P" unicode="P" horiz-adv-x="505" 
d="M481 392q0 -29 -9 -62q-9 -32 -33 -61q-25 -30 -54 -47q-32 -19 -72 -32t-82 -13q-16 0 -28 9t-12 26t12 26q11 8 23 10q45 1 81 20q34 18 51 50q16 31 16 74q0 32 -6 62q-6 31 -19 51q-14 21 -33 33q-20 12 -46 12q-100 0 -100 -157v-346q0 -23 -16 -39t-39 -16t-39 16
t-16 39v350q0 68 25 114t72 72t114 26q70 0 117 -27t71 -74t24 -112z" />
    <glyph glyph-name="Q" unicode="Q" horiz-adv-x="594" 
d="M552 298q0 -75 -19 -132q-20 -59 -54 -98q-34 -38 -81 -58q-45 -19 -102 -19q-54 0 -102 20q-46 19 -81 59q-34 39 -54 98q-19 57 -19 132t19 132q20 59 54 98q35 40 81 59q48 20 102 20q53 0 102 -20q47 -19 82 -59q35 -39 54 -97q19 -57 19 -132zM439 298
q0 248 -143 248q-144 0 -144 -248q0 -247 144 -247q143 0 143 247zM500 -95q-2 -18 -15 -30q-14 -12 -31 -12l-9 2l-162 51q-8 3 -12 10t-4 15q2 10 9 17q8 8 17 6l165 -13q13 -2 24 -9q11 -8 14 -18q3 -11 3 -18z" />
    <glyph glyph-name="R" unicode="R" horiz-adv-x="513" 
d="M479 409q0 -52 -23 -90q-22 -37 -62 -60q-39 -22 -86 -33q10 -17 33 -42q11 -13 24.5 -26t29.5 -27t30 -25t27 -19q23 -15 20 -50q-5 -21 -19 -33q-15 -12 -38 -12q-18 0 -48 21q-31 22 -74 69q-44 49 -72 94q-29 47 -29 66q0 16 11 24q10 7 23 9q46 6 78 21q31 15 49 45
t18 70q0 46 -12 78t-35 47t-54 15q-100 0 -100 -157v-346q0 -23 -16 -39t-39 -16t-39 16t-16 39v350q0 68 25 114t72 72t114 26q95 0 153 -52t58 -147z" />
    <glyph glyph-name="S" unicode="S" horiz-adv-x="447" 
d="M422 166q0 -29 -11 -60t-36 -56q-26 -26 -67 -42q-43 -17 -97 -17q-49 0 -88 6q-37 6 -76 26q-22 12 -21 34q2 14 10 24q9 10 25 10q13 0 40 -12t52 -15t51 -3q40 0 72 24t32 66q0 28 -16 45q-17 18 -36 30q-10 6 -22 12.5t-26 13.5t-22.5 11t-11.5 6q-48 23 -71 39
q-24 16 -40 37q-16 20 -25 46q-9 25 -9 56q0 70 56 117t143 47q44 0 89 -9q47 -9 71 -22q16 -9 16 -31q0 -14 -10 -24q-11 -11 -24 -11q-14 0 -54 15q-41 15 -75 15q-48 0 -76 -22t-28 -54q0 -27 15 -51t74 -54q29 -15 44.5 -22.5t17.5 -8.5q25 -13 44 -24t33 -22
q27 -21 42 -49q15 -29 15 -69v-2z" />
    <glyph glyph-name="T" unicode="T" horiz-adv-x="495" 
d="M509 564q0 -16 -10 -26q-11 -11 -25 -11h-173v-483q0 -23 -16 -39t-37 -16q-23 0 -39 16t-16 39v483h-172q-15 0 -26 11t-11 26t11 26t26 11h452q16 0 26 -10q11 -11 11 -25z" />
    <glyph glyph-name="U" unicode="U" horiz-adv-x="607" 
d="M543 220q0 -46 -15 -88q-15 -41 -45 -73q-29 -30 -77 -49q-47 -18 -105 -18q-44 0 -87 12q-42 12 -82 44q-39 31 -57 78q-18 46 -18 93v337q0 21 16 37t39 16t39 -16t16 -37v-308q0 -101 34 -147q35 -47 102 -47q135 0 135 195v308q0 21 16 37t37 16q23 0 39 -16t16 -37
v-337h-3z" />
    <glyph glyph-name="V" unicode="V" horiz-adv-x="550" 
d="M523 571q-38 -233 -133 -435q-34 -77 -62 -111q-27 -33 -53 -33q-25 0 -55 34t-72 120q-85 165 -118 399q-5 29 12 47q16 18 41 18q13 0 27 -6q13 -6 19 -18q7 -13 8 -24q18 -129 52 -235q35 -110 91 -204q8 -14 15 -14q7 -1 16 15q101 189 140 456q1 16 14 24t22 8
q16 0 27 -12t8 -30z" />
    <glyph glyph-name="W" unicode="W" horiz-adv-x="882" 
d="M848 571q-36 -243 -119 -435q-32 -75 -58 -108q-27 -35 -51 -35q-19 0 -39 20q-19 19 -39 53q-21 35 -41 80q-39 82 -63 173q-1 7 -5 7q-3 0 -5 -8q-29 -98 -66 -183q-8 -19 -16.5 -36t-17.5 -33t-18.5 -28.5t-19.5 -23.5q-20 -21 -39 -21q-23 0 -52 35q-28 34 -69 119
q-31 65 -58 157q-14 45 -25 105.5t-21 137.5q-5 29 12 47q16 18 39 18q13 0 27 -6q13 -6 21 -18t9 -25q7 -50 14.5 -94.5t16.5 -86.5t19.5 -78.5t23.5 -68.5q25 -65 51 -111q8 -14 15 -14q6 -2 15 15q68 135 103 324q2 8 3 16.5t2 17.5t1 19.5v22.5v32q0 23 16 39t39 16
q25 0 39 -15q13 -14 16 -34q22 -173 54 -271q31 -98 69 -168q8 -14 15 -14q5 -2 14 15q86 171 124 456q1 13 12 22q10 9 24 9q15 0 26 -12t8 -30z" />
    <glyph glyph-name="X" unicode="X" horiz-adv-x="493" 
d="M477 47q0 -23 -16 -39t-39 -16q-26 0 -42 22q-38 51 -72.5 98.5t-66.5 92.5q-8 11 -13 11q-7 0 -14 -10q-44 -61 -77.5 -110.5t-58.5 -87.5q-8 -14 -24 -15q-17 -2 -27 6q-10 7 -13 23q-3 15 5 26q45 66 160 220l2 4t3 5q3 6 -6 20q-98 139 -150 228q-11 14 -11 33
q0 21 16 37t39 16q13 0 25 -6t18 -16q29 -48 62 -98.5t70 -104.5q7 -10 13 -10q5 0 13 11q42 57 77.5 108t65.5 99q7 13 23 15t27 -7q13 -8 14 -22q1 -15 -6 -25q-44 -66 -165 -228q-3 -3 -6 -10t5 -19q94 -135 159 -219q11 -17 11 -33z" />
    <glyph glyph-name="Y" unicode="Y" horiz-adv-x="470" 
d="M465 568q-31 -153 -122 -289q-18 -26 -31.5 -42.5t-21.5 -24.5v-167q0 -23 -16 -39t-39 -16q-21 0 -37 16t-16 39v166q-8 6 -21 21q-7 8 -18 22t-27 36q-14 19 -26 40t-23 44t-19.5 42.5t-14.5 36.5t-10.5 32.5t-8.5 30.5q-7 28 -7 41q0 25 17 39t36 14t34 -12
q14 -12 19 -30q36 -168 127 -275q6 -9 14 -9t15 10q86 112 124 288q3 12 14 20t24 8q16 0 27 -12q10 -12 7 -29v-1z" />
    <glyph glyph-name="Z" unicode="Z" horiz-adv-x="474" 
d="M450 549q0 -23 -18 -51q-45 -69 -153 -216q-106 -145 -154 -217l289 3q14 2 24 -10q10 -11 10 -25t-9 -24q-9 -11 -24 -11l-355 1q-18 0 -34 15t-16 39q0 20 11 40q52 81 171 243q60 81 96.5 132t50.5 71q-78 1 -270 -3q-15 -2 -24 9q-9 10 -9 24q0 13 11 24q10 10 24 12
q47 2 90 2.5t85 -0.5q81 0 150 -3q27 -2 44 -16q18 -15 18 -39h-8z" />
    <glyph glyph-name="bracketleft" unicode="[" horiz-adv-x="276" 
d="M262 -33q0 -14 -10 -24t-24 -10h-80q-17 0 -38 9t-36 32q-15 22 -15 50v549q0 17 9 38t32 36q22 15 50 15h80q14 0 24 -10q11 -11 11 -24q0 -14 -10 -24t-24 -10h-29q-18 0 -30 -13q-12 -14 -12 -30v-509q0 -18 12 -30t30 -12h29q14 0 24 -10q11 -11 11 -24z" />
    <glyph glyph-name="backslash" unicode="\" horiz-adv-x="391" 
d="M352 11q6 -15 0 -30t-21 -21q-14 -6 -29 0t-21 21l-241 598q-6 15 0 30t21 21t30 0t21 -21l242 -598h-2z" />
    <glyph glyph-name="bracketright" unicode="]" horiz-adv-x="276" 
d="M213 18q0 -17 -9 -38t-32 -36t-48 -15h-80q-13 0 -24 11q-10 10 -10 24q0 13 11 24t24 11h29q16 0 30 12q13 12 13 30v508q0 18 -13 30q-14 12 -30 12h-29q-13 0 -24 11q-10 10 -10 24q0 13 11 24t24 11h79q17 0 38 -9t36 -31q15 -23 15 -49v-549z" />
    <glyph glyph-name="asciicircum" unicode="^" horiz-adv-x="624" 
d="M308 670q17 0 34 -18l196 -231q8 -10 8 -21q0 -12 -7 -19q-8 -8 -20 -6q-13 2 -20 9l-189 184l-189 -184q-7 -7 -20 -9q-12 -2 -20 6q-7 7 -7 20q0 11 8 21l196 231q15 18 34 18z" />
    <glyph glyph-name="underscore" unicode="_" horiz-adv-x="391" 
d="M435 -205q0 -18 -13 -31t-31 -13h-391q-18 0 -31 13t-13 31t13 31t31 13h391q18 0 31 -13t13 -31z" />
    <glyph glyph-name="grave" unicode="`" horiz-adv-x="224" 
d="M196 502q-4 -7 -15 -10t-18 3l-116 85q-14 11 -17 27t6 30q10 13 27 18t32 -6l7 -6l94 -115q10 -13 1 -28z" />
    <glyph glyph-name="a" unicode="a" 
d="M362 190q0 -107 -46 -153q-47 -47 -136 -47q-23 0 -52 8q-27 7 -51 27q-24 19 -36 48q-12 28 -12 53q0 43 23 75t66 50q44 18 100 14q9 -2 16 -7q7 -6 7 -14t-7 -15q-8 -8 -16 -9q-98 -12 -98 -95q0 -20 9 -41t25 -30t33 -9q37 0 57 36q20 37 20 122q0 71 -10 100
q-11 30 -30 45q-20 15 -53 15q-21 0 -52 -10t-36 -10q-20 0 -27 18q-3 10 1 20q5 11 16 17q24 11 59 17q36 6 67 6q41 0 77 -13q38 -14 63 -58t25 -157z" />
    <glyph glyph-name="b" unicode="b" horiz-adv-x="444" 
d="M405 203q0 -54 -13 -93q-14 -41 -37 -67t-57 -40q-32 -13 -74 -13q-61 0 -101 26q-38 25 -58 71q-19 44 -19 113v407q0 21 15 36t35 15q21 0 36 -15t15 -36v-210q0 -4 1 -7q1 -5 12 3q34 26 88 26q44 0 82 -26q37 -25 58 -72t21 -116zM306 201q0 44 -6 83q-6 40 -24 59
q-18 20 -46 20q-47 0 -66 -40q-19 -39 -19 -120q0 -87 20 -124q19 -36 60 -36t60 37q20 38 20 124z" />
    <glyph glyph-name="c" unicode="c" horiz-adv-x="378" 
d="M363 356q-4 -10 -17 -13q-12 -3 -25 3q-11 4 -30 9q-10 2 -19.5 3.5t-20.5 1.5q-28 0 -55 -18t-42 -52q-15 -35 -15 -87q0 -54 16 -87q17 -35 43 -51q28 -17 56 -17q34 0 73 16l13 3q19 0 25 -14q4 -9 0 -21q-5 -13 -12 -17q-43 -25 -129 -25q-84 0 -135 56
q-51 55 -51 159q0 40 12 79t39 69t65 48q37 18 78 18q69 0 110 -18q17 -8 21 -19q5 -13 -1 -23z" />
    <glyph glyph-name="d" unicode="d" horiz-adv-x="442" 
d="M403 197q0 -59 -21 -102q-21 -44 -63 -72q-41 -28 -100 -28q-33 0 -69 11q-34 10 -60 35t-41 60q-15 36 -15 81q0 93 50 149q49 55 132 63q8 1 16 -5t9 -13q6 -22 -29 -33q-36 -11 -57 -48q-21 -38 -21 -102q0 -39 9 -75t30 -54t47 -18q19 0 40 12q22 13 35 43
q14 33 14 75q0 58 -28 135q-2 4 -3 5q-2 1 -15 36q-14 34 -21 69q-7 32 -7 72q0 73 32 139q8 14 19 21q13 8 24 8q21 0 35 -13q16 -14 17 -30q2 -17 -4 -30q-22 -43 -22 -96q0 -26 3 -53q3 -28 18 -62q15 -35 15 -36q35 -88 35 -147z" />
    <glyph glyph-name="e" unicode="e" 
d="M366 297q0 -27 -10 -51q-11 -26 -37 -45q-28 -20 -66 -29q-20 -5 -38 -7t-35 -3q-8 0 -16 8q-7 7 -7 15q0 9 6 15q7 7 15 8q103 10 103 93q0 22 -12 42q-12 19 -40 19q-15 0 -37 -12t-40 -49q-18 -38 -18 -99q0 -53 15 -87q15 -35 39 -51q25 -17 48 -17q20 0 38 3
q16 3 47 14l12 3q8 0 15 -4t10 -10q5 -11 2 -22t-12 -16q-17 -11 -49 -18q-31 -7 -79 -7q-84 0 -135 56q-51 55 -51 159q0 64 27 111t73 75t105 28q34 0 64 -13q33 -14 50 -43q18 -30 18 -63z" />
    <glyph glyph-name="f" unicode="f" horiz-adv-x="295" 
d="M335 635q0 -20 -27 -24q-24 -4 -40 -7.5t-24 -6.5q-15 -6 -30 -17q-14 -11 -24 -27q-4 -6 -7 -19q-2 -6 -2.5 -13.5t-1.5 -17.5t-1 -19v-18v-19v-30q1 -4 5 -4h69q11 0 20 -9t9 -21q0 -11 -9 -20t-20 -9h-69q-4 -1 -4 -5v-307q0 -19 -15 -34t-34 -15t-34 15t-15 35v307
q0 4 -4 5h-36q-11 0 -20 9t-9 20q0 12 9 21t20 9h35l4 4l-2 64q0 29 9 62t26 53q22 27 68 45q45 18 92 18l34 -2q11 -2 20 -9q9 -8 9 -15z" />
    <glyph glyph-name="g" unicode="g" horiz-adv-x="442" 
d="M402 261q0 -26 -9 -60q-9 -35 -42 -65t-93 -42q-12 -2 -20 4q-9 6 -10 16q0 7 4 12q4 6 24 15q47 29 47 102q0 70 -22 98q-23 29 -61 29t-60 -33q-23 -34 -23 -100q0 -34 12 -65q12 -32 41 -56q28 -24 60 -39q29 -14 51 -25t36 -21q29 -20 44 -45q15 -26 15 -61
q0 -49 -31 -90q-32 -42 -87 -63q-56 -21 -113 -21q-42 0 -63 7q-10 3 -16 12t-6 19t9 18q8 7 19 7q6 0 27 -3t36 -3q49 0 87 30t38 86q0 26 -11 48q-10 20 -30 37q-18 15 -75 43q-78 40 -111 84q-33 43 -33 105q0 50 24 91q25 42 67 65q43 24 96 24q31 0 63 -9q33 -9 57 -28
q25 -20 42 -51q17 -32 17 -72zM476 498q0 -19 -11 -28q-62 -53 -81 -66q-1 -1 -7 -4t-9 -3q-10 0 -18 8q-7 7 -7 17q0 7 5 15q13 23 26.5 45.5t27.5 43.5q11 14 31 14q17 0 29 -12t12 -29z" />
    <glyph glyph-name="h" unicode="h" horiz-adv-x="460" 
d="M407 38q0 -19 -15 -34t-34 -15q-20 0 -35 15t-15 35v179q0 63 -8 90q-8 25 -24 39q-16 13 -44 13q-80 0 -80 -124v-198q0 -19 -15 -34t-36 -15q-19 0 -34 15t-15 35v568q0 21 15 36t35 15q21 0 36 -15t15 -36v-212q0 -11 9 -3q40 27 87 27q46 0 84 -22t58 -63
q20 -42 20 -84v-209z" />
    <glyph glyph-name="i" unicode="i" horiz-adv-x="227" 
d="M157 511q0 -17 -12 -29t-31 -12q-17 0 -29 13q-12 12 -12 30q0 17 12 29q12 13 29 13q20 0 31 -12q12 -12 12 -29v-3zM162 38q0 -19 -15 -34t-35 -15q-19 0 -34 15t-15 35v329q0 21 15 36t35 15t35 -15t15 -36v-329z" />
    <glyph glyph-name="j" unicode="j" horiz-adv-x="226" 
d="M157 -31q0 -52 -15 -103t-52 -82q-38 -32 -90 -36q-39 -2 -39 24q0 3 3 9t22 16q33 17 53 50q20 34 20 126v395q0 21 15 36t35 15q21 0 36 -15t15 -36v-398zM153 511q0 -17 -12 -29t-31 -12q-17 0 -29 13q-12 12 -12 30q0 17 12 29q12 13 29 13q20 0 31 -12
q12 -12 12 -29v-3z" />
    <glyph glyph-name="k" unicode="k" horiz-adv-x="451" 
d="M447 39q0 -18 -14 -34q-14 -15 -33 -15q-16 0 -48 17q-32 16 -78 57q-47 41 -77 86t-30 77q0 21 21 50q21 28 69 63q48 34 96 57q49 23 65 23q11 0 20 -9t9 -20q0 -10 -6 -19q-6 -8 -14 -10q-51 -18 -112 -57q-60 -39 -60 -61q0 -26 56 -79q55 -53 108 -78q12 -6 21 -19
q9 -14 9 -27zM152 38q0 -19 -15 -34t-36 -15q-19 0 -34 15t-15 35v568q0 21 15 36t35 15q21 0 36 -15t15 -36v-568z" />
    <glyph glyph-name="l" unicode="l" horiz-adv-x="232" 
d="M245 16q0 -9 -7 -15q-7 -5 -16 -7l-29 -2q-71 0 -106 41q-34 40 -34 120v455q0 21 15 36t35 15q21 0 36 -15t15 -36v-427q0 -68 15 -99q15 -32 57 -42q23 -6 23 -23z" />
    <glyph glyph-name="m" unicode="m" horiz-adv-x="692" 
d="M646 37q0 -19 -15 -34t-34 -15q-21 0 -36 15t-15 35v179q0 28 -1.5 48.5t-3.5 34.5q-4 27 -20 44q-15 16 -48 16q-25 0 -42 -11q-16 -10 -24 -35q-8 -26 -8 -97v-179q0 -19 -15 -34t-35 -15q-19 0 -34 15t-15 35v179q0 71 -8 97q-8 25 -24 35q-17 11 -43 11
q-25 0 -42 -11q-16 -10 -24 -35q-8 -26 -8 -97v-179q0 -19 -15 -34t-36 -15q-19 0 -34 15t-15 35v209q0 53 22 90q23 38 60 59t90 21q46 0 77 -17q30 -17 47 -44q40 61 124 61q52 0 90 -21t60 -58t22 -90v-209z" />
    <glyph glyph-name="n" unicode="n" horiz-adv-x="453" 
d="M405 36q0 -19 -15 -34t-34 -15q-20 0 -35 15t-15 35v180q0 65 -8 92q-8 25 -24 39q-16 13 -45 13q-21 0 -39 -9t-30 -33t-12 -101v-180q0 -19 -15 -34t-36 -15q-19 0 -34 15t-15 35v210q0 35 12 65q12 29 35 54q22 23 57 37q36 14 75 14q52 0 93 -22q42 -23 63 -63
q21 -41 21 -83v-210z" />
    <glyph glyph-name="o" unicode="o" horiz-adv-x="442" 
d="M407 204q0 -104 -51 -159t-135 -55t-135 56q-51 55 -51 159q0 103 51 159t135 56t135 -55q51 -56 51 -159v-2zM307 202q0 86 -22 123q-23 38 -64 38q-42 0 -64 -37t-22 -123t22 -123t64 -37q41 0 64 38q22 37 22 123v-2z" />
    <glyph glyph-name="p" unicode="p" horiz-adv-x="442" 
d="M411 228q0 -91 -50 -147t-132 -63q-8 -1 -16 5t-9 13q-1 13 5 21q6 7 24 12q19 6 39 24q19 18 30 51q10 31 10 74q0 39 -9 75t-31 54q-23 18 -48 18q-19 0 -40 -12t-34 -43q-13 -30 -13 -75q0 -54 28 -135q1 -5 15 -37q13 -29 22 -67q9 -36 9 -79q0 -73 -33 -139
q-6 -14 -18 -21q-11 -7 -24 -7q-11 0 -27 8q-14 7 -22 26q-8 18 3 39q22 43 22 95q0 24 -3 45t-9 39q-3 9 -6.5 19t-8.5 21q-8 20 -12 28q-35 88 -35 147q0 58 21 102q21 43 63 72q41 28 100 28q36 0 69 -10q35 -11 60 -34q26 -25 41 -60q15 -36 15 -81z" />
    <glyph glyph-name="q" unicode="q" horiz-adv-x="444" 
d="M396 -198q0 -20 -15 -35t-36 -15q-19 0 -34 15t-15 35v212q0 4 -1 7q-2 4 -12 -3q-37 -25 -88 -25q-44 0 -79 25q-37 26 -59 72q-22 45 -22 117q0 37 9 75t30 68t56 50q34 19 84 19q62 0 102 -26q39 -26 59 -71q20 -46 20 -112v-409zM294 205q0 90 -19 125q-20 36 -60 36
q-42 0 -61 -37t-19 -124q0 -85 20 -123q19 -37 57 -37q46 0 66 41q19 39 19 120z" />
    <glyph glyph-name="r" unicode="r" horiz-adv-x="314" 
d="M324 354q-4 -7 -15 -10t-18 0q-2 2 -23 11t-44 9q-45 0 -60 -33t-15 -103v-188q0 -19 -15 -34t-36 -15q-19 0 -34 15t-15 35v207q0 82 42 127t120 45q38 0 68 -9t40 -19q6 -6 6 -18t-4 -19z" />
    <glyph glyph-name="s" unicode="s" horiz-adv-x="347" 
d="M319 108q0 -41 -27 -69q-27 -29 -66 -39q-41 -11 -69 -11q-80 0 -126 23q-7 4 -12 17q-5 12 3 24q7 10 18 12q10 1 21 -3q22 -11 42 -15q22 -5 51 -5q18 0 39 8q19 7 28 21q9 13 9 27q0 16 -18 30q-20 15 -51 29q-35 16 -44 21q-50 28 -67 51q-16 22 -21 41q-4 16 -4 31
q0 50 42 83t110 33q12 0 44 -3q31 -3 63 -15q16 -7 22 -19q6 -13 2 -21q-5 -11 -15 -15q-11 -5 -24 0q-51 21 -82 21q-36 0 -55 -15t-19 -37q0 -14 15 -29q16 -16 54 -32q20 -8 31 -12.5t13 -6.5q62 -29 80 -57q18 -29 18 -63z" />
    <glyph glyph-name="t" unicode="t" horiz-adv-x="284" 
d="M283 16q0 -9 -7 -15q-7 -5 -16 -7l-28 -2q-32 0 -72 17q-39 16 -60 47q-14 18 -22 53q-8 33 -6 62l1 177q0 4 -4 5h-35q-11 0 -20 9t-9 20q0 12 9 21t20 9h36l4 4v69q0 20 15 35t35 15q19 0 34 -15t15 -35v-69l4 -4h69q11 0 20 -9t9 -21q0 -11 -9 -20t-20 -9h-69
q-2 0 -3 -1t-1 -3v-143q0 -50 3 -72q3 -23 9 -36q13 -26 36 -39q22 -14 45 -18q23 -5 23 -24z" />
    <glyph glyph-name="u" unicode="u" horiz-adv-x="453" 
d="M399 159q0 -43 -21 -83q-21 -41 -63 -63q-41 -22 -93 -22q-32 0 -63 9q-32 9 -57 30q-26 21 -42 54q-16 32 -16 75v210q0 20 15 35t35 15q21 0 36 -15t15 -34v-183q0 -64 8 -91q7 -25 26 -39q17 -13 46 -13q21 0 38 9t29 33t12 101v183q0 20 15 35t35 15t35 -15t15 -34
v-210z" />
    <glyph glyph-name="v" unicode="v" horiz-adv-x="405" 
d="M397 389q-8 -70 -28 -135q-11 -34 -22 -65.5t-24 -60.5q-65 -137 -117 -137q-31 0 -61 33t-63 108q-11 25 -21 53.5t-19 60.5q-18 64 -24 123q-1 19 14 36q15 16 36 16q19 0 33 -14t17 -36q6 -51 24 -117q19 -67 44 -122q24 -53 37 -53q9 0 33 53q24 52 45 122
q16 55 30 141q1 10 11 18t21 8q14 0 23 -9t8 -22z" />
    <glyph glyph-name="w" unicode="w" horiz-adv-x="650" 
d="M631 392q-14 -131 -66 -261q-25 -65 -53 -102q-27 -36 -51 -36q-29 0 -57 33q-27 31 -58 107q-8 18 -13 33l-9 27q-2 6 -5 6q-4 0 -5 -7l-23 -62q-54 -137 -105 -137q-20 0 -40 16q-20 15 -40 50q-19 32 -36 74q-21 52 -39 117q-17 62 -22 117q-2 20 13 36t35 16
q44 0 52 -50q0 -4 3 -19q2 -8 6 -28t11 -52t15.5 -62t19.5 -59q21 -57 36 -57q13 0 34 47q11 23 20 50t17 57q18 80 14 122q-2 23 13 38t36 15q23 0 36 -13q13 -14 15 -36q2 -20 8.5 -50t17.5 -70q21 -78 39 -118q18 -39 30 -39q13 0 33 47q10 23 18.5 49.5t16.5 55.5
q10 40 16.5 76.5t9.5 70.5q2 14 12 20t22 6q11 0 22 -9q10 -9 9 -22z" />
    <glyph glyph-name="x" unicode="x" horiz-adv-x="396" 
d="M372 368q-53 -77 -123 -153q-10 -10 -1 -22q55 -65 114 -120q16 -16 16 -36q0 -19 -14 -33t-33 -15q-20 -2 -36 15q-5 5 -11 12t-14 15q-15 16 -84 99q-10 10 -19 0q-17 -20 -48 -60q-16 -20 -28.5 -36.5t-21.5 -30.5q-1 -1 -3 -2.5t-5 -4.5q-6 -6 -17 -6q-18 0 -27 15
t2 32q21 30 48.5 64.5t62.5 74.5q10 10 1 21q-86 106 -110 143q-8 14 -8 31q0 18 15 33t35 15q26 0 41 -24q19 -28 42 -60t51 -68q10 -11 21 0q22 25 56 68q17 22 30.5 39.5t23.5 31.5q9 13 24 13q17 0 28 -15q10 -15 0 -31z" />
    <glyph glyph-name="y" unicode="y" horiz-adv-x="453" 
d="M399 157q0 -69 -45 -117q-9 -10 -51 -46q-41 -35 -54 -58q-14 -25 -14 -50q0 -6 0.5 -12t1.5 -12q1 -10 8 -27l7 -17q4 -14 3 -27q-2 -14 -15 -27t-36 -13q-11 0 -24 8q-11 7 -19 21q-21 42 -21 83q0 29 13 55q14 28 55 66q4 3 4 5t-5 2q-29 1 -57 12q-29 11 -52 31
q-24 21 -39 53q-15 31 -15 72v210q0 20 15 35t35 15q21 0 36 -15t15 -34v-183q0 -64 8 -91q7 -25 26 -39q17 -13 46 -13q21 0 38 9t29 33t12 101v183q0 20 15 35t35 15t35 -15t15 -34v-210z" />
    <glyph glyph-name="z" unicode="z" horiz-adv-x="375" 
d="M363 26q0 -4 -3 -13t-11 -12t-15 -3h-284q-11 0 -24 9q-14 9 -18 28t8 37q38 52 121 151q42 51 70 84.5t42 51.5q-48 1 -97.5 0.5t-102.5 -2.5q-7 0 -16 3q-8 3 -13 14q-4 10 -1 21q3 9 11 16q7 5 18 7q166 4 273 0q13 0 27 -8t17 -26t-10 -37q-17 -24 -46 -60t-71 -85
q-83 -98 -117 -144q76 0 129 0.5t84 1.5q15 2 23 -9t8 -21z" />
    <glyph glyph-name="braceleft" unicode="{" horiz-adv-x="258" 
d="M217 -36q-2 -19 -18 -29q-19 -10 -47 -10q-37 0 -67 15q-31 15 -47 45q-17 31 -17 73q0 21 8 48q7 25 24 63q17 39 17 51q0 18 -7 29q-8 12 -30 15q-11 1 -19 10q-9 9 -9 19t9 18q9 7 20 9q18 1 27 12q9 10 9 33q0 15 -19 56q-10 21 -16 37.5t-9 27.5q-6 22 -6 41
q0 42 17 73q16 30 47 45q30 15 67 15q29 0 46 -9q19 -10 19 -30q0 -14 -10 -24t-24 -10q-3 0 -6 0.5t-7 1.5q-10 2 -18 2t-16 -4q-9 -4 -13 -13q-4 -8 -4 -19q0 -10 3 -25q3 -14 20 -45q17 -30 21 -49q5 -22 5 -39q0 -69 -74 -101q74 -32 74 -99q0 -41 -21 -80t-24 -54
t-3 -25q0 -16 7 -24q8 -9 16 -12q9 -3 12 -3q8 0 18 2q4 1 7 1.5t6 0.5q14 0 24 -10q11 -11 11 -24z" />
    <glyph glyph-name="bar" unicode="|" horiz-adv-x="217" 
d="M148 -29q0 -16 -12 -28t-28 -12q-15 0 -27 12t-12 28v653q0 16 11 27t27 11q15 0 28 -11q12 -11 12 -27v-653h1z" />
    <glyph glyph-name="braceright" unicode="}" horiz-adv-x="258" 
d="M244 289q0 -10 -9 -19q-8 -8 -21 -10q-18 -3 -27 -12t-9 -31q0 -14 19 -55q10 -21 16 -37.5t9 -27.5q6 -23 6 -41q0 -33 -14 -67q-13 -32 -47 -49t-70 -17q-26 0 -45 10q-18 10 -18 30q0 13 11 24t24 11q7 0 12 -1q4 -1 8 -1h9q16 0 25 11q9 10 9 26q0 11 -3 26
q-3 14 -20 45q-16 30 -21 50q-5 22 -5 39q0 69 75 101q-75 31 -75 101q0 41 21 80t24 54t3 26q0 15 -9 26t-25 11q-11 0 -16 -1t-12 -1q-13 0 -24 11q-10 10 -10 24q0 19 18 30q18 9 46 9q37 0 67 -15q31 -15 47 -45q17 -31 17 -73q0 -24 -7 -48q-8 -26 -24 -63
q-17 -39 -17 -51q0 -16 8 -29t30 -14q13 -2 21 -10q9 -9 9 -19z" />
    <glyph glyph-name="asciitilde" unicode="~" horiz-adv-x="508" 
d="M491 364q0 -17 -26 -49q-25 -31 -58 -46t-60 -15q-32 0 -54 6q-11 3 -27.5 9.5t-38.5 16.5q-45 20 -72 20q-21 0 -38 -7t-42 -26q-24 -18 -37 -18q-10 0 -18 8q-7 7 -7 15q0 13 18 39t53 50q34 24 74 24q31 0 54 -6q11 -3 27.5 -9.5t38.5 -16.5q42 -19 72 -19q19 0 38 8
q16 7 42 26q24 18 37 18q10 0 18 -8t8 -17z" />
    <glyph glyph-name="uni00A0" unicode="&#xa0;" horiz-adv-x="210" 
 />
    <glyph glyph-name="exclamdown" unicode="&#xa1;" horiz-adv-x="230" 
d="M168 363q0 -23 -16 -39t-39 -16q-22 0 -39 17q-16 16 -16 39q0 22 17 39t39 17q23 0 39 -16q17 -17 17 -39zM172 -146q0 -22 -17 -39q-16 -16 -42 -16t-42 16q-17 17 -17 39q0 67 6.5 159t19.5 210q1 11 11 21q9 9 22 9t22 -9q10 -10 11 -21q13 -131 19.5 -222.5
t6.5 -146.5z" />
    <glyph glyph-name="cent" unicode="&#xa2;" horiz-adv-x="378" 
d="M363 356q-4 -10 -17 -13q-12 -3 -25 3q-11 4 -30 9q-10 2 -19.5 3.5t-20.5 1.5q-28 0 -55 -18t-42 -52q-15 -35 -15 -87q0 -54 16 -87q17 -35 43 -51q28 -17 56 -17q35 0 73 15q13 5 23 2t15 -12q4 -9 0 -21q-5 -13 -12 -17q-32 -17 -81 -21v-26q0 -12 -9 -21t-21 -9
t-21 9t-9 21v24q-36 1 -69 17q-31 15 -55 42t-36 66t-12 89q0 34 11 72q11 37 34 66t57 49q33 19 72 24v30q0 12 9 21t21 9t21 -9t9 -21v-29q43 -4 71 -17q17 -8 21 -19q5 -13 -1 -23z" />
    <glyph glyph-name="sterling" unicode="&#xa3;" horiz-adv-x="420" 
d="M413 86q1 -29 -15 -54q-17 -26 -42 -36q-24 -10 -48 -10q-26 0 -85 14t-72 14q-32 0 -57 -13t-48 -13q-16 0 -25 11q-9 10 -9 21q0 17 12 26q13 10 26 14q56 17 56 84q0 34 -19 109h-46q-15 0 -24 11q-9 10 -9 24q0 13 11 24t24 11h30q-12 52 -12 95q0 57 24 98t70 66
t114 25q54 0 80 -13q27 -14 27 -36q0 -14 -9 -24t-24 -10q-17 0 -37 7t-40 7q-32 0 -55 -13q-24 -14 -33 -36q-9 -23 -9 -45q0 -43 20 -121h105q15 0 25 -10t10 -24t-9 -24q-9 -11 -24 -11h-91q2 -15 3 -27t1 -20q0 -28 -10 -57q-11 -30 -27 -54l-6 -4q-5 -3 -3 -5q1 -1 6 2
q4 3 6 3l25 2q25 0 63 -9q37 -9 54 -9q14 0 27 8q12 7 18 20q7 13 21 13q11 0 18 -7q7 -8 9 -18z" />
    <glyph glyph-name="currency" unicode="&#xa4;" horiz-adv-x="601" 
d="M128 195q-41 56 -41 124q0 71 42 125l-65 66q-9 9 -9 23q0 13 9 24q10 10 24 10q13 0 24 -9l63 -66q55 43 126 43q70 0 125 -43l63 65q9 9 23 9q13 0 24 -11q8 -8 8 -22t-8 -22l-64 -64q43 -55 43 -126q0 -35 -12 -68q-12 -32 -30 -58l63 -62q9 -9 9 -22q0 -14 -9 -24
q-11 -11 -24 -12q-14 -2 -24 9l-63 63q-53 -43 -125 -43q-71 0 -126 43l-63 -63q-11 -11 -24 -9q-14 1 -22 10q-10 10 -10 24q0 13 9 24zM154 318q0 -62 43 -105t105 -43t105 43t43 105t-43 104q-44 42 -105 42q-62 0 -105 -42t-43 -103v-1z" />
    <glyph glyph-name="yen" unicode="&#xa5;" horiz-adv-x="458" 
d="M452 561q-32 -149 -108 -270h51q10 0 18 -8t8 -18t-8 -18t-18 -8h-88l-26 -29v-31h114q10 0 18 -8t8 -18t-8 -18t-18 -8h-114v-79q0 -21 -15 -36t-36 -15q-22 0 -37 15t-15 36v79h-113q-10 0 -18 8t-8 18t8 18t18 8h113v31q-10 9 -27 29h-86q-10 0 -18 8t-8 18t8 18t18 8
h46q-26 37 -51 88q-26 52 -39 102q-13 48 -13 65q0 24 17 39q16 15 36 15q18 0 33 -12q14 -11 19 -29q36 -164 124 -270q9 -9 14 -9q8 0 15 10q45 58 75 132q15 37 27 74.5t20 76.5q1 10 12 18t22 8q13 0 24 -12t8 -27z" />
    <glyph glyph-name="brokenbar" unicode="&#xa6;" horiz-adv-x="217" 
d="M148 395q0 -16 -12 -28t-28 -12q-15 0 -27 12t-12 28v229q0 16 11 27t27 11q15 0 28 -11q12 -11 12 -27v-229h1zM149 -29q0 -16 -12 -28t-28 -12q-15 0 -27 12t-12 28v229q0 16 11 27t27 11q15 0 28 -11q12 -11 12 -27v-229h1z" />
    <glyph glyph-name="section" unicode="&#xa7;" horiz-adv-x="474" 
d="M444 230q0 -41 -21 -74q-22 -34 -55 -53q43 -37 43 -99q0 -23 -9 -48t-31 -46t-59 -36q-36 -15 -86 -15q-32 0 -75 8q-40 7 -67 21q-9 5 -14 14q-5 10 -5 18q0 14 10 24q11 11 25 11q11 0 29 -6q9 -3 14 -4.5t7 -2.5q31 -9 63 -9q42 0 64 16t22 40q0 13 -9 27
q-10 15 -25 26q-17 12 -30 18q-7 3 -24 10.5t-45 18.5q-47 21 -77 41q-28 19 -45 47q-16 26 -16 62q0 22 7 44q7 24 26 47q18 22 44 36q-44 39 -44 100q0 63 53 104t134 41q40 0 74 -7q36 -8 60 -21q19 -10 19 -31q0 -14 -10 -24t-25 -10q-3 0 -6 0.5t-7 1.5q-9 2 -20 6
q-6 2 -10 3.5t-6 2.5q-3 0 -18 4t-39 4q-41 0 -63 -16t-22 -40q0 -13 8 -26q8 -12 20 -23q11 -10 26 -18q13 -8 78 -36q85 -37 111 -71t26 -77v-3zM331 212q0 23 -22 41q-23 18 -64 36q-21 9 -33.5 14.5t-16.5 7.5l-19 9q-14 -9 -25 -27q-10 -17 -10 -36q0 -22 23 -42
q22 -19 68 -39q44 -19 46 -19l18 -9q15 9 26 26t11 36z" />
    <glyph glyph-name="dieresis" unicode="&#xa8;" horiz-adv-x="412" 
d="M345 583q0 -21 -15 -36t-36 -15q-22 0 -37 15t-15 36t16 37t37 16t36 -16q15 -17 15 -37h-1zM168 583q0 -21 -15 -36t-37 -15q-21 0 -36 15t-15 36q0 23 15 38t36 15t37 -16t16 -37h-1z" />
    <glyph glyph-name="copyright" unicode="&#xa9;" horiz-adv-x="705" 
d="M661 301q0 -62 -24 -119t-67 -100t-100 -67t-119 -24t-119 24t-100 67t-67 100t-24 119t24 119q23 55 68 100q42 42 101 67q57 24 119 24t119 -24t100 -67q45 -45 68 -100q24 -57 24 -119h-3zM611 301q0 52 -20 101q-19 47 -56 84q-36 36 -84 57t-101 21t-101 -21
t-84 -57q-37 -37 -56 -84q-20 -49 -20 -101t20 -101q19 -47 56 -84q36 -36 84 -57t101 -21t101 21t84 57q37 37 56 84q20 49 20 101zM446 163q0 -14 -13 -21q-32 -16 -91 -16q-65 0 -105 45q-40 44 -40 127q0 31 9 63t31 58q22 27 53 39q30 12 57 12q48 0 78 -12
q20 -8 20 -24q0 -8 -6 -15t-16 -7q-11 0 -22 7q-20 10 -45 10q-33 0 -61 -33q-28 -32 -28 -96q0 -32 11 -63q10 -29 35 -48q24 -18 45 -18q20 0 41 8q22 8 27 8q9 0 15 -6t6 -15z" />
    <glyph glyph-name="ordfeminine" unicode="&#xaa;" horiz-adv-x="281" 
d="M261 440q0 -77 -33 -111q-33 -35 -97 -35q-37 0 -64 18q-26 18 -37 42q-10 23 -10 42q0 35 20 60q19 24 47 33q27 9 50 9q15 0 24 -4q11 -5 11 -18q0 -15 -18 -18q-30 -6 -46 -19t-16 -42q0 -19 11 -36q10 -16 30 -16q24 0 36 22t12 84q0 53 -9 74t-23 27t-29 6
q-9 0 -33 -7q-18 -7 -27 -7q-15 0 -21 12q-6 11 -1 22q4 10 12 15q18 7 44 12q28 5 48 5q55 0 87 -32t32 -132v-6zM172 191q0 -15 -11 -26t-26 -11t-26 11t-11 26t11 26t26 11t26 -11t11 -26z" />
    <glyph glyph-name="guillemotleft" unicode="&#xab;" horiz-adv-x="490" 
d="M444 81q7 -11 3 -24q-5 -14 -15 -21q-8 -5 -18 -5q-11 0 -18 7l-141 127q-20 20 -20 42t20 42l141 127q6 5 16 6q11 2 21 -4q10 -8 15 -21q4 -14 -3 -24l-105 -126l105 -126h-1zM233 81q7 -11 3 -24q-5 -14 -15 -21q-8 -5 -18 -5q-11 0 -18 7l-141 127q-20 20 -20 42
t20 42l141 127q6 5 16 6q11 2 21 -4q10 -8 15 -21q4 -14 -3 -24l-105 -126l105 -126h-1z" />
    <glyph glyph-name="logicalnot" unicode="&#xac;" horiz-adv-x="699" 
d="M665 115q0 -12 -10 -21q-11 -9 -22 -9q-13 0 -22 9t-9 21v95h-502q-23 0 -39 16t-16 39q0 21 16 37t39 16h512q23 0 39 -16t16 -37v-149z" />
    <glyph glyph-name="uni00AD" unicode="&#xad;" horiz-adv-x="458" 
d="M387 267q0 -21 -15 -36t-36 -15h-219q-19 0 -34 15t-15 36q0 20 15 35t35 15h219q21 0 36 -15t15 -34z" />
    <glyph glyph-name="registered" unicode="&#xae;" horiz-adv-x="705" 
d="M661 301q0 -62 -24 -119t-67 -100t-100 -67t-119 -24t-119 24t-100 67t-67 100t-24 119t24 119q23 55 68 100q42 42 101 67q57 24 119 24t119 -24t100 -67q45 -45 68 -100q24 -57 24 -119h-3zM611 301q0 52 -20 101q-19 47 -56 84q-36 36 -84 57t-101 21t-101 -21
t-84 -57q-37 -37 -56 -84q-20 -49 -20 -101t20 -101q19 -47 56 -84q36 -36 84 -57t101 -21t101 21t84 57q37 37 56 84q20 49 20 101zM461 358q0 -22 -9 -43t-30 -36t-47 -21q6 -9 15 -19t20 -21q22 -23 39 -33q12 -8 12 -24t-11 -25t-23 -9q-11 0 -30 13q-20 13 -45 42
q-26 28 -39 51q-13 22 -13 33q0 7 5 14q4 6 20 9q17 3 18 4q52 13 52 66q0 74 -49 74q-52 0 -52 -83v-188q0 -14 -9 -24t-22 -10t-22 10t-9 24v191q0 61 35 90t83 29q52 0 84 -30q31 -30 31 -82z" />
    <glyph glyph-name="macron" unicode="&#xaf;" horiz-adv-x="398" 
d="M344 558q0 -18 -13 -31t-31 -13h-208q-17 0 -31 14q-13 13 -13 32q0 18 14 32t32 14h208q19 0 32 -13q14 -14 14 -31z" />
    <glyph glyph-name="degree" unicode="&#xb0;" horiz-adv-x="207" 
d="M181 532q0 -32 -24 -54q-25 -23 -55 -23q-31 0 -54 23t-23 54t23 54t54 23t56 -23q24 -23 24 -54h-1zM141 532q0 16 -12 27q-13 11 -28 11q-16 0 -27 -11t-11 -27t11 -27t27 -11q15 0 28 11q12 10 12 27z" />
    <glyph glyph-name="plusminus" unicode="&#xb1;" horiz-adv-x="568" 
d="M495 367q0 -21 -15 -36t-36 -15h-115v-95q0 -19 -15 -34t-34 -15t-34 15t-15 35v95h-116q-19 0 -34 15t-15 36q0 20 15 35t35 15h116v95q0 20 15 35t35 15t35 -15t15 -35v-95h115q21 0 36 -15t15 -34zM444 125q21 0 36 -15t15 -34q0 -21 -15 -36t-36 -15h-329
q-19 0 -34 15t-15 36q0 20 15 35t35 15z" />
    <glyph glyph-name="uni00B2" unicode="&#xb2;" horiz-adv-x="397" 
d="M327 280q0 -14 -12 -24q-11 -10 -25 -10h-182q-13 0 -25 9t-12 24q0 12 15 30q16 20 63 59q45 37 64 66q18 28 18 53q0 20 -7 35q-8 16 -24 24q-18 8 -36 8q-8 0 -24 -3q-17 -3 -25 -3t-19 8q-10 7 -10 21q0 18 20 26q21 8 63 8q32 0 65 -10q34 -11 57 -39q23 -29 23 -73
q0 -32 -22 -66t-93 -88l-26 -20h115q14 0 24 -10t10 -24z" />
    <glyph glyph-name="uni00B3" unicode="&#xb3;" horiz-adv-x="365" 
d="M302 350q0 -28 -13 -54q-13 -27 -49 -43q-35 -16 -79 -16q-53 0 -68 9t-15 24t9 23q10 8 20 8q7 0 22 -3t25 -3q26 0 45 13q20 14 20 42q0 26 -19 41q-20 15 -57 15q-12 0 -21 9t-9 20q0 12 9 21t22 9q31 0 48 12t17 35q0 17 -11 30q-11 12 -33 12l-44 -6q-12 0 -22 8
q-9 7 -9 21q0 16 15 24q16 8 56 8q55 0 93 -24q37 -24 37 -70q0 -25 -15 -46t-43 -31q73 -21 73 -83z" />
    <glyph glyph-name="acute" unicode="&#xb4;" horiz-adv-x="224" 
d="M190 634q9 -14 6 -30t-17 -27l-116 -85q-8 -6 -18 -3t-15 11q-9 15 1 28l94 115l8 6q13 10 30 6q16 -5 27 -18v-3z" />
    <glyph glyph-name="mu" unicode="&#xb5;" horiz-adv-x="471" 
d="M406 38q0 -19 -15 -34t-34 -15q-14 0 -25 7q-12 7 -18 18q-37 -25 -85 -25q-47 0 -78 21v-213q0 -19 -15 -34t-36 -15q-19 0 -34 15t-15 35v571q0 20 15 35t35 15q21 0 36 -15t15 -34v-183q0 -64 8 -91q7 -25 26 -39q17 -13 46 -13q39 0 59 27q20 28 20 106v193
q0 20 15 35t35 15t35 -15t15 -34v-330z" />
    <glyph glyph-name="mu" unicode="&#x3bc;" horiz-adv-x="471" 
d="M406 38q0 -19 -15 -34t-34 -15q-14 0 -25 7q-12 7 -18 18q-37 -25 -85 -25q-47 0 -78 21v-213q0 -19 -15 -34t-36 -15q-19 0 -34 15t-15 35v571q0 20 15 35t35 15q21 0 36 -15t15 -34v-183q0 -64 8 -91q7 -25 26 -39q17 -13 46 -13q39 0 59 27q20 28 20 106v193
q0 20 15 35t35 15t35 -15t15 -34v-330z" />
    <glyph glyph-name="paragraph" unicode="&#xb6;" horiz-adv-x="550" 
d="M521 577q0 -14 -10 -24t-24 -10h-44v-607q0 -19 -14 -33t-33 -14t-33 14t-14 33v607h-74v-607q0 -19 -14 -33t-33 -14t-33 14t-14 33v375q-71 5 -113 45t-42 104q0 67 46 109t123 42h294q14 0 24 -10t10 -24h-2z" />
    <glyph glyph-name="periodcentered" unicode="&#xb7;" horiz-adv-x="227" 
d="M168 300q0 -23 -16 -39t-39 -16t-39 16t-16 39q0 22 17 39t39 17q23 0 39 -16q17 -17 17 -39z" />
    <glyph glyph-name="cedilla" unicode="&#xb8;" horiz-adv-x="455" 
d="M320 -96q0 -17 -12 -35t-40 -30q-29 -12 -60 -12q-19 0 -31 6t-12 16q0 8 6 14t15 6l28 -2q17 0 31 9q13 9 13 26q0 7 -6 18q-6 10 -39 24q-12 4 -12 21v57h44v-51q43 -14 60 -30q16 -16 16 -39z" />
    <glyph glyph-name="uni00B9" unicode="&#xb9;" horiz-adv-x="298" 
d="M205 280q0 -16 -12 -28t-30 -12t-30 12t-12 29v266h-22q-10 0 -19 9t-9 20q0 10 9 18q10 8 20 8h65q18 0 30 -12t12 -28v-280z" />
    <glyph glyph-name="ordmasculine" unicode="&#xba;" horiz-adv-x="329" 
d="M299 454q0 -74 -37 -114q-38 -41 -99 -41q-59 0 -97 41q-37 40 -37 114t37 114q38 41 97 41q62 0 99 -40t37 -114v-1zM202 196q0 -15 -11 -26t-26 -11t-26 11t-11 26t11 26t26 11t26 -11t11 -26zM220 454q0 108 -56 108q-55 0 -55 -108q0 -109 55 -109q56 0 56 109z" />
    <glyph glyph-name="guillemotright" unicode="&#xbb;" horiz-adv-x="507" 
d="M478 206q0 -24 -21 -42l-140 -127q-6 -5 -16 -6q-9 -1 -22 5q-10 7 -13 21q-3 13 5 24l105 126l-105 126q-7 10 -4 24q3 13 14 21q10 5 20 5q11 0 18 -7l140 -127q21 -18 21 -42zM266 205q0 -24 -21 -42l-140 -127q-6 -5 -16 -6q-9 -1 -22 5q-10 7 -13 21q-3 13 5 24
l105 126l-105 126q-7 10 -4 24q3 13 14 21q10 5 20 5q11 0 18 -7l140 -127q21 -18 21 -42z" />
    <glyph glyph-name="onequarter" unicode="&#xbc;" horiz-adv-x="671" 
d="M225 12q-4 -13 -19 -19q-14 -6 -27 -1q-13 6 -19 20q-6 13 -1 27l221 548q4 13 18 19q13 6 27 0q13 -5 18 -18q5 -14 0 -26zM192 278q0 -16 -12 -28t-30 -12t-30 12t-12 29v266h-22q-10 0 -19 9t-9 20q0 10 9 18q10 8 20 8h65q18 0 30 -12t12 -28v-280zM622 101
q0 -11 -9 -20t-20 -9h-26v-45q0 -16 -12 -28t-29 -12t-29 12t-12 29v45h-128q-12 0 -21 9t-9 20q0 10 6 18l156 218q13 19 36 19q17 0 29 -12t12 -28v-185h26q11 0 20 -9t9 -21zM484 234l-74 -104h74v104z" />
    <glyph glyph-name="onehalf" unicode="&#xbd;" horiz-adv-x="710" 
d="M225 12q-4 -13 -19 -19q-14 -6 -27 -1q-13 6 -19 20q-6 13 -1 27l221 548q4 13 18 19q13 6 27 0q13 -5 18 -18q5 -14 0 -26zM192 278q0 -16 -12 -28t-30 -12t-30 12t-12 29v266h-22q-10 0 -19 9t-9 20q0 10 9 18q10 8 20 8h65q18 0 30 -12t12 -28v-280zM656 29
q0 -14 -12 -24q-11 -10 -25 -10h-182q-13 0 -25 9t-12 24q0 12 15 30q16 20 63 59q45 37 64 66q18 28 18 53q0 20 -7 35q-8 16 -24 24q-18 8 -36 8q-8 0 -24 -3q-17 -3 -25 -3t-19 8q-10 7 -10 21q0 18 20 26q21 8 63 8q32 0 65 -10q34 -11 57 -39q23 -29 23 -73
q0 -32 -22 -66t-93 -88l-26 -20h115q14 0 24 -10t10 -24z" />
    <glyph glyph-name="threequarters" unicode="&#xbe;" horiz-adv-x="753" 
d="M286 350q0 -28 -13 -54q-13 -27 -49 -43q-35 -16 -79 -16q-53 0 -68 9t-15 24t9 23q10 8 20 8q7 0 22 -3t25 -3q26 0 45 13q20 14 20 42q0 26 -19 41q-20 15 -57 15q-12 0 -21 9t-9 20q0 12 9 21t22 9q31 0 48 12t17 35q0 17 -11 30q-11 12 -33 12l-44 -6q-12 0 -22 8
q-9 7 -9 21q0 16 15 24q16 8 56 8q55 0 93 -24q37 -24 37 -70q0 -25 -15 -46t-43 -31q73 -21 73 -83zM303 7q-4 -13 -19 -19q-14 -6 -27 -1q-13 6 -19 20q-6 13 -1 27l221 548q4 13 18 19q13 6 27 0q13 -5 18 -18q5 -14 0 -26zM702 98q0 -11 -9 -20t-20 -9h-26v-45
q0 -16 -12 -28t-29 -12t-29 12t-12 29v45h-128q-12 0 -21 9t-9 20q0 10 6 18l156 218q13 19 36 19q17 0 29 -12t12 -28v-185h26q11 0 20 -9t9 -21zM564 231l-74 -104h74v104z" />
    <glyph glyph-name="questiondown" unicode="&#xbf;" horiz-adv-x="363" 
d="M314 363q0 -23 -16 -39t-39 -16q-22 0 -39 17q-16 16 -16 39q0 22 17 39t39 17q23 0 39 -16t16 -39zM346 -164q0 -24 -23 -32q-27 -8 -78 -8q-218 0 -218 154q0 36 20 68q19 31 74 69q56 39 68 51q7 7 12.5 13t10.5 12q10 13 14 26q5 15 5 29t9 23t23 9t23 -9t9 -22
q0 -41 -15 -75t-63 -76t-58 -55q-9 -12 -16 -29q-6 -15 -6 -34q0 -34 15 -55t39 -30t53 -9q20 0 44 3t31 3q11 0 19 -7q9 -7 10 -16z" />
    <glyph glyph-name="Agrave" unicode="&#xc0;" horiz-adv-x="547" 
d="M521 58q1 -14 -3 -30q-5 -17 -19 -27t-30 -10q-20 0 -36 12t-19 36q-8 55 -18 102q-2 4 -6 15q-5 11 -27 17q-46 11 -108 11t-108 -12q-14 -3 -21 -9t-12 -23q-11 -55 -18 -121q-5 -29 -36 -29q-14 0 -25 11q-10 10 -7 29q8 57 20.5 113.5t29.5 115.5q33 117 81 213
q68 137 121 137q47 0 115 -135q23 -46 42.5 -94.5t34.5 -100.5q31 -106 47 -221h2zM378 233q-9 30 -20.5 60.5t-25.5 62.5t-28.5 61.5t-29.5 57.5q-3 7 -9 11q-7 5 -10 5q-11 0 -18 -16q-58 -110 -96 -242q44 14 118 14q28 0 63 -3q34 -3 54 -9zM332 644q-3 -4 -10 -7
q-5 -1 -12 2l-77 58q-9 6 -12 18q-2 11 4 19q7 9 18 12q12 3 21 -4l5 -4l63 -77q7 -9 1 -18z" />
    <glyph glyph-name="Aacute" unicode="&#xc1;" horiz-adv-x="547" 
d="M521 58q1 -14 -3 -30q-5 -17 -19 -27t-30 -10q-20 0 -36 12t-19 36q-8 55 -18 102q-2 4 -6 15q-5 11 -27 17q-46 11 -108 11t-108 -12q-14 -3 -21 -9t-12 -23q-11 -55 -18 -121q-5 -29 -36 -29q-14 0 -25 11q-10 10 -7 29q8 57 20.5 113.5t29.5 115.5q33 117 81 213
q68 137 121 137q47 0 115 -135q23 -46 42.5 -94.5t34.5 -100.5q31 -106 47 -221h2zM378 233q-9 30 -20.5 60.5t-25.5 62.5t-28.5 61.5t-29.5 57.5q-3 7 -9 11q-7 5 -10 5q-11 0 -18 -16q-58 -110 -96 -242q44 14 118 14q28 0 63 -3q34 -3 54 -9zM241 643q-6 9 1 18l63 77
l5 4q9 7 21 4q10 -3 18 -12q6 -8 4 -19q-3 -12 -12 -18l-77 -58q-7 -3 -12 -2q-7 3 -10 7z" />
    <glyph glyph-name="Acircumflex" unicode="&#xc2;" horiz-adv-x="547" 
d="M521 58q1 -14 -3 -30q-5 -17 -19 -27t-30 -10q-20 0 -36 12t-19 36q-8 55 -18 102q-2 4 -6 15q-5 11 -27 17q-46 11 -108 11t-108 -12q-14 -3 -21 -9t-12 -23q-11 -55 -18 -121q-5 -29 -36 -29q-14 0 -25 11q-10 10 -7 29q8 57 20.5 113.5t29.5 115.5q33 117 81 213
q68 137 121 137q47 0 115 -135q23 -46 42.5 -94.5t34.5 -100.5q31 -106 47 -221h2zM378 233q-9 30 -20.5 60.5t-25.5 62.5t-28.5 61.5t-29.5 57.5q-3 7 -9 11q-7 5 -10 5q-11 0 -18 -16q-58 -110 -96 -242q44 14 118 14q28 0 63 -3q34 -3 54 -9zM361 643q-2 -3 -4.5 -4
t-5.5 -3q-7 -1 -12 2l-62 46l-63 -46q-5 -3 -11 -2q-8 4 -10 7q-6 10 0 19l63 75q9 10 20 10q13 0 20 -10l62 -75q6 -10 1 -19h2z" />
    <glyph glyph-name="Atilde" unicode="&#xc3;" horiz-adv-x="547" 
d="M521 58q1 -14 -3 -30q-5 -17 -19 -27t-30 -10q-20 0 -36 12t-19 36q-8 55 -18 102q-2 4 -6 15q-5 11 -27 17q-46 11 -108 11t-108 -12q-14 -3 -21 -9t-12 -23q-11 -55 -18 -121q-5 -29 -36 -29q-14 0 -25 11q-10 10 -7 29q8 57 20.5 113.5t29.5 115.5q33 117 81 213
q68 137 121 137q47 0 115 -135q23 -46 42.5 -94.5t34.5 -100.5q31 -106 47 -221h2zM378 233q-9 30 -20.5 60.5t-25.5 62.5t-28.5 61.5t-29.5 57.5q-3 7 -9 11q-7 5 -10 5q-11 0 -18 -16q-58 -110 -96 -242q44 14 118 14q28 0 63 -3q34 -3 54 -9zM367 690q0 -5 -5 -18
q-4 -7 -8 -13t-12 -12q-7 -6 -12.5 -9t-13.5 -3q-11 0 -18 3q-4 1 -9.5 4t-12.5 7q-14 8 -23 8q-6 0 -15 -6q-8 -6 -11 -10q-5 -5 -11 -5q-4 0 -10 4q-4 4 -4 9q0 4 2 8.5t4 10.5q4 7 8 13t11 12q13 12 27 12t18 -2q4 -1 9.5 -3.5t13.5 -6.5q13 -9 23 -9q6 0 14 5q4 4 7 6.5
t5 5.5q4 4 11 4t10 -2q4 -8 4 -11z" />
    <glyph glyph-name="Adieresis" unicode="&#xc4;" horiz-adv-x="547" 
d="M521 58q1 -14 -3 -30q-5 -17 -19 -27t-30 -10q-20 0 -36 12t-19 36q-8 55 -18 102q-2 4 -6 15q-5 11 -27 17q-46 11 -108 11t-108 -12q-14 -3 -21 -9t-12 -23q-11 -55 -18 -121q-5 -29 -36 -29q-14 0 -25 11q-10 10 -7 29q8 57 20.5 113.5t29.5 115.5q33 117 81 213
q68 137 121 137q47 0 115 -135q23 -46 42.5 -94.5t34.5 -100.5q31 -106 47 -221h2zM378 233q-9 30 -20.5 60.5t-25.5 62.5t-28.5 61.5t-29.5 57.5q-3 7 -9 11q-7 5 -10 5q-11 0 -18 -16q-58 -110 -96 -242q44 14 118 14q28 0 63 -3q34 -3 54 -9zM424 736q0 -21 -15 -36
t-36 -15q-22 0 -37 15t-15 36t16 37t37 16t36 -16q15 -17 15 -37h-1zM247 736q0 -21 -15 -36t-37 -15q-21 0 -36 15t-15 36q0 23 15 38t36 15t37 -16t16 -37h-1z" />
    <glyph glyph-name="Aring" unicode="&#xc5;" horiz-adv-x="547" 
d="M521 58q1 -14 -3 -30q-5 -17 -19 -27t-30 -10q-20 0 -36 12t-19 36q-8 55 -18 102q-2 4 -6 15q-5 11 -27 17q-46 11 -108 11t-108 -12q-14 -3 -21 -9t-12 -23q-11 -55 -18 -121q-5 -29 -36 -29q-14 0 -25 11q-10 10 -7 29q8 57 20.5 113.5t29.5 115.5q33 117 81 213
q68 137 121 137q47 0 115 -135q23 -46 42.5 -94.5t34.5 -100.5q31 -106 47 -221h2zM378 233q-9 30 -20.5 60.5t-25.5 62.5t-28.5 61.5t-29.5 57.5q-3 7 -9 11q-7 5 -10 5q-11 0 -18 -16q-58 -110 -96 -242q44 14 118 14q28 0 63 -3q34 -3 54 -9zM360 718q0 -31 -24 -55
t-55 -24t-55 24t-24 56t24 56t56 24t56 -24t24 -55zM320 718q0 16 -12 28t-28 12q-15 0 -27 -12t-12 -28t12 -28t27 -12q16 0 28 12t12 28z" />
    <glyph glyph-name="AE" unicode="&#xc6;" horiz-adv-x="764" 
d="M749 33q0 -15 -11 -24t-24 -9h-158q-98 0 -147 45t-49 131v9h-22q-43 0 -72 -1t-44 -3q-32 -5 -49 -10q-5 -1 -16 -6t-18 -24q-8 -19 -18.5 -48t-24.5 -70q-3 -12 -12 -18t-18 -6q-19 0 -31 12t-4 32q7 22 21 60q7 19 12 32.5t9 22.5q17 45 38 88t45 87q49 89 102 158
q86 113 199 113h237q15 0 25 -10t10 -24t-10 -24t-25 -10h-184q-17 0 -30 -12t-13 -30v-148h189q13 0 24 -11t11 -24q0 -15 -11 -24t-24 -9h-189v-94q0 -64 29 -90q28 -25 80 -25h138q13 0 24 -11t11 -24v-1zM360 474q0 17 -8 19q-4 1 -10 -2q-7 -3 -11 -9q-41 -51 -82 -118
q-41 -66 -69 -129q55 15 159 15h21v224z" />
    <glyph glyph-name="Ccedilla" unicode="&#xc7;" horiz-adv-x="512" 
d="M484 56q0 -23 -22 -33q-53 -28 -146 -29v-20q43 -14 60 -30q16 -16 16 -39q0 -17 -12 -35t-40 -30q-29 -12 -60 -12q-19 0 -31 6t-12 16q0 8 6 14t15 6l28 -2q17 0 31 9q13 9 13 26q0 7 -6 18q-6 10 -39 24q-12 4 -12 21v26q-50 4 -94 27t-75 61q-32 39 -48 96
q-17 59 -17 127q0 75 23 136q23 60 62 98q39 37 87 57q47 19 97 19q87 0 141 -22q17 -6 26 -15t9 -24q0 -12 -9 -24t-26 -12t-39 12q-39 19 -86 19q-28 0 -58 -15q-29 -15 -55 -45q-26 -31 -41 -77q-15 -47 -15 -108q0 -60 17 -109q16 -48 42 -78q25 -29 56 -43t57 -14
q20 0 42 5q21 5 44 15q25 11 38 11q15 0 25 -10t10 -25z" />
    <glyph glyph-name="Egrave" unicode="&#xc8;" horiz-adv-x="465" 
d="M450 34q0 -14 -10 -24t-24 -10h-159q-97 0 -146 45q-50 45 -50 131v247q0 61 26 101t70 59q46 20 105 20h135q14 0 24 -10q11 -11 11 -24q0 -14 -10 -24t-24 -10h-122q-50 0 -78 -27t-28 -91v-74h190q15 0 24 -11t9 -24q0 -14 -10 -24t-24 -10h-190v-90q0 -64 29 -90
q28 -25 80 -25h139q15 0 24 -11t9 -24zM322 644q-3 -4 -10 -7q-5 -1 -12 2l-77 58q-9 6 -12 18q-2 11 4 19q7 9 18 12q12 3 21 -4l5 -4l63 -77q7 -9 1 -18z" />
    <glyph glyph-name="Eacute" unicode="&#xc9;" horiz-adv-x="465" 
d="M450 34q0 -14 -10 -24t-24 -10h-159q-97 0 -146 45q-50 45 -50 131v247q0 61 26 101t70 59q46 20 105 20h135q14 0 24 -10q11 -11 11 -24q0 -14 -10 -24t-24 -10h-122q-50 0 -78 -27t-28 -91v-74h190q15 0 24 -11t9 -24q0 -14 -10 -24t-24 -10h-190v-90q0 -64 29 -90
q28 -25 80 -25h139q15 0 24 -11t9 -24zM240 643q-6 9 1 18l63 77l5 4q9 7 21 4q10 -3 18 -12q6 -8 4 -19q-3 -12 -12 -18l-77 -58q-7 -3 -12 -2q-7 3 -10 7z" />
    <glyph glyph-name="Ecircumflex" unicode="&#xca;" horiz-adv-x="460" 
d="M445 34q0 -14 -10 -24t-24 -10h-159q-97 0 -146 45q-50 45 -50 131v247q0 61 26 101t70 59q46 20 105 20h135q14 0 24 -10q11 -11 11 -24q0 -14 -10 -24t-24 -10h-122q-50 0 -78 -27t-28 -91v-74h190q15 0 24 -11t9 -24q0 -14 -10 -24t-24 -10h-190v-90q0 -64 29 -90
q28 -25 80 -25h139q15 0 24 -11t9 -24zM354 643q-2 -3 -4.5 -4t-5.5 -3q-7 -1 -12 2l-62 46l-63 -46q-5 -3 -11 -2q-8 4 -10 7q-6 10 0 19l63 75q9 10 20 10q13 0 20 -10l62 -75q6 -10 1 -19h2z" />
    <glyph glyph-name="Edieresis" unicode="&#xcb;" horiz-adv-x="465" 
d="M450 34q0 -14 -10 -24t-24 -10h-159q-97 0 -146 45q-50 45 -50 131v247q0 61 26 101t70 59q46 20 105 20h135q14 0 24 -10q11 -11 11 -24q0 -14 -10 -24t-24 -10h-122q-50 0 -78 -27t-28 -91v-74h190q15 0 24 -11t9 -24q0 -14 -10 -24t-24 -10h-190v-90q0 -64 29 -90
q28 -25 80 -25h139q15 0 24 -11t9 -24zM421 738q0 -21 -15 -36t-36 -15q-22 0 -37 15t-15 36t16 37t37 16t36 -16q15 -17 15 -37h-1zM244 738q0 -21 -15 -36t-37 -15q-21 0 -36 15t-15 36q0 23 15 38t36 15t37 -16t16 -37h-1z" />
    <glyph glyph-name="Igrave" unicode="&#xcc;" horiz-adv-x="302" 
d="M277 30q0 -13 -9 -22t-21 -9h-190q-12 0 -21 9t-9 23q0 11 9 22q9 10 21 10h41v475h-41q-12 0 -21 9t-9 23q0 12 9 21t21 9h190q12 0 21 -9t9 -21q0 -13 -9 -22t-21 -9h-42v-475h42q12 0 21 -10q9 -11 9 -22v-2zM207 644q-3 -4 -10 -7q-5 -1 -12 2l-77 58q-9 6 -12 18
q-2 11 4 19q7 9 18 12q12 3 21 -4l5 -4l63 -77q7 -9 1 -18z" />
    <glyph glyph-name="Iacute" unicode="&#xcd;" horiz-adv-x="302" 
d="M277 30q0 -13 -9 -22t-21 -9h-190q-12 0 -21 9t-9 23q0 11 9 22q9 10 21 10h41v475h-41q-12 0 -21 9t-9 23q0 12 9 21t21 9h190q12 0 21 -9t9 -21q0 -13 -9 -22t-21 -9h-42v-475h42q12 0 21 -10q9 -11 9 -22v-2zM122 643q-6 9 1 18l63 77l5 4q9 7 21 4q10 -3 18 -12
q6 -8 4 -19q-3 -12 -12 -18l-77 -58q-7 -3 -12 -2q-7 3 -10 7z" />
    <glyph glyph-name="Icircumflex" unicode="&#xce;" horiz-adv-x="302" 
d="M277 30q0 -13 -9 -22t-21 -9h-190q-12 0 -21 9t-9 23q0 11 9 22q9 10 21 10h41v475h-41q-12 0 -21 9t-9 23q0 12 9 21t21 9h190q12 0 21 -9t9 -21q0 -13 -9 -22t-21 -9h-42v-475h42q12 0 21 -10q9 -11 9 -22v-2zM280 657q-6 -7 -16 -10q-11 -3 -18 3l-94 69l-93 -69
q-8 -6 -18 -3t-15 11q-9 15 1 28l94 113q13 15 30 15q19 0 30 -15l94 -113q11 -14 2 -28z" />
    <glyph glyph-name="Idieresis" unicode="&#xcf;" horiz-adv-x="302" 
d="M277 30q0 -13 -9 -22t-21 -9h-190q-12 0 -21 9t-9 23q0 11 9 22q9 10 21 10h41v475h-41q-12 0 -21 9t-9 23q0 12 9 21t21 9h190q12 0 21 -9t9 -21q0 -13 -9 -22t-21 -9h-42v-475h42q12 0 21 -10q9 -11 9 -22v-2zM291 736q0 -21 -15 -36t-36 -15q-22 0 -37 15t-15 36
t16 37t37 16t36 -16q15 -17 15 -37h-1zM114 736q0 -21 -15 -36t-37 -15q-21 0 -36 15t-15 36q0 23 15 38t36 15t37 -16t16 -37h-1z" />
    <glyph glyph-name="Eth" unicode="&#xd0;" horiz-adv-x="581" 
d="M542 299q0 -65 -16 -120q-17 -57 -51 -99q-35 -42 -90 -66q-56 -24 -129 -24q-72 0 -111 9q-38 9 -61 38q-22 28 -22 84v129h-36q-19 0 -34 15t-15 36q0 20 15 35t35 15h36v147q0 27 13 50q13 24 37 40q23 16 62 19q11 1 30 1.5t45 0.5q60 0 111 -19q53 -20 93 -58
q41 -39 63 -97q23 -60 23 -134zM271 297q0 -21 -15 -36t-36 -15h-48v-89q0 -58 18 -82t72 -24q45 0 83 30q37 30 60 84q23 55 23 132q0 71 -25 130q-26 61 -69 89q-44 29 -100 29q-35 0 -49 -13q-15 -14 -15 -30v-152h48q21 0 36 -15t15 -34z" />
    <glyph glyph-name="Ntilde" unicode="&#xd1;" horiz-adv-x="599" 
d="M536 45q0 -23 -15 -39t-36 -16q-14 0 -27 6q-14 6 -21 16l-300 417l-7 22l-3 -1l2 -21v-404q0 -13 -11 -24t-24 -11q-14 0 -25 11q-10 10 -10 24v529q0 22 15 39q15 16 38 16q13 0 25 -6q13 -7 20 -16l303 -420l6 -22q1 -1 3 -1t0 2l-2 22v407q1 13 12 24t24 11
q14 0 24 -10q11 -11 11 -24v-529zM453 753q0 -12 -10 -33q-10 -22 -35 -45q-23 -22 -49 -22q-15 0 -32 5q-8 2 -17.5 7t-22.5 13q-26 15 -42 15q-13 0 -26 -10q-15 -11 -21 -19q-7 -10 -20 -10q-10 0 -18 8q-7 7 -7 18q0 9 11 33q10 22 35 45t50 23q15 0 32 -5q16 -5 40 -19
q25 -15 42 -15q13 0 26 10q15 11 21 19q7 10 20 10q11 0 18 -7q8 -8 8 -18z" />
    <glyph glyph-name="Ograve" unicode="&#xd2;" horiz-adv-x="594" 
d="M552 298q0 -75 -19 -132q-20 -59 -54 -98q-34 -38 -81 -58q-45 -19 -102 -19q-54 0 -102 20q-46 19 -81 59q-34 39 -54 98q-19 57 -19 132t19 132q20 59 54 98q35 40 81 59q48 20 102 20q53 0 102 -20q47 -19 82 -59q35 -39 54 -97q19 -57 19 -132zM439 298
q0 248 -143 248q-144 0 -144 -248q0 -247 144 -247q143 0 143 247zM360 644q-3 -4 -10 -7q-5 -1 -12 2l-77 58q-9 6 -12 18q-2 11 4 19q7 9 18 12q12 3 21 -4l5 -4l63 -77q7 -9 1 -18z" />
    <glyph glyph-name="Oacute" unicode="&#xd3;" horiz-adv-x="594" 
d="M552 298q0 -75 -19 -132q-20 -59 -54 -98q-34 -38 -81 -58q-45 -19 -102 -19q-54 0 -102 20q-46 19 -81 59q-34 39 -54 98q-19 57 -19 132t19 132q20 59 54 98q35 40 81 59q48 20 102 20q53 0 102 -20q47 -19 82 -59q35 -39 54 -97q19 -57 19 -132zM439 298
q0 248 -143 248q-144 0 -144 -248q0 -247 144 -247q143 0 143 247zM282 643q-6 9 1 18l63 77l5 4q9 7 21 4q10 -3 18 -12q6 -8 4 -19q-3 -12 -12 -18l-77 -58q-7 -3 -12 -2q-7 3 -10 7z" />
    <glyph glyph-name="Ocircumflex" unicode="&#xd4;" horiz-adv-x="594" 
d="M552 298q0 -75 -19 -132q-20 -59 -54 -98q-34 -38 -81 -58q-45 -19 -102 -19q-54 0 -102 20q-46 19 -81 59q-34 39 -54 98q-19 57 -19 132t19 132q20 59 54 98q35 40 81 59q48 20 102 20q53 0 102 -20q47 -19 82 -59q35 -39 54 -97q19 -57 19 -132zM439 298
q0 248 -143 248q-144 0 -144 -248q0 -247 144 -247q143 0 143 247zM388 643q-2 -3 -4.5 -4t-5.5 -3q-7 -1 -12 2l-62 46l-63 -46q-5 -3 -11 -2q-8 4 -10 7q-6 10 0 19l63 75q9 10 20 10q13 0 20 -10l62 -75q6 -10 1 -19h2z" />
    <glyph glyph-name="Otilde" unicode="&#xd5;" horiz-adv-x="594" 
d="M552 298q0 -75 -19 -132q-20 -59 -54 -98q-34 -38 -81 -58q-45 -19 -102 -19q-54 0 -102 20q-46 19 -81 59q-34 39 -54 98q-19 57 -19 132t19 132q20 59 54 98q35 40 81 59q48 20 102 20q53 0 102 -20q47 -19 82 -59q35 -39 54 -97q19 -57 19 -132zM439 298
q0 248 -143 248q-144 0 -144 -248q0 -247 144 -247q143 0 143 247zM393 690q0 -5 -5 -18q-4 -7 -8 -13t-12 -12q-7 -6 -12.5 -9t-13.5 -3q-11 0 -18 3q-4 1 -9.5 4t-12.5 7q-14 8 -23 8q-6 0 -15 -6q-8 -6 -11 -10q-5 -5 -11 -5q-4 0 -10 4q-4 4 -4 9q0 4 2 8.5t4 10.5
q4 7 8 13t11 12q13 12 27 12t18 -2q4 -1 9.5 -3.5t13.5 -6.5q13 -9 23 -9q6 0 14 5q4 4 7 6.5t5 5.5q4 4 11 4t10 -2q4 -8 4 -11z" />
    <glyph glyph-name="Odieresis" unicode="&#xd6;" horiz-adv-x="594" 
d="M552 298q0 -75 -19 -132q-20 -59 -54 -98q-34 -38 -81 -58q-45 -19 -102 -19q-54 0 -102 20q-46 19 -81 59q-34 39 -54 98q-19 57 -19 132t19 132q20 59 54 98q35 40 81 59q48 20 102 20q53 0 102 -20q47 -19 82 -59q35 -39 54 -97q19 -57 19 -132zM439 298
q0 248 -143 248q-144 0 -144 -248q0 -247 144 -247q143 0 143 247zM433 735q0 -21 -15 -36t-36 -15q-22 0 -37 15t-15 36t16 37t37 16t36 -16q15 -17 15 -37h-1zM256 735q0 -21 -15 -36t-37 -15q-21 0 -36 15t-15 36q0 23 15 38t36 15t37 -16t16 -37h-1z" />
    <glyph glyph-name="multiply" unicode="&#xd7;" horiz-adv-x="492" 
d="M406 105q-14 -14 -35 -14t-35 14l-91 92l-92 -92q-14 -14 -34 -14t-36 14q-14 16 -14 36q0 21 14 35l92 92l-92 91q-14 14 -14 35t14 35q16 14 36 14q21 0 35 -14l92 -92l91 92q14 14 35 14t35 -14t14 -35t-14 -35l-91 -91l91 -92q14 -14 14 -34t-14 -36z" />
    <glyph glyph-name="Oslash" unicode="&#xd8;" horiz-adv-x="584" 
d="M538 292q0 -73 -18 -130q-18 -58 -52 -96t-81 -58q-45 -19 -100 -19q-48 0 -84 13l-11 -29q-4 -10 -17 -15q-12 -5 -23 0q-10 4 -15 17q-5 12 0 23l14 34q-52 36 -82 103t-30 159q0 74 18 131q18 56 53 96q34 38 81 58q48 20 100 20q43 0 83 -14l12 29q4 10 17 15
q12 5 23 0t17 -16q6 -12 1 -23l-13 -33q52 -36 82 -103q30 -68 30 -159zM427 292q0 123 -34 182l-166 -411q26 -14 60 -14q140 0 140 243zM346 521q-25 13 -59 13q-141 0 -141 -243q0 -122 34 -180l166 411v-1z" />
    <glyph glyph-name="Ugrave" unicode="&#xd9;" horiz-adv-x="607" 
d="M543 220q0 -46 -15 -88q-15 -41 -45 -73q-29 -30 -77 -49q-47 -18 -105 -18q-44 0 -87 12q-42 12 -82 44q-39 31 -57 78q-18 46 -18 93v337q0 21 16 37t39 16t39 -16t16 -37v-308q0 -101 34 -147q35 -47 102 -47q135 0 135 195v308q0 21 16 37t37 16q23 0 39 -16t16 -37
v-337h-3zM350 644q-3 -4 -10 -7q-5 -1 -12 2l-77 58q-9 6 -12 18q-2 11 4 19q7 9 18 12q12 3 21 -4l5 -4l63 -77q7 -9 1 -18z" />
    <glyph glyph-name="Uacute" unicode="&#xda;" horiz-adv-x="607" 
d="M543 220q0 -46 -15 -88q-15 -41 -45 -73q-29 -30 -77 -49q-47 -18 -105 -18q-44 0 -87 12q-42 12 -82 44q-39 31 -57 78q-18 46 -18 93v337q0 21 16 37t39 16t39 -16t16 -37v-308q0 -101 34 -147q35 -47 102 -47q135 0 135 195v308q0 21 16 37t37 16q23 0 39 -16t16 -37
v-337h-3zM278 643q-6 9 1 18l63 77l5 4q9 7 21 4q10 -3 18 -12q6 -8 4 -19q-3 -12 -12 -18l-77 -58q-7 -3 -12 -2q-7 3 -10 7z" />
    <glyph glyph-name="Ucircumflex" unicode="&#xdb;" horiz-adv-x="607" 
d="M543 220q0 -46 -15 -88q-15 -41 -45 -73q-29 -30 -77 -49q-47 -18 -105 -18q-44 0 -87 12q-42 12 -82 44q-39 31 -57 78q-18 46 -18 93v337q0 21 16 37t39 16t39 -16t16 -37v-308q0 -101 34 -147q35 -47 102 -47q135 0 135 195v308q0 21 16 37t37 16q23 0 39 -16t16 -37
v-337h-3zM431 659q-6 -7 -16 -10q-11 -3 -18 3l-94 69l-93 -69q-8 -6 -18 -3t-15 11q-9 15 1 28l94 113q13 15 30 15q19 0 30 -15l94 -113q11 -14 2 -28z" />
    <glyph glyph-name="Udieresis" unicode="&#xdc;" horiz-adv-x="607" 
d="M540 219q0 -46 -15 -88q-15 -41 -45 -73q-30 -31 -76 -49q-47 -18 -105 -18q-59 0 -105 18q-47 18 -77 50t-45 73q-15 42 -15 88v338q0 21 16 37t39 16q21 0 37 -16t16 -37v-309q0 -195 135 -195q67 0 102 47q34 46 34 147v309q0 21 16 37t39 16t39 -16t16 -37v-338h-6z
M436 738q0 -21 -15 -36t-37 -15q-21 0 -36 15t-15 36q0 23 15 38t36 15t37 -16t16 -37h-1zM259 737q0 -21 -15 -36t-36 -15t-36 15t-15 36q0 23 15 38t36 15t36 -15t15 -37v-1z" />
    <glyph glyph-name="Yacute" unicode="&#xdd;" horiz-adv-x="470" 
d="M465 568q-31 -153 -122 -289q-18 -26 -31.5 -42.5t-21.5 -24.5v-167q0 -23 -16 -39t-39 -16q-21 0 -37 16t-16 39v166q-8 6 -21 21q-7 8 -18 22t-27 36q-14 19 -26 40t-23 44t-19.5 42.5t-14.5 36.5t-10.5 32.5t-8.5 30.5q-7 28 -7 41q0 25 17 39t36 14t34 -12
q14 -12 19 -30q36 -168 127 -275q6 -9 14 -9t15 10q86 112 124 288q3 12 14 20t24 8q16 0 27 -12q10 -12 7 -29v-1zM206 643q-6 9 1 18l63 77l5 4q9 7 21 4q10 -3 18 -12q6 -8 4 -19q-3 -12 -12 -18l-77 -58q-7 -3 -12 -2q-7 3 -10 7z" />
    <glyph glyph-name="Thorn" unicode="&#xde;" horiz-adv-x="504" 
d="M164 486q42 19 102 19q71 0 117 -25q47 -26 71 -69q24 -44 24 -105q0 -27 -9 -57q-9 -31 -33 -56q-25 -26 -58 -45q-35 -20 -76 -30q-40 -10 -72 -10q-16 0 -29 8q-12 7 -12 24q0 15 12 23q12 7 23 9q44 1 79 18q34 16 51 47q16 29 16 70q0 42 -10 75q-11 34 -36 51
q-26 17 -55 17q-100 0 -100 -145v-260q0 -23 -16 -39t-39 -16t-39 16t-16 39v512q0 21 16 37t39 16t39 -16t16 -37z" />
    <glyph glyph-name="germandbls" unicode="&#xdf;" horiz-adv-x="512" 
d="M475 170q0 -54 -24 -93q-24 -38 -72 -61q-47 -22 -121 -22l-43 1q-12 0 -21 9t-9 21t9 21t21 9q2 0 6.5 -0.5t11.5 -1.5t14.5 -1.5t15.5 -0.5q55 0 84 30q29 31 29 86q0 59 -39 92t-130 33q-10 0 -19 9t-9 21q0 11 9 20t20 9q68 0 98 24t30 77q0 28 -9 54q-9 25 -30 39
q-20 13 -46 13q-96 0 -96 -159v-478q0 -21 -15 -36t-34 -15q-21 0 -36 15t-15 36v473q0 102 50 160q49 57 146 57q56 0 97 -18q40 -18 61 -51t21 -79q0 -51 -26 -86t-89 -56q50 -8 86 -27q37 -20 56 -51q20 -32 20 -76z" />
    <glyph glyph-name="agrave" unicode="&#xe0;" 
d="M362 190q0 -107 -46 -153q-47 -47 -136 -47q-23 0 -52 8q-27 7 -51 27q-24 19 -36 48q-12 28 -12 53q0 43 23 75t66 50q44 18 100 14q9 -2 16 -7q7 -6 7 -14t-7 -15q-8 -8 -16 -9q-98 -12 -98 -95q0 -20 9 -41t25 -30t33 -9q37 0 57 36q20 37 20 122q0 71 -10 100
q-11 30 -30 45q-20 15 -53 15q-21 0 -52 -10t-36 -10q-20 0 -27 18q-3 10 1 20q5 11 16 17q24 11 59 17q36 6 67 6q41 0 77 -13q38 -14 63 -58t25 -157zM259 466q-3 -4 -10 -7q-5 -1 -12 2l-77 58q-9 6 -12 18q-2 11 4 19q7 9 18 12q12 3 21 -4l5 -4l63 -77q7 -9 1 -18z" />
    <glyph glyph-name="aacute" unicode="&#xe1;" 
d="M362 190q0 -107 -46 -153q-47 -47 -136 -47q-23 0 -52 8q-27 7 -51 27q-24 19 -36 48q-12 28 -12 53q0 43 23 75t66 50q44 18 100 14q9 -2 16 -7q7 -6 7 -14t-7 -15q-8 -8 -16 -9q-98 -12 -98 -95q0 -20 9 -41t25 -30t33 -9q37 0 57 36q20 37 20 122q0 71 -10 100
q-11 30 -30 45q-20 15 -53 15q-21 0 -52 -10t-36 -10q-20 0 -27 18q-3 10 1 20q5 11 16 17q24 11 59 17q36 6 67 6q41 0 77 -13q38 -14 63 -58t25 -157zM184 465q-6 9 1 18l63 77l5 4q9 7 21 4q10 -3 18 -12q6 -8 4 -19q-3 -12 -12 -18l-77 -58q-7 -3 -12 -2q-7 3 -10 7z
" />
    <glyph glyph-name="acircumflex" unicode="&#xe2;" 
d="M362 190q0 -107 -46 -153q-47 -47 -136 -47q-23 0 -52 8q-27 7 -51 27q-24 19 -36 48q-12 28 -12 53q0 43 23 75t66 50q44 18 100 14q9 -2 16 -7q7 -6 7 -14t-7 -15q-8 -8 -16 -9q-98 -12 -98 -95q0 -20 9 -41t25 -30t33 -9q37 0 57 36q20 37 20 122q0 71 -10 100
q-11 30 -30 45q-20 15 -53 15q-21 0 -52 -10t-36 -10q-20 0 -27 18q-3 10 1 20q5 11 16 17q24 11 59 17q36 6 67 6q41 0 77 -13q38 -14 63 -58t25 -157zM295 465q-2 -3 -4.5 -4t-5.5 -3q-7 -1 -12 2l-62 46l-63 -46q-5 -3 -11 -2q-8 4 -10 7q-6 10 0 19l63 75q9 10 20 10
q13 0 20 -10l62 -75q6 -10 1 -19h2z" />
    <glyph glyph-name="atilde" unicode="&#xe3;" 
d="M362 190q0 -107 -46 -153q-47 -47 -136 -47q-23 0 -52 8q-27 7 -51 27q-24 19 -36 48q-12 28 -12 53q0 43 23 75t66 50q44 18 100 14q9 -2 16 -7q7 -6 7 -14t-7 -15q-8 -8 -16 -9q-98 -12 -98 -95q0 -20 9 -41t25 -30t33 -9q37 0 57 36q20 37 20 122q0 71 -10 100
q-11 30 -30 45q-20 15 -53 15q-21 0 -52 -10t-36 -10q-20 0 -27 18q-3 10 1 20q5 11 16 17q24 11 59 17q36 6 67 6q41 0 77 -13q38 -14 63 -58t25 -157zM294 513q0 -5 -5 -18q-4 -7 -8 -13t-12 -12q-7 -6 -12.5 -9t-13.5 -3q-11 0 -18 3q-4 1 -9.5 4t-12.5 7q-14 8 -23 8
q-6 0 -15 -6q-8 -6 -11 -10q-5 -5 -11 -5q-4 0 -10 4q-4 4 -4 9q0 4 2 8.5t4 10.5q4 7 8 13t11 12q13 12 27 12t18 -2q4 -1 9.5 -3.5t13.5 -6.5q13 -9 23 -9q6 0 14 5q4 4 7 6.5t5 5.5q4 4 11 4t10 -2q4 -8 4 -11z" />
    <glyph glyph-name="adieresis" unicode="&#xe4;" 
d="M362 190q0 -107 -46 -153q-47 -47 -136 -47q-23 0 -52 8q-27 7 -51 27q-24 19 -36 48q-12 28 -12 53q0 43 23 75t66 50q44 18 100 14q9 -2 16 -7q7 -6 7 -14t-7 -15q-8 -8 -16 -9q-98 -12 -98 -95q0 -20 9 -41t25 -30t33 -9q37 0 57 36q20 37 20 122q0 71 -10 100
q-11 30 -30 45q-20 15 -53 15q-21 0 -52 -10t-36 -10q-20 0 -27 18q-3 10 1 20q5 11 16 17q24 11 59 17q36 6 67 6q41 0 77 -13q38 -14 63 -58t25 -157zM333 580q0 -21 -15 -36t-36 -15q-22 0 -37 15t-15 36t16 37t37 16t36 -16q15 -17 15 -37h-1zM156 580q0 -21 -15 -36
t-37 -15q-21 0 -36 15t-15 36q0 23 15 38t36 15t37 -16t16 -37h-1z" />
    <glyph glyph-name="aring" unicode="&#xe5;" 
d="M362 190q0 -107 -46 -153q-47 -47 -136 -47q-23 0 -52 8q-27 7 -51 27q-24 19 -36 48q-12 28 -12 53q0 43 23 75t66 50q44 18 100 14q9 -2 16 -7q7 -6 7 -14t-7 -15q-8 -8 -16 -9q-98 -12 -98 -95q0 -20 9 -41t25 -30t33 -9q37 0 57 36q20 37 20 122q0 71 -10 100
q-11 30 -30 45q-20 15 -53 15q-21 0 -52 -10t-36 -10q-20 0 -27 18q-3 10 1 20q5 11 16 17q24 11 59 17q36 6 67 6q41 0 77 -13q38 -14 63 -58t25 -157zM274 564q0 -31 -24 -55t-55 -24t-55 24t-24 56t24 56t56 24t56 -24t24 -55zM234 564q0 16 -12 28t-28 12q-15 0 -27 -12
t-12 -28t12 -28t27 -12q16 0 28 12t12 28z" />
    <glyph glyph-name="ae" unicode="&#xe6;" horiz-adv-x="627" 
d="M592 294q0 -27 -10 -51q-11 -26 -37 -45q-28 -20 -66 -29q-20 -5 -38 -7t-35 -3q-8 0 -16 8q-7 7 -7 15q0 9 6 15q7 7 15 8q103 10 103 93q0 31 -15 46t-36 15q-15 0 -37 -12t-40 -49q-18 -38 -18 -99q0 -53 15 -87q15 -35 39 -51q25 -17 48 -17q20 0 38 3t48 15l11 3
q8 0 15 -4t10 -10q5 -11 2 -22t-12 -16q-17 -11 -49 -18q-31 -7 -79 -7q-81 0 -130 49q-43 -49 -138 -49q-23 0 -52 8q-27 7 -51 27q-24 19 -36 48q-12 28 -12 53q0 43 23 75t66 50q44 18 100 14q9 -2 16 -7q7 -6 7 -14t-7 -15q-8 -8 -16 -9q-98 -12 -98 -95q0 -20 9 -41
t25 -30t33 -9q37 0 57 36q20 37 20 122q0 71 -10 100q-11 30 -30 45q-20 15 -53 15q-21 0 -52 -10t-36 -10q-20 0 -27 18q-3 10 1 20q5 11 16 17q24 11 59 17q36 6 67 6q91 0 130 -53q27 26 64 39q39 14 75 14q34 0 64 -13q33 -14 50 -43q18 -30 18 -63z" />
    <glyph glyph-name="ccedilla" unicode="&#xe7;" horiz-adv-x="378" 
d="M362 359q-4 -10 -17 -13q-12 -3 -25 3q-11 4 -30 9q-10 2 -19.5 3.5t-20.5 1.5q-28 0 -55 -18t-42 -52q-15 -35 -15 -87q0 -54 16 -87q17 -35 43 -51q28 -17 56 -17q34 0 73 16l13 3q19 0 25 -14q4 -9 0 -21q-5 -13 -12 -17q-36 -20 -108 -25v-20q43 -14 60 -30
q16 -16 16 -39q0 -17 -12 -35t-40 -30q-29 -12 -60 -12q-19 0 -31 6t-12 16q0 8 6 14t15 6l28 -2q17 0 31 9q13 9 13 26q0 7 -6 18q-6 10 -39 24q-12 4 -12 21v27q-73 7 -118 63q-45 55 -45 150q0 40 12 79t39 69t65 48q37 18 78 18q69 0 110 -18q17 -8 21 -19q5 -13 -1 -23
z" />
    <glyph glyph-name="egrave" unicode="&#xe8;" 
d="M366 297q0 -27 -10 -51q-11 -26 -37 -45q-28 -20 -66 -29q-20 -5 -38 -7t-35 -3q-8 0 -16 8q-7 7 -7 15q0 9 6 15q7 7 15 8q103 10 103 93q0 22 -12 42q-12 19 -40 19q-15 0 -37 -12t-40 -49q-18 -38 -18 -99q0 -53 15 -87q15 -35 39 -51q25 -17 48 -17q20 0 38 3
q16 3 47 14l12 3q8 0 15 -4t10 -10q5 -11 2 -22t-12 -16q-17 -11 -49 -18q-31 -7 -79 -7q-84 0 -135 56q-51 55 -51 159q0 64 27 111t73 75t105 28q34 0 64 -13q33 -14 50 -43q18 -30 18 -63zM292 466q-3 -4 -10 -7q-5 -1 -12 2l-77 58q-9 6 -12 18q-2 11 4 19q7 9 18 12
q12 3 21 -4l5 -4l63 -77q7 -9 1 -18z" />
    <glyph glyph-name="eacute" unicode="&#xe9;" 
d="M366 297q0 -27 -10 -51q-11 -26 -37 -45q-28 -20 -66 -29q-20 -5 -38 -7t-35 -3q-8 0 -16 8q-7 7 -7 15q0 9 6 15q7 7 15 8q103 10 103 93q0 22 -12 42q-12 19 -40 19q-15 0 -37 -12t-40 -49q-18 -38 -18 -99q0 -53 15 -87q15 -35 39 -51q25 -17 48 -17q20 0 38 3
q16 3 47 14l12 3q8 0 15 -4t10 -10q5 -11 2 -22t-12 -16q-17 -11 -49 -18q-31 -7 -79 -7q-84 0 -135 56q-51 55 -51 159q0 64 27 111t73 75t105 28q34 0 64 -13q33 -14 50 -43q18 -30 18 -63zM208 465q-6 9 1 18l63 77l5 4q9 7 21 4q10 -3 18 -12q6 -8 4 -19q-3 -12 -12 -18
l-77 -58q-7 -3 -12 -2q-7 3 -10 7z" />
    <glyph glyph-name="ecircumflex" unicode="&#xea;" 
d="M366 297q0 -27 -10 -51q-11 -26 -37 -45q-28 -20 -66 -29q-20 -5 -38 -7t-35 -3q-8 0 -16 8q-7 7 -7 15q0 9 6 15q7 7 15 8q103 10 103 93q0 22 -12 42q-12 19 -40 19q-15 0 -37 -12t-40 -49q-18 -38 -18 -99q0 -53 15 -87q15 -35 39 -51q25 -17 48 -17q20 0 38 3
q16 3 47 14l12 3q8 0 15 -4t10 -10q5 -11 2 -22t-12 -16q-17 -11 -49 -18q-31 -7 -79 -7q-84 0 -135 56q-51 55 -51 159q0 64 27 111t73 75t105 28q34 0 64 -13q33 -14 50 -43q18 -30 18 -63zM321 465q-2 -3 -4.5 -4t-5.5 -3q-7 -1 -12 2l-62 46l-63 -46q-5 -3 -11 -2
q-8 4 -10 7q-6 10 0 19l63 75q9 10 20 10q13 0 20 -10l62 -75q6 -10 1 -19h2z" />
    <glyph glyph-name="edieresis" unicode="&#xeb;" 
d="M366 297q0 -27 -10 -51q-11 -26 -37 -45q-28 -20 -66 -29q-20 -5 -38 -7t-35 -3q-8 0 -16 8q-7 7 -7 15q0 9 6 15q7 7 15 8q103 10 103 93q0 22 -12 42q-12 19 -40 19q-15 0 -37 -12t-40 -49q-18 -38 -18 -99q0 -53 15 -87q15 -35 39 -51q25 -17 48 -17q20 0 38 3
q16 3 47 14l12 3q8 0 15 -4t10 -10q5 -11 2 -22t-12 -16q-17 -11 -49 -18q-31 -7 -79 -7q-84 0 -135 56q-51 55 -51 159q0 64 27 111t73 75t105 28q34 0 64 -13q33 -14 50 -43q18 -30 18 -63zM355 580q0 -21 -15 -36t-36 -15q-22 0 -37 15t-15 36t16 37t37 16t36 -16
q15 -17 15 -37h-1zM178 580q0 -21 -15 -36t-37 -15q-21 0 -36 15t-15 36q0 23 15 38t36 15t37 -16t16 -37h-1z" />
    <glyph glyph-name="igrave" unicode="&#xec;" horiz-adv-x="227" 
d="M161 40q0 -19 -15 -34t-36 -15q-19 0 -34 15t-15 35v329q0 21 15 36t35 15q21 0 36 -15t15 -36v-329zM160 466q-3 -4 -10 -7q-5 -1 -12 2l-77 58q-9 6 -12 18q-2 11 4 19q7 9 18 12q12 3 21 -4l5 -4l63 -77q7 -9 1 -18z" />
    <glyph glyph-name="iacute" unicode="&#xed;" horiz-adv-x="227" 
d="M161 40q0 -19 -15 -34t-34 -15q-21 0 -36 15t-15 35v329q0 21 15 36t36 15q20 0 35 -15t15 -36v-329zM73 465q-6 9 1 18l63 77l5 4q9 7 21 4q10 -3 18 -12q6 -8 4 -19q-3 -12 -12 -18l-77 -58q-7 -3 -12 -2q-7 3 -10 7z" />
    <glyph glyph-name="icircumflex" unicode="&#xee;" horiz-adv-x="227" 
d="M161 40q0 -19 -15 -34t-34 -15q-21 0 -36 15t-15 35v329q0 21 15 36t36 15q20 0 35 -15t15 -36v-329zM241 498q-6 -7 -16 -10q-11 -3 -18 3l-94 69l-93 -69q-8 -6 -18 -3t-15 11q-9 15 1 28l94 113q13 15 30 15q19 0 30 -15l94 -113q11 -14 2 -28z" />
    <glyph glyph-name="idieresis" unicode="&#xef;" horiz-adv-x="227" 
d="M161 40q0 -19 -15 -34t-34 -15q-21 0 -36 15t-15 35v329q0 21 15 36t36 15q20 0 35 -15t15 -36v-329zM252 582q0 -21 -15 -36t-36 -15q-22 0 -37 15t-15 36t16 37t37 16t36 -16q15 -17 15 -37h-1zM75 582q0 -21 -15 -36t-37 -15q-21 0 -36 15t-15 36q0 23 15 38t36 15
t37 -16t16 -37h-1z" />
    <glyph glyph-name="eth" unicode="&#xf0;" horiz-adv-x="442" 
d="M343 640q10 -13 9 -28q-2 -15 -15 -24l-77 -56q47 -56 81 -121q34 -66 48 -123q14 -59 14 -98q0 -59 -21 -102q-21 -44 -63 -72q-41 -28 -100 -28q-58 0 -99 23q-40 22 -64 63q-24 40 -24 90q0 81 51 135q50 53 134 61q8 1 16 -5t9 -13q6 -22 -29 -33q-41 -12 -60 -48
q-19 -35 -19 -82q0 -44 11 -74q11 -29 30 -44t45 -15q19 0 40 12q22 13 35 43q14 33 14 75q0 64 -24 138q-25 75 -100 167l-86 -62q-11 -9 -26 -6t-25 16q-8 11 -6 26t14 23l81 58l-27 27q-20 19 -30 33q-10 13 -10 24q0 16 11 29q10 12 27 12t38 -12q11 -6 28 -19.5
t40 -35.5l84 61q12 9 27 6t24 -15z" />
    <glyph glyph-name="ntilde" unicode="&#xf1;" horiz-adv-x="453" 
d="M405 36q0 -19 -15 -34t-34 -15q-20 0 -35 15t-15 35v180q0 65 -8 92q-8 25 -24 39q-16 13 -45 13q-21 0 -39 -9t-30 -33t-12 -101v-180q0 -19 -15 -34t-36 -15q-19 0 -34 15t-15 35v210q0 35 12 65q12 29 35 54q22 23 57 37q36 14 75 14q52 0 93 -22q42 -23 63 -63
q21 -41 21 -83v-210zM388 601q0 -12 -10 -33q-10 -22 -35 -45q-23 -22 -49 -22q-15 0 -32 5q-8 2 -17.5 7t-22.5 13q-26 15 -42 15q-13 0 -26 -10q-15 -11 -21 -19q-7 -10 -20 -10q-10 0 -18 8q-7 7 -7 18q0 9 11 33q10 22 35 45t50 23q15 0 32 -5q16 -5 40 -19
q25 -15 42 -15q13 0 26 10q15 11 21 19q7 10 20 10q11 0 18 -7q8 -8 8 -18z" />
    <glyph glyph-name="ograve" unicode="&#xf2;" horiz-adv-x="442" 
d="M407 204q0 -104 -51 -159t-135 -55t-135 56q-51 55 -51 159q0 103 51 159t135 56t135 -55q51 -56 51 -159v-2zM307 202q0 86 -22 123q-23 38 -64 38q-42 0 -64 -37t-22 -123t22 -123t64 -37q41 0 64 38q22 37 22 123v-2zM282 466q-3 -4 -10 -7q-5 -1 -12 2l-77 58
q-9 6 -12 18q-2 11 4 19q7 9 18 12q12 3 21 -4l5 -4l63 -77q7 -9 1 -18z" />
    <glyph glyph-name="oacute" unicode="&#xf3;" horiz-adv-x="442" 
d="M407 204q0 -104 -51 -159t-135 -55t-135 56q-51 55 -51 159q0 103 51 159t135 56t135 -55q51 -56 51 -159v-2zM307 202q0 86 -22 123q-23 38 -64 38q-42 0 -64 -37t-22 -123t22 -123t64 -37q41 0 64 38q22 37 22 123v-2zM201 465q-6 9 1 18l63 77l5 4q9 7 21 4
q10 -3 18 -12q6 -8 4 -19q-3 -12 -12 -18l-77 -58q-7 -3 -12 -2q-7 3 -10 7z" />
    <glyph glyph-name="ocircumflex" unicode="&#xf4;" horiz-adv-x="442" 
d="M407 204q0 -104 -51 -159t-135 -55t-135 56q-51 55 -51 159q0 103 51 159t135 56t135 -55q51 -56 51 -159v-2zM307 202q0 86 -22 123q-23 38 -64 38q-42 0 -64 -37t-22 -123t22 -123t64 -37q41 0 64 38q22 37 22 123v-2zM314 465q-2 -3 -4.5 -4t-5.5 -3q-7 -1 -12 2
l-62 46l-63 -46q-5 -3 -11 -2q-8 4 -10 7q-6 10 0 19l63 75q9 10 20 10q13 0 20 -10l62 -75q6 -10 1 -19h2z" />
    <glyph glyph-name="otilde" unicode="&#xf5;" horiz-adv-x="442" 
d="M407 204q0 -104 -51 -159t-135 -55t-135 56q-51 55 -51 159q0 103 51 159t135 56t135 -55q51 -56 51 -159v-2zM307 202q0 86 -22 123q-23 38 -64 38q-42 0 -64 -37t-22 -123t22 -123t64 -37q41 0 64 38q22 37 22 123v-2zM323 513q0 -5 -5 -18q-4 -7 -8 -13t-12 -12
q-7 -6 -12.5 -9t-13.5 -3q-11 0 -18 3q-4 1 -9.5 4t-12.5 7q-14 8 -23 8q-6 0 -15 -6q-8 -6 -11 -10q-5 -5 -11 -5q-4 0 -10 4q-4 4 -4 9q0 4 2 8.5t4 10.5q4 7 8 13t11 12q13 12 27 12t18 -2q4 -1 9.5 -3.5t13.5 -6.5q13 -9 23 -9q6 0 14 5q4 4 7 6.5t5 5.5q4 4 11 4t10 -2
q4 -8 4 -11z" />
    <glyph glyph-name="odieresis" unicode="&#xf6;" horiz-adv-x="442" 
d="M407 204q0 -104 -51 -159t-135 -55t-135 56q-51 55 -51 159q0 103 51 159t135 56t135 -55q51 -56 51 -159v-2zM307 202q0 86 -22 123q-23 38 -64 38q-42 0 -64 -37t-22 -123t22 -123t64 -37q41 0 64 38q22 37 22 123v-2zM364 579q0 -21 -15 -36t-36 -15q-22 0 -37 15
t-15 36t16 37t37 16t36 -16q15 -17 15 -37h-1zM187 579q0 -21 -15 -36t-37 -15q-21 0 -36 15t-15 36q0 23 15 38t36 15t37 -16t16 -37h-1z" />
    <glyph glyph-name="divide" unicode="&#xf7;" horiz-adv-x="498" 
d="M302 399q0 -23 -16 -39t-39 -16q-22 0 -39 17q-16 16 -16 39q0 22 17 39t39 17q23 0 39 -16q17 -17 17 -39zM435 265q0 -21 -15 -36t-36 -15h-279q-19 0 -34 15t-15 36q0 20 15 35t35 15h279q21 0 36 -15t15 -34zM299 129q0 -23 -16 -39t-39 -16q-22 0 -39 17
q-16 16 -16 39q0 22 17 39t39 17q23 0 39 -16q17 -17 17 -39z" />
    <glyph glyph-name="oslash" unicode="&#xf8;" horiz-adv-x="442" 
d="M405 203q0 -104 -51 -159t-135 -55q-28 0 -53 6l-7 -18q-4 -8 -15 -13q-10 -4 -19 0q-10 4 -15 14q-5 9 0 20l8 19q-40 25 -63 74q-22 47 -22 114q0 103 51 159t135 56q29 0 59 -8l8 19q4 10 15 15q10 4 21 0q10 -5 14 -15q4 -11 0 -21l-9 -21q38 -26 59 -72
q21 -47 21 -111zM255 354q-14 9 -36 9q-42 0 -64 -37t-22 -123q0 -72 16 -111l107 262h-1zM305 203q0 63 -13 102l-104 -257q13 -6 30 -6q41 0 64 38q22 37 22 123h1z" />
    <glyph glyph-name="ugrave" unicode="&#xf9;" horiz-adv-x="453" 
d="M399 159q0 -43 -21 -83q-21 -41 -63 -63q-41 -22 -93 -22q-32 0 -63 9q-32 9 -57 30q-26 21 -42 54q-16 32 -16 75v210q0 20 15 35t35 15q21 0 36 -15t15 -34v-183q0 -64 8 -91q7 -25 26 -39q17 -13 46 -13q21 0 38 9t29 33t12 101v183q0 20 15 35t35 15t35 -15t15 -34
v-210zM259 466q-3 -4 -10 -7q-5 -1 -12 2l-77 58q-9 6 -12 18q-2 11 4 19q7 9 18 12q12 3 21 -4l5 -4l63 -77q7 -9 1 -18z" />
    <glyph glyph-name="uacute" unicode="&#xfa;" horiz-adv-x="453" 
d="M399 159q0 -43 -21 -83q-21 -41 -63 -63q-41 -22 -93 -22q-32 0 -63 9q-32 9 -57 30q-26 21 -42 54q-16 32 -16 75v210q0 20 15 35t35 15q21 0 36 -15t15 -34v-183q0 -64 8 -91q7 -25 26 -39q17 -13 46 -13q21 0 38 9t29 33t12 101v183q0 20 15 35t35 15t35 -15t15 -34
v-210zM197 465q-6 9 1 18l63 77l5 4q9 7 21 4q10 -3 18 -12q6 -8 4 -19q-3 -12 -12 -18l-77 -58q-7 -3 -12 -2q-7 3 -10 7z" />
    <glyph glyph-name="ucircumflex" unicode="&#xfb;" horiz-adv-x="453" 
d="M399 159q0 -43 -21 -83q-21 -41 -63 -63q-41 -22 -93 -22q-32 0 -63 9q-32 9 -57 30q-26 21 -42 54q-16 32 -16 75v210q0 20 15 35t35 15q21 0 36 -15t15 -34v-183q0 -64 8 -91q7 -25 26 -39q17 -13 46 -13q21 0 38 9t29 33t12 101v183q0 20 15 35t35 15t35 -15t15 -34
v-210zM358 497q-6 -7 -16 -10q-11 -3 -18 3l-94 69l-93 -69q-8 -6 -18 -3t-15 11q-9 15 1 28l94 113q13 15 30 15q19 0 30 -15l94 -113q11 -14 2 -28z" />
    <glyph glyph-name="udieresis" unicode="&#xfc;" horiz-adv-x="453" 
d="M399 159q0 -43 -21 -83q-21 -41 -63 -63q-41 -22 -93 -22q-32 0 -63 9q-32 9 -57 30q-26 21 -42 54q-16 32 -16 75v210q0 20 15 35t35 15q21 0 36 -15t15 -34v-183q0 -64 8 -91q7 -25 26 -39q17 -13 46 -13q21 0 38 9t29 33t12 101v183q0 20 15 35t35 15t35 -15t15 -34
v-210zM357 581q0 -21 -15 -36t-36 -15q-22 0 -37 15t-15 36t16 37t37 16t36 -16q15 -17 15 -37h-1zM180 581q0 -21 -15 -36t-37 -15q-21 0 -36 15t-15 36q0 23 15 38t36 15t37 -16t16 -37h-1z" />
    <glyph glyph-name="yacute" unicode="&#xfd;" horiz-adv-x="455" 
d="M399 157q0 -69 -45 -117q-9 -10 -51 -46q-41 -35 -54 -58q-14 -25 -14 -50q0 -6 0.5 -12t1.5 -12q1 -10 8 -27l7 -17q4 -14 3 -27q-2 -14 -15 -27t-36 -13q-11 0 -24 8q-11 7 -19 21q-21 42 -21 83q0 29 13 55q14 28 55 66q4 3 4 5t-5 2q-29 1 -57 12q-29 11 -52 31
q-24 21 -39 53q-15 31 -15 72v210q0 20 15 35t35 15q21 0 36 -15t15 -34v-183q0 -64 8 -91q7 -25 26 -39q17 -13 46 -13q21 0 38 9t29 33t12 101v183q0 20 15 35t35 15t35 -15t15 -34v-210zM208 465q-6 9 1 18l63 77l5 4q9 7 21 4q10 -3 18 -12q6 -8 4 -19q-3 -12 -12 -18
l-77 -58q-7 -3 -12 -2q-7 3 -10 7z" />
    <glyph glyph-name="thorn" unicode="&#xfe;" horiz-adv-x="463" 
d="M429 228q0 -91 -50 -147t-132 -63q-8 -1 -16 5t-9 13q-1 13 5 21q6 7 24 12q19 6 39 24q19 18 30 51q10 31 10 74q0 39 -9 75t-31 54q-23 18 -48 18q-19 0 -40 -12t-34 -43q-13 -30 -13 -75q0 -54 28 -135q1 -5 15 -37q13 -29 22 -67q9 -36 9 -79q0 -73 -33 -139
q-6 -14 -18 -21q-11 -7 -24 -7q-11 0 -27 8q-14 7 -22 26q-8 18 3 39q22 43 22 95q0 24 -3 45t-9 39q-3 9 -6.5 19t-8.5 21q-8 20 -12 28q-35 88 -35 147v391q0 21 15 36t35 15q21 0 36 -15t15 -36v-209q38 20 86 20q36 0 69 -10q35 -11 60 -34q26 -25 41 -60q15 -36 15 -81
z" />
    <glyph glyph-name="ydieresis" unicode="&#xff;" horiz-adv-x="453" 
d="M399 157q0 -69 -45 -117q-9 -10 -51 -46q-41 -35 -54 -58q-14 -25 -14 -50q0 -6 0.5 -12t1.5 -12q1 -10 8 -27l7 -17q4 -14 3 -27q-2 -14 -15 -27t-36 -13q-11 0 -24 8q-11 7 -19 21q-21 42 -21 83q0 29 13 55q14 28 55 66q4 3 4 5t-5 2q-29 1 -57 12q-29 11 -52 31
q-24 21 -39 53q-15 31 -15 72v210q0 20 15 35t35 15q21 0 36 -15t15 -34v-183q0 -64 8 -91q7 -25 26 -39q17 -13 46 -13q21 0 38 9t29 33t12 101v183q0 20 15 35t35 15t35 -15t15 -34v-210zM368 579q0 -21 -15 -36t-36 -15q-22 0 -37 15t-15 36t16 37t37 16t36 -16
q15 -17 15 -37h-1zM191 579q0 -21 -15 -36t-37 -15q-21 0 -36 15t-15 36q0 23 15 38t36 15t37 -16t16 -37h-1z" />
    <glyph glyph-name="Abreve" unicode="&#x102;" horiz-adv-x="547" 
d="M346 723q-1 -4 -4 -10t-9.5 -12t-18 -10t-29.5 -4t-29 4.5t-17.5 10.5t-9.5 12t-4 10q-5 5 -10 5q-11 0 -12.5 -7t-1.5 -13q0 -12 5 -25t15.5 -23.5t26 -17.5t37.5 -7q24 0 40 7.5t26 18.5t14.5 23.5t4.5 23.5q0 7 -2 13.5t-11 6.5q-2 0 -5.5 -0.5t-5.5 -5.5zM357 729
q3 1 2.5 0.5t-2.5 -0.5zM519 58q-16 115 -47 221q-15 52 -34.5 100.5t-42.5 94.5q-68 135 -115 135q-53 0 -121 -137q-48 -96 -81 -213q-17 -59 -29.5 -115.5t-20.5 -113.5q-3 -19 7 -29q11 -11 25 -11q31 0 36 29q7 66 18 121q5 17 12 23t21 9q46 12 108 12t108 -11
q22 -6 27 -17q4 -11 6 -15q10 -47 18 -102q3 -24 19 -36t36 -12q16 0 30 10t19 27q4 16 3 30h-2zM376 235q-20 6 -54 9q-35 3 -63 3q-74 0 -118 -14q38 132 96 242q7 16 18 16q3 0 10 -5q6 -4 9 -11q15 -28 29.5 -57.5t28.5 -61.5t25.5 -62.5t20.5 -60.5z" />
    <glyph glyph-name="abreve" unicode="&#x103;" 
d="M274 545q-1 -4 -4 -10t-9.5 -12t-18 -10t-29.5 -4t-29 4.5t-17.5 10.5t-9.5 12t-4 10q-5 5 -10 5q-11 0 -12.5 -7t-1.5 -13q0 -12 5 -25t15.5 -23.5t26 -17.5t37.5 -7q24 0 40 7.5t26 18.5t14.5 23.5t4.5 23.5q0 7 -2 13.5t-11 6.5q-2 0 -5.5 -0.5t-5.5 -5.5zM285 551
q3 1 2.5 0.5t-2.5 -0.5zM364 193q0 113 -25 157t-63 58q-36 13 -77 13q-31 0 -67 -6q-35 -6 -59 -17q-11 -6 -16 -17q-4 -10 -1 -20q7 -18 27 -18q5 0 36 10t52 10q33 0 53 -15q19 -15 30 -45q10 -29 10 -100q0 -85 -20 -122q-20 -36 -57 -36q-17 0 -33 9t-25 30t-9 41
q0 83 98 95q8 1 16 9q7 7 7 15t-7 14q-7 5 -16 7q-56 4 -100 -14q-43 -18 -66 -50t-23 -75q0 -25 12 -53q12 -29 36 -48q24 -20 51 -27q29 -8 52 -8q89 0 136 47q46 46 46 153z" />
    <glyph glyph-name="Dcroat" unicode="&#x110;" horiz-adv-x="581" 
d="M542 300q0 -65 -16 -119q-17 -56 -51 -98q-35 -42 -90 -66q-56 -24 -129 -24q-72 0 -111 9q-38 9 -61 38q-22 28 -22 84v137h-28q-9 0 -19 8q-9 9 -9 21q0 11 9 19q9 9 20 9h27v180q0 27 13 50q13 24 37 40q23 16 62 19l76 2q60 0 111 -19q53 -20 93 -58q41 -39 63 -97
q23 -60 23 -134zM429 296q0 71 -25 130q-26 61 -69 89q-44 29 -100 29q-35 0 -49 -13q-15 -14 -15 -30v-183h74q11 0 20 -9q8 -7 8 -19t-9 -21q-8 -8 -20 -8h-73v-99q0 -58 18 -82t72 -24q45 0 83 29q37 28 60 83t23 132z" />
    <glyph glyph-name="dcroat" unicode="&#x111;" horiz-adv-x="442" 
d="M403 197q0 -59 -21 -102q-21 -44 -63 -72q-41 -28 -100 -28q-33 0 -69 11q-34 10 -60 35t-41 60q-15 36 -15 81q0 93 50 149q49 55 132 63q8 1 16 -5t9 -13q6 -22 -29 -33q-36 -11 -57 -48q-21 -38 -21 -102q0 -39 9 -75t30 -54t47 -18q19 0 40 12q22 13 35 43
q14 33 14 75q0 58 -28 135q-2 4 -3 5q-2 1 -15 36q-14 34 -21 69q-5 23 -7 52h-61q-9 0 -19 8q-9 9 -9 21q0 11 9 19q9 9 20 9h62q6 52 30 102q8 14 19 21q13 8 24 8q21 0 35 -13q16 -14 17 -30q2 -17 -4 -30q-8 -14 -12.5 -28.5t-6.5 -29.5h46q11 0 20 -9q8 -7 8 -19
t-9 -21q-8 -8 -20 -8h-48q0 -18 3 -34q3 -28 18 -62q15 -35 15 -36q35 -88 35 -147z" />
    <glyph glyph-name="Itilde" unicode="&#x128;" horiz-adv-x="302" 
d="M239 690q0 -5 -5 -18q-4 -7 -8 -13t-12 -12q-7 -6 -12.5 -9t-13.5 -3q-11 0 -18 3q-4 1 -9.5 4t-12.5 7q-14 8 -23 8q-6 0 -15 -6q-8 -6 -11 -10q-5 -5 -11 -5q-4 0 -10 4q-4 4 -4 9q0 4 2 8.5t4 10.5q4 7 8 13t11 12q13 12 27 12t18 -2q4 -1 9.5 -3.5t13.5 -6.5
q13 -9 23 -9q6 0 14 5q4 4 7 6.5t5 5.5q4 4 11 4t10 -2q4 -8 4 -11zM277 30q0 -13 -9 -22t-21 -9h-190q-12 0 -21 9t-9 23q0 11 9 22q9 10 21 10h41v475h-41q-12 0 -21 9t-9 23q0 12 9 21t21 9h190q12 0 21 -9t9 -21q0 -13 -9 -22t-21 -9h-42v-475h42q12 0 21 -10
q9 -11 9 -22v-2z" />
    <glyph glyph-name="itilde" unicode="&#x129;" horiz-adv-x="227" 
d="M162 38q0 -19 -15 -34t-35 -15q-19 0 -34 15t-15 35v329q0 21 15 36t35 15t35 -15t15 -36v-329zM200 513q0 -5 -5 -18q-4 -7 -8 -13t-12 -12q-7 -6 -12.5 -9t-13.5 -3q-11 0 -18 3q-4 1 -9.5 4t-12.5 7q-14 8 -23 8q-6 0 -15 -6q-8 -6 -11 -10q-5 -5 -11 -5q-4 0 -10 4
q-4 4 -4 9q0 4 2 8.5t4 10.5q4 7 8 13t11 12q13 12 27 12t18 -2q4 -1 9.5 -3.5t13.5 -6.5q13 -9 23 -9q6 0 14 5q4 4 7 6.5t5 5.5q4 4 11 4t10 -2q4 -8 4 -11z" />
    <glyph glyph-name="dotlessi" unicode="&#x131;" horiz-adv-x="227" 
d="M162 40q0 -19 -15 -34t-34 -15q-21 0 -36 15t-15 35v329q0 21 15 36t36 15q20 0 35 -15t15 -36v-329z" />
    <glyph glyph-name="OE" unicode="&#x152;" horiz-adv-x="845" 
d="M830 35q0 -14 -10 -24t-25 -10h-158q-113 0 -162 63q-34 -36 -79 -53q-47 -18 -99 -18q-54 0 -102 20q-46 19 -81 59q-34 39 -54 98q-19 57 -19 132t19 132q20 59 54 98q35 40 81 59q48 20 102 20q53 0 98 -18q44 -18 78 -53q14 17 37 33q23 15 59 25q34 9 72 9h135
q14 0 24 -10q11 -11 11 -24q0 -14 -10 -24t-24 -10h-122q-50 0 -78 -27t-28 -91v-74h190q15 0 24 -11t9 -24q0 -14 -10 -24t-24 -10h-190v-94q0 -64 29 -90q28 -25 80 -25h138q14 0 25 -11q10 -10 10 -24v1zM440 302q0 248 -143 248q-144 0 -144 -248t144 -248
q143 0 143 248z" />
    <glyph glyph-name="oe" unicode="&#x153;" horiz-adv-x="671" 
d="M646 295q0 -27 -10 -51q-11 -26 -37 -45q-28 -20 -66 -29q-20 -5 -38 -7t-35 -3q-9 0 -17 8t-8 15t5 15q4 7 18 9q102 10 102 93q0 17 -6 32q-6 16 -19 23t-27 7q-15 0 -37 -12t-40 -49q-18 -38 -18 -99q0 -52 15 -88t39 -54t47 -18q7 0 14.5 0.5t16.5 1.5q16 1 54 17
q11 4 22 1q10 -3 15 -12q5 -11 2 -22t-12 -16q-44 -24 -129 -24q-42 0 -78 15t-60 42q-50 -56 -136 -56q-84 0 -135 56q-51 55 -51 159q0 103 51 159t135 56q45 0 80 -16q37 -17 60 -46q27 29 68 46q38 16 80 16q34 0 64 -13q33 -14 50 -43q18 -30 18 -63zM310 199
q0 86 -22 123q-23 38 -64 38q-42 0 -64 -37t-22 -123t22 -123t64 -37q41 0 64 38q22 37 22 123v-2z" />
    <glyph glyph-name="Scaron" unicode="&#x160;" horiz-adv-x="447" 
d="M422 166q0 -29 -11 -60t-36 -56q-26 -26 -67 -42q-43 -17 -97 -17q-49 0 -88 6q-37 6 -76 26q-22 12 -21 34q2 14 10 24q9 10 25 10q13 0 40 -12t52 -15t51 -3q40 0 72 24t32 66q0 28 -16 45q-17 18 -36 30q-10 6 -22 12.5t-26 13.5t-22.5 11t-11.5 6q-48 23 -71 39
q-24 16 -40 37q-16 20 -25 46q-9 25 -9 56q0 70 56 117t143 47q44 0 89 -9q47 -9 71 -22q16 -9 16 -31q0 -14 -10 -24q-11 -11 -24 -11q-14 0 -54 15q-41 15 -75 15q-48 0 -76 -22t-28 -54q0 -27 15 -51t74 -54q29 -15 44.5 -22.5t17.5 -8.5q25 -13 44 -24t33 -22
q27 -21 42 -49q15 -29 15 -69v-2zM362 802q9 -14 -2 -28l-94 -113q-11 -15 -30 -15q-17 0 -30 15l-94 113q-10 13 -1 28q5 8 15 11t18 -3l93 -69l94 69q7 6 18 3q10 -3 16 -10z" />
    <glyph glyph-name="scaron" unicode="&#x161;" horiz-adv-x="347" 
d="M319 108q0 -41 -27 -69q-27 -29 -66 -39q-41 -11 -69 -11q-80 0 -126 23q-7 4 -12 17q-5 12 3 24q7 10 18 12q10 1 21 -3q22 -11 42 -15q22 -5 51 -5q18 0 39 8q19 7 28 21q9 13 9 27q0 16 -18 30q-20 15 -51 29q-35 16 -44 21q-50 28 -67 51q-16 22 -21 41q-4 16 -4 31
q0 50 42 83t110 33q12 0 44 -3q31 -3 63 -15q16 -7 22 -19q6 -13 2 -21q-5 -11 -15 -15q-11 -5 -24 0q-51 21 -82 21q-36 0 -55 -15t-19 -37q0 -14 15 -29q16 -16 54 -32q20 -8 31 -12.5t13 -6.5q62 -29 80 -57q18 -29 18 -63zM295 623q9 -14 -2 -28l-94 -113
q-11 -15 -30 -15q-17 0 -30 15l-94 113q-10 13 -1 28q5 8 15 11t18 -3l93 -69l94 69q7 6 18 3q10 -3 16 -10z" />
    <glyph glyph-name="Utilde" unicode="&#x168;" horiz-adv-x="607" 
d="M388 690q0 -5 -5 -18q-4 -7 -8 -13t-12 -12q-7 -6 -12.5 -9t-13.5 -3q-11 0 -18 3q-4 1 -9.5 4t-12.5 7q-14 8 -23 8q-6 0 -15 -6q-8 -6 -11 -10q-5 -5 -11 -5q-4 0 -10 4q-4 4 -4 9q0 4 2 8.5t4 10.5q4 7 8 13t11 12q13 12 27 12t18 -2q4 -1 9.5 -3.5t13.5 -6.5
q13 -9 23 -9q6 0 14 5q4 4 7 6.5t5 5.5q4 4 11 4t10 -2q4 -8 4 -11zM543 220q0 -46 -15 -88q-15 -41 -45 -73q-29 -30 -77 -49q-47 -18 -105 -18q-44 0 -87 12q-42 12 -82 44q-39 31 -57 78q-18 46 -18 93v337q0 21 16 37t39 16t39 -16t16 -37v-308q0 -101 34 -147
q35 -47 102 -47q135 0 135 195v308q0 21 16 37t37 16q23 0 39 -16t16 -37v-337h-3z" />
    <glyph glyph-name="utilde" unicode="&#x169;" horiz-adv-x="453" 
d="M311 513q0 -5 -5 -18q-4 -7 -8 -13t-12 -12q-7 -6 -12.5 -9t-13.5 -3q-11 0 -18 3q-4 1 -9.5 4t-12.5 7q-14 8 -23 8q-6 0 -15 -6q-8 -6 -11 -10q-5 -5 -11 -5q-4 0 -10 4q-4 4 -4 9q0 4 2 8.5t4 10.5q4 7 8 13t11 12q13 12 27 12t18 -2q4 -1 9.5 -3.5t13.5 -6.5
q13 -9 23 -9q6 0 14 5q4 4 7 6.5t5 5.5q4 4 11 4t10 -2q4 -8 4 -11zM399 159q0 -43 -21 -83q-21 -41 -63 -63q-41 -22 -93 -22q-32 0 -63 9q-32 9 -57 30q-26 21 -42 54q-16 32 -16 75v210q0 20 15 35t35 15q21 0 36 -15t15 -34v-183q0 -64 8 -91q7 -25 26 -39
q17 -13 46 -13q21 0 38 9t29 33t12 101v183q0 20 15 35t35 15t35 -15t15 -34v-210z" />
    <glyph glyph-name="Ydieresis" unicode="&#x178;" horiz-adv-x="470" 
d="M465 568q-31 -153 -122 -289q-18 -26 -31.5 -42.5t-21.5 -24.5v-167q0 -23 -16 -39t-39 -16q-21 0 -37 16t-16 39v166q-8 6 -21 21q-7 8 -18 22t-27 36q-14 19 -26 40t-23 44t-19.5 42.5t-14.5 36.5t-10.5 32.5t-8.5 30.5q-7 28 -7 41q0 25 17 39t36 14t34 -12
q14 -12 19 -30q36 -168 127 -275q6 -9 14 -9t15 10q86 112 124 288q3 12 14 20t24 8q16 0 27 -12q10 -12 7 -29v-1zM375 737q0 -21 -15 -36t-36 -15q-22 0 -37 15t-15 36t16 37t37 16t36 -16q15 -17 15 -37h-1zM198 737q0 -21 -15 -36t-37 -15q-21 0 -36 15t-15 36
q0 23 15 38t36 15t37 -16t16 -37h-1z" />
    <glyph glyph-name="Zcaron" unicode="&#x17d;" horiz-adv-x="474" 
d="M450 549q0 -23 -18 -51q-45 -69 -153 -216q-106 -145 -154 -217l289 3q14 2 24 -10q10 -11 10 -25t-9 -24q-9 -11 -24 -11l-355 1q-18 0 -34 15t-16 39q0 20 11 40q52 81 171 243q60 81 96.5 132t50.5 71q-78 1 -270 -3q-15 -2 -24 9q-9 10 -9 24q0 13 11 24q10 10 24 12
q47 2 90 2.5t85 -0.5q81 0 150 -3q27 -2 44 -16q18 -15 18 -39h-8zM354 804q9 -14 -2 -28l-94 -113q-11 -15 -30 -15q-17 0 -30 15l-94 113q-10 13 -1 28q5 8 15 11t18 -3l93 -69l94 69q7 6 18 3q10 -3 16 -10z" />
    <glyph glyph-name="zcaron" unicode="&#x17e;" horiz-adv-x="375" 
d="M363 26q0 -4 -3 -13t-11 -12t-15 -3h-284q-11 0 -24 9q-14 9 -18 28t8 37q38 52 121 151q42 51 70 84.5t42 51.5q-48 1 -97.5 0.5t-102.5 -2.5q-7 0 -16 3q-8 3 -13 14q-4 10 -1 21q3 9 11 16q7 5 18 7q166 4 273 0q13 0 27 -8t17 -26t-10 -37q-17 -24 -46 -60t-71 -85
q-83 -98 -117 -144q76 0 129 0.5t84 1.5q15 2 23 -9t8 -21zM311 624q9 -14 -2 -28l-94 -113q-11 -15 -30 -15q-17 0 -30 15l-94 113q-10 13 -1 28q5 8 15 11t18 -3l93 -69l94 69q7 6 18 3q10 -3 16 -10z" />
    <glyph glyph-name="florin" unicode="&#x192;" horiz-adv-x="295" 
d="M370 635q0 -19 -30 -23q-20 -4 -34.5 -7t-23.5 -6q-18 -6 -33 -18q-16 -13 -27 -28q-7 -9 -12 -23q-2 -7 -4 -13.5t-4 -13.5t-2.5 -12.5t-1.5 -10.5t-1.5 -8.5t-0.5 -6.5q0 -8 -1 -12t-1 -7l-4 -32q1 -4 4 -4h59q11 0 20 -9t9 -21q0 -11 -9 -20t-20 -9h-67q-5 -2 -5 -5
l-66 -449q-3 -24 -18 -36t-31 -12q-15 0 -28 9q-14 9 -18 22t-3 25l65 441q0 5 -4 5h-36q-11 0 -20 9t-9 20q0 12 9 21t20 9h44q4 0 5 4l8 66q5 29 18 62q14 34 33 53q30 30 77 47q48 17 87 17q31 0 45 -6q13 -6 13 -19z" />
    <glyph glyph-name="Ohorn" unicode="&#x1a0;" horiz-adv-x="594" 
d="M552 298q0 -75 -19 -132q-20 -59 -54 -98q-34 -38 -81 -58q-45 -19 -102 -19q-54 0 -102 20q-46 19 -81 59q-34 39 -54 98q-19 57 -19 132t19 132q20 59 54 98q35 40 81 59q48 20 102 20q52 0 101 -20q26 -5 43.5 3t10.5 21q-4 8 -8 8q-11 4 -12.5 12.5t2.5 16.5t13 12.5
t19 1.5q23 -7 33 -24t8.5 -36t-13 -35t-32.5 -20l9.5 -9.5l9.5 -9.5q35 -39 54 -97q19 -57 19 -132zM439 298q0 248 -143 248q-144 0 -144 -248q0 -247 144 -247q143 0 143 247z" />
    <glyph glyph-name="ohorn" unicode="&#x1a1;" horiz-adv-x="442" 
d="M407 204q0 -104 -51 -159t-135 -55t-135 56q-51 55 -51 159q0 103 51 159t135 56q47 0 82 -16q9 -2 18 -1t15.5 4t9.5 8.5t-1 11.5q-4 8 -8 8q-11 4 -12.5 12.5t2.5 16.5t13 12.5t19 1.5q22 -7 32.5 -24t9.5 -35.5t-12.5 -34.5t-31.5 -21q50 -56 50 -157v-2zM285 81
q22 35 22 121t-22 123q-23 38 -64 38q-42 0 -64 -37t-22 -123t22 -123t64 -37q41 0 64 38z" />
    <glyph glyph-name="Uhorn" unicode="&#x1af;" horiz-adv-x="607" 
d="M543 220q0 -46 -15 -88q-15 -41 -45 -73q-29 -30 -77 -49q-47 -18 -105 -18q-44 0 -87 12q-42 12 -82 44q-39 31 -57 78q-18 46 -18 93v337q0 21 16 37t39 16t39 -16t16 -37v-308q0 -101 34 -147q35 -47 102 -47q135 0 135 195v308q0 21 16 37t37 16q23 0 39 -16
q1 -2 2 -2.5t2 -1.5q11 2 16.5 8.5t0.5 14.5q-4 8 -8 8q-11 4 -12.5 12.5t2.5 16.5t13 12.5t19 1.5q24 -7 34 -25t8 -37t-15 -35t-35 -19q-8 -4 -11 -4v-324h-3z" />
    <glyph glyph-name="uhorn" unicode="&#x1b0;" horiz-adv-x="453" 
d="M399 159q0 -43 -21 -83q-21 -41 -63 -63q-41 -22 -93 -22q-32 0 -63 9q-32 9 -57 30q-26 21 -42 54q-16 32 -16 75v210q0 20 15 35t35 15q21 0 36 -15t15 -34v-183q0 -64 8 -91q7 -25 26 -39q17 -13 46 -13q21 0 38 9t29 33t12 101v183q0 20 15 35t35 15t35 -15
q9 2 14.5 8t0.5 14q-4 8 -8 8q-11 4 -12.5 12.5t2.5 16.5t13 12.5t19 1.5q24 -7 34 -25t8 -37t-15 -35t-35 -19q-2 -1 -3 -2t-3 -1v-198z" />
    <glyph glyph-name="circumflex" unicode="&#x2c6;" horiz-adv-x="309" 
d="M285 499q-6 -7 -16 -10q-11 -3 -18 3l-94 69l-93 -69q-8 -6 -18 -3t-15 11q-9 15 1 28l94 113q13 15 30 15q19 0 30 -15l94 -113q11 -14 2 -28z" />
    <glyph glyph-name="tilde" unicode="&#x2dc;" horiz-adv-x="337" 
d="M315 606q0 -12 -10 -33q-10 -22 -35 -45q-23 -22 -49 -22q-15 0 -32 5q-8 2 -17.5 7t-22.5 13q-26 15 -42 15q-13 0 -26 -10q-15 -11 -21 -19q-7 -10 -20 -10q-10 0 -18 8q-7 7 -7 18q0 9 11 33q10 22 35 45t50 23q15 0 32 -5q16 -5 40 -19q25 -15 42 -15q13 0 26 10
q15 11 21 19q7 10 20 10q11 0 18 -7q8 -8 8 -18z" />
    <glyph glyph-name="uni1EA0" unicode="&#x1ea0;" horiz-adv-x="547" 
d="M294 -107q0 -17 -12 -29t-31 -12q-17 0 -29 13q-12 12 -12 30q0 17 12 29q12 13 29 13q20 0 31 -12q12 -12 12 -29v-3zM521 58q1 -14 -3 -30q-5 -17 -19 -27t-30 -10q-20 0 -36 12t-19 36q-8 55 -18 102q-2 4 -6 15q-5 11 -27 17q-46 11 -108 11t-108 -12q-14 -3 -21 -9
t-12 -23q-11 -55 -18 -121q-5 -29 -36 -29q-14 0 -25 11q-10 10 -7 29q8 57 20.5 113.5t29.5 115.5q33 117 81 213q68 137 121 137q47 0 115 -135q23 -46 42.5 -94.5t34.5 -100.5q31 -106 47 -221h2zM378 233q-9 30 -20.5 60.5t-25.5 62.5t-28.5 61.5t-29.5 57.5q-3 7 -9 11
q-7 5 -10 5q-11 0 -18 -16q-58 -110 -96 -242q44 14 118 14q28 0 63 -3q34 -3 54 -9z" />
    <glyph glyph-name="uni1EA1" unicode="&#x1ea1;" 
d="M238 -107q0 -17 -12 -29t-31 -12q-17 0 -29 13q-12 12 -12 30q0 17 12 29q12 13 29 13q20 0 31 -12q12 -12 12 -29v-3zM362 190q0 -107 -46 -153q-47 -47 -136 -47q-23 0 -52 8q-27 7 -51 27q-24 19 -36 48q-12 28 -12 53q0 43 23 75t66 50q44 18 100 14q9 -2 16 -7
q7 -6 7 -14t-7 -15q-8 -8 -16 -9q-98 -12 -98 -95q0 -20 9 -41t25 -30t33 -9q37 0 57 36q20 37 20 122q0 71 -10 100q-11 30 -30 45q-20 15 -53 15q-21 0 -52 -10t-36 -10q-20 0 -27 18q-3 10 1 20q5 11 16 17q24 11 59 17q36 6 67 6q41 0 77 -13q38 -14 63 -58t25 -157z
" />
    <glyph glyph-name="uni1EA2" unicode="&#x1ea2;" horiz-adv-x="547" 
d="M351 720q0 -14 -6 -23q-4 -5 -9.5 -10.5t-13.5 -10.5q-2 -1 -3.5 -2t-3.5 -2h1q-6 -4 -6 -6l-4 -3v-5q0 -1 -0.5 -1t-0.5 -2q0 -8 -5 -14q-7 -5 -12 -5q-7 0 -11 3q-8 8 -8 16v3q0 8 1 12q2 6 3 9.5t3 6.5v-1l2 4v-1q0 1 1 1.5t1 1.5l13 13q5 5 7 9q2 3 2 8q0 7 -1 10v-1
l-8 5q-2 1 -5 1h-4h-6h-5q-2 -1 -5 -1h-5q-7 0 -8 1q-9 8 -9 15q0 11 13 14h-1q5 4 25 4q33 0 50 -11q18 -12 18 -38zM521 58q1 -14 -3 -30q-5 -17 -19 -27t-30 -10q-20 0 -36 12t-19 36q-8 55 -18 102q-2 4 -6 15q-5 11 -27 17q-46 11 -108 11t-108 -12q-14 -3 -21 -9
t-12 -23q-11 -55 -18 -121q-5 -29 -36 -29q-14 0 -25 11q-10 10 -7 29q8 57 20.5 113.5t29.5 115.5q33 117 81 213q68 137 121 137q47 0 115 -135q23 -46 42.5 -94.5t34.5 -100.5q31 -106 47 -221h2zM378 233q-9 30 -20.5 60.5t-25.5 62.5t-28.5 61.5t-29.5 57.5q-3 7 -9 11
q-7 5 -10 5q-11 0 -18 -16q-58 -110 -96 -242q44 14 118 14q28 0 63 -3q34 -3 54 -9z" />
    <glyph glyph-name="uni1EA3" unicode="&#x1ea3;" 
d="M281 542q0 -14 -6 -23q-4 -5 -9.5 -10.5t-13.5 -10.5q-2 -1 -3.5 -2t-3.5 -2h1q-6 -4 -6 -6l-4 -3v-5q0 -1 -0.5 -1t-0.5 -2q0 -8 -5 -14q-7 -5 -12 -5q-7 0 -11 3q-8 8 -8 16v3q0 8 1 12q2 6 3 9.5t3 6.5v-1l2 4v-1q0 1 1 1.5t1 1.5l13 13q5 5 7 9q2 3 2 8q0 7 -1 10v-1
l-8 5q-2 1 -5 1h-4h-6h-5q-2 -1 -5 -1h-5q-7 0 -8 1q-9 8 -9 15q0 11 13 14h-1q5 4 25 4q33 0 50 -11q18 -12 18 -38zM362 190q0 -107 -46 -153q-47 -47 -136 -47q-23 0 -52 8q-27 7 -51 27q-24 19 -36 48q-12 28 -12 53q0 43 23 75t66 50q44 18 100 14q9 -2 16 -7
q7 -6 7 -14t-7 -15q-8 -8 -16 -9q-98 -12 -98 -95q0 -20 9 -41t25 -30t33 -9q37 0 57 36q20 37 20 122q0 71 -10 100q-11 30 -30 45q-20 15 -53 15q-21 0 -52 -10t-36 -10q-20 0 -27 18q-3 10 1 20q5 11 16 17q24 11 59 17q36 6 67 6q41 0 77 -13q38 -14 63 -58t25 -157z
" />
    <glyph glyph-name="uni1EA4" unicode="&#x1ea4;" horiz-adv-x="547" 
d="M339 727q-6 9 1 18l63 77l5 4q9 7 21 4q10 -3 18 -12q6 -8 4 -19q-3 -12 -12 -18l-77 -58q-7 -3 -12 -2q-7 3 -10 7zM521 58q1 -14 -3 -30q-5 -17 -19 -27t-30 -10q-20 0 -36 12t-19 36q-8 55 -18 102q-2 4 -6 15q-5 11 -27 17q-46 11 -108 11t-108 -12q-14 -3 -21 -9
t-12 -23q-11 -55 -18 -121q-5 -29 -36 -29q-14 0 -25 11q-10 10 -7 29q8 57 20.5 113.5t29.5 115.5q33 117 81 213q68 137 121 137q47 0 115 -135q23 -46 42.5 -94.5t34.5 -100.5q31 -106 47 -221h2zM378 233q-9 30 -20.5 60.5t-25.5 62.5t-28.5 61.5t-29.5 57.5q-3 7 -9 11
q-7 5 -10 5q-11 0 -18 -16q-58 -110 -96 -242q44 14 118 14q28 0 63 -3q34 -3 54 -9zM361 643q-2 -3 -4.5 -4t-5.5 -3q-7 -1 -12 2l-62 46l-63 -46q-5 -3 -11 -2q-8 4 -10 7q-6 10 0 19l63 75q9 10 20 10q13 0 20 -10l62 -75q6 -10 1 -19h2z" />
    <glyph glyph-name="uni1EA5" unicode="&#x1ea5;" 
d="M273 549q-6 9 1 18l63 77l5 4q9 7 21 4q10 -3 18 -12q6 -8 4 -19q-3 -12 -12 -18l-77 -58q-7 -3 -12 -2q-7 3 -10 7zM362 190q0 -107 -46 -153q-47 -47 -136 -47q-23 0 -52 8q-27 7 -51 27q-24 19 -36 48q-12 28 -12 53q0 43 23 75t66 50q44 18 100 14q9 -2 16 -7
q7 -6 7 -14t-7 -15q-8 -8 -16 -9q-98 -12 -98 -95q0 -20 9 -41t25 -30t33 -9q37 0 57 36q20 37 20 122q0 71 -10 100q-11 30 -30 45q-20 15 -53 15q-21 0 -52 -10t-36 -10q-20 0 -27 18q-3 10 1 20q5 11 16 17q24 11 59 17q36 6 67 6q41 0 77 -13q38 -14 63 -58t25 -157z
M295 465q-2 -3 -4.5 -4t-5.5 -3q-7 -1 -12 2l-62 46l-63 -46q-5 -3 -11 -2q-8 4 -10 7q-6 10 0 19l63 75q9 10 20 10q13 0 20 -10l62 -75q6 -10 1 -19h2z" />
    <glyph glyph-name="uni1EA6" unicode="&#x1ea6;" horiz-adv-x="547" 
d="M391 728q-3 -4 -10 -7q-5 -1 -12 2l-77 58q-9 6 -12 18q-2 11 4 19q7 9 18 12q12 3 21 -4l5 -4l63 -77q7 -9 1 -18zM521 58q1 -14 -3 -30q-5 -17 -19 -27t-30 -10q-20 0 -36 12t-19 36q-8 55 -18 102q-2 4 -6 15q-5 11 -27 17q-46 11 -108 11t-108 -12q-14 -3 -21 -9
t-12 -23q-11 -55 -18 -121q-5 -29 -36 -29q-14 0 -25 11q-10 10 -7 29q8 57 20.5 113.5t29.5 115.5q33 117 81 213q68 137 121 137q47 0 115 -135q23 -46 42.5 -94.5t34.5 -100.5q31 -106 47 -221h2zM378 233q-9 30 -20.5 60.5t-25.5 62.5t-28.5 61.5t-29.5 57.5q-3 7 -9 11
q-7 5 -10 5q-11 0 -18 -16q-58 -110 -96 -242q44 14 118 14q28 0 63 -3q34 -3 54 -9zM361 643q-2 -3 -4.5 -4t-5.5 -3q-7 -1 -12 2l-62 46l-63 -46q-5 -3 -11 -2q-8 4 -10 7q-6 10 0 19l63 75q9 10 20 10q13 0 20 -10l62 -75q6 -10 1 -19h2z" />
    <glyph glyph-name="uni1EA7" unicode="&#x1ea7;" 
d="M325 550q-3 -4 -10 -7q-5 -1 -12 2l-77 58q-9 6 -12 18q-2 11 4 19q7 9 18 12q12 3 21 -4l5 -4l63 -77q7 -9 1 -18zM362 190q0 -107 -46 -153q-47 -47 -136 -47q-23 0 -52 8q-27 7 -51 27q-24 19 -36 48q-12 28 -12 53q0 43 23 75t66 50q44 18 100 14q9 -2 16 -7
q7 -6 7 -14t-7 -15q-8 -8 -16 -9q-98 -12 -98 -95q0 -20 9 -41t25 -30t33 -9q37 0 57 36q20 37 20 122q0 71 -10 100q-11 30 -30 45q-20 15 -53 15q-21 0 -52 -10t-36 -10q-20 0 -27 18q-3 10 1 20q5 11 16 17q24 11 59 17q36 6 67 6q41 0 77 -13q38 -14 63 -58t25 -157z
M295 465q-2 -3 -4.5 -4t-5.5 -3q-7 -1 -12 2l-62 46l-63 -46q-5 -3 -11 -2q-8 4 -10 7q-6 10 0 19l63 75q9 10 20 10q13 0 20 -10l62 -75q6 -10 1 -19h2z" />
    <glyph glyph-name="uni1EA8" unicode="&#x1ea8;" horiz-adv-x="547" 
d="M417 801q0 -14 -6 -23q-4 -5 -9.5 -10.5t-13.5 -10.5q-2 -1 -3.5 -2t-3.5 -2h1q-6 -4 -6 -6l-4 -3v-5q0 -1 -0.5 -1t-0.5 -2q0 -8 -5 -14q-7 -5 -12 -5q-7 0 -11 3q-8 8 -8 16v3q0 8 1 12q2 6 3 9.5t3 6.5v-1l2 4v-1q0 1 1 1.5t1 1.5l13 13q5 5 7 9q2 3 2 8q0 7 -1 10v-1
l-8 5q-2 1 -5 1h-4h-6h-5q-2 -1 -5 -1h-5q-7 0 -8 1q-9 8 -9 15q0 11 13 14h-1q5 4 25 4q33 0 50 -11q18 -12 18 -38zM521 58q1 -14 -3 -30q-5 -17 -19 -27t-30 -10q-20 0 -36 12t-19 36q-8 55 -18 102q-2 4 -6 15q-5 11 -27 17q-46 11 -108 11t-108 -12q-14 -3 -21 -9
t-12 -23q-11 -55 -18 -121q-5 -29 -36 -29q-14 0 -25 11q-10 10 -7 29q8 57 20.5 113.5t29.5 115.5q33 117 81 213q68 137 121 137q47 0 115 -135q23 -46 42.5 -94.5t34.5 -100.5q31 -106 47 -221h2zM378 233q-9 30 -20.5 60.5t-25.5 62.5t-28.5 61.5t-29.5 57.5q-3 7 -9 11
q-7 5 -10 5q-11 0 -18 -16q-58 -110 -96 -242q44 14 118 14q28 0 63 -3q34 -3 54 -9zM361 643q-2 -3 -4.5 -4t-5.5 -3q-7 -1 -12 2l-62 46l-63 -46q-5 -3 -11 -2q-8 4 -10 7q-6 10 0 19l63 75q9 10 20 10q13 0 20 -10l62 -75q6 -10 1 -19h2z" />
    <glyph glyph-name="uni1EA9" unicode="&#x1ea9;" 
d="M351 623q0 -14 -6 -23q-4 -5 -9.5 -10.5t-13.5 -10.5q-2 -1 -3.5 -2t-3.5 -2h1q-6 -4 -6 -6l-4 -3v-5q0 -1 -0.5 -1t-0.5 -2q0 -8 -5 -14q-7 -5 -12 -5q-7 0 -11 3q-8 8 -8 16v3q0 8 1 12q2 6 3 9.5t3 6.5v-1l2 4v-1q0 1 1 1.5t1 1.5l13 13q5 5 7 9q2 3 2 8q0 7 -1 10v-1
l-8 5q-2 1 -5 1h-4h-6h-5q-2 -1 -5 -1h-5q-7 0 -8 1q-9 8 -9 15q0 11 13 14h-1q5 4 25 4q33 0 50 -11q18 -12 18 -38zM362 190q0 -107 -46 -153q-47 -47 -136 -47q-23 0 -52 8q-27 7 -51 27q-24 19 -36 48q-12 28 -12 53q0 43 23 75t66 50q44 18 100 14q9 -2 16 -7
q7 -6 7 -14t-7 -15q-8 -8 -16 -9q-98 -12 -98 -95q0 -20 9 -41t25 -30t33 -9q37 0 57 36q20 37 20 122q0 71 -10 100q-11 30 -30 45q-20 15 -53 15q-21 0 -52 -10t-36 -10q-20 0 -27 18q-3 10 1 20q5 11 16 17q24 11 59 17q36 6 67 6q41 0 77 -13q38 -14 63 -58t25 -157z
M295 465q-2 -3 -4.5 -4t-5.5 -3q-7 -1 -12 2l-62 46l-63 -46q-5 -3 -11 -2q-8 4 -10 7q-6 10 0 19l63 75q9 10 20 10q13 0 20 -10l62 -75q6 -10 1 -19h2z" />
    <glyph glyph-name="uni1EAA" unicode="&#x1eaa;" horiz-adv-x="547" 
d="M362 818q0 -5 -5 -18q-4 -7 -8 -13t-12 -12q-7 -6 -12.5 -9t-13.5 -3q-11 0 -18 3q-4 1 -9.5 4t-12.5 7q-14 8 -23 8q-6 0 -15 -6q-8 -6 -11 -10q-5 -5 -11 -5q-4 0 -10 4q-4 4 -4 9q0 4 2 8.5t4 10.5q4 7 8 13t11 12q13 12 27 12t18 -2q4 -1 9.5 -3.5t13.5 -6.5
q13 -9 23 -9q6 0 14 5q4 4 7 6.5t5 5.5q4 4 11 4t10 -2q4 -8 4 -11zM521 58q1 -14 -3 -30q-5 -17 -19 -27t-30 -10q-20 0 -36 12t-19 36q-8 55 -18 102q-2 4 -6 15q-5 11 -27 17q-46 11 -108 11t-108 -12q-14 -3 -21 -9t-12 -23q-11 -55 -18 -121q-5 -29 -36 -29
q-14 0 -25 11q-10 10 -7 29q8 57 20.5 113.5t29.5 115.5q33 117 81 213q68 137 121 137q47 0 115 -135q23 -46 42.5 -94.5t34.5 -100.5q31 -106 47 -221h2zM378 233q-9 30 -20.5 60.5t-25.5 62.5t-28.5 61.5t-29.5 57.5q-3 7 -9 11q-7 5 -10 5q-11 0 -18 -16
q-58 -110 -96 -242q44 14 118 14q28 0 63 -3q34 -3 54 -9zM361 643q-2 -3 -4.5 -4t-5.5 -3q-7 -1 -12 2l-62 46l-63 -46q-5 -3 -11 -2q-8 4 -10 7q-6 10 0 19l63 75q9 10 20 10q13 0 20 -10l62 -75q6 -10 1 -19h2z" />
    <glyph glyph-name="uni1EAB" unicode="&#x1eab;" 
d="M296 640q0 -5 -5 -18q-4 -7 -8 -13t-12 -12q-7 -6 -12.5 -9t-13.5 -3q-11 0 -18 3q-4 1 -9.5 4t-12.5 7q-14 8 -23 8q-6 0 -15 -6q-8 -6 -11 -10q-5 -5 -11 -5q-4 0 -10 4q-4 4 -4 9q0 4 2 8.5t4 10.5q4 7 8 13t11 12q13 12 27 12t18 -2q4 -1 9.5 -3.5t13.5 -6.5
q13 -9 23 -9q6 0 14 5q4 4 7 6.5t5 5.5q4 4 11 4t10 -2q4 -8 4 -11zM362 190q0 -107 -46 -153q-47 -47 -136 -47q-23 0 -52 8q-27 7 -51 27q-24 19 -36 48q-12 28 -12 53q0 43 23 75t66 50q44 18 100 14q9 -2 16 -7q7 -6 7 -14t-7 -15q-8 -8 -16 -9q-98 -12 -98 -95
q0 -20 9 -41t25 -30t33 -9q37 0 57 36q20 37 20 122q0 71 -10 100q-11 30 -30 45q-20 15 -53 15q-21 0 -52 -10t-36 -10q-20 0 -27 18q-3 10 1 20q5 11 16 17q24 11 59 17q36 6 67 6q41 0 77 -13q38 -14 63 -58t25 -157zM295 465q-2 -3 -4.5 -4t-5.5 -3q-7 -1 -12 2l-62 46
l-63 -46q-5 -3 -11 -2q-8 4 -10 7q-6 10 0 19l63 75q9 10 20 10q13 0 20 -10l62 -75q6 -10 1 -19h2z" />
    <glyph glyph-name="uni1EAC" unicode="&#x1eac;" horiz-adv-x="547" 
d="M294 -107q0 -17 -12 -29t-31 -12q-17 0 -29 13q-12 12 -12 30q0 17 12 29q12 13 29 13q20 0 31 -12q12 -12 12 -29v-3zM521 58q1 -14 -3 -30q-5 -17 -19 -27t-30 -10q-20 0 -36 12t-19 36q-8 55 -18 102q-2 4 -6 15q-5 11 -27 17q-46 11 -108 11t-108 -12q-14 -3 -21 -9
t-12 -23q-11 -55 -18 -121q-5 -29 -36 -29q-14 0 -25 11q-10 10 -7 29q8 57 20.5 113.5t29.5 115.5q33 117 81 213q68 137 121 137q47 0 115 -135q23 -46 42.5 -94.5t34.5 -100.5q31 -106 47 -221h2zM378 233q-9 30 -20.5 60.5t-25.5 62.5t-28.5 61.5t-29.5 57.5q-3 7 -9 11
q-7 5 -10 5q-11 0 -18 -16q-58 -110 -96 -242q44 14 118 14q28 0 63 -3q34 -3 54 -9zM361 643q-2 -3 -4.5 -4t-5.5 -3q-7 -1 -12 2l-62 46l-63 -46q-5 -3 -11 -2q-8 4 -10 7q-6 10 0 19l63 75q9 10 20 10q13 0 20 -10l62 -75q6 -10 1 -19h2z" />
    <glyph glyph-name="uni1EAD" unicode="&#x1ead;" 
d="M238 -107q0 -17 -12 -29t-31 -12q-17 0 -29 13q-12 12 -12 30q0 17 12 29q12 13 29 13q20 0 31 -12q12 -12 12 -29v-3zM362 190q0 -107 -46 -153q-47 -47 -136 -47q-23 0 -52 8q-27 7 -51 27q-24 19 -36 48q-12 28 -12 53q0 43 23 75t66 50q44 18 100 14q9 -2 16 -7
q7 -6 7 -14t-7 -15q-8 -8 -16 -9q-98 -12 -98 -95q0 -20 9 -41t25 -30t33 -9q37 0 57 36q20 37 20 122q0 71 -10 100q-11 30 -30 45q-20 15 -53 15q-21 0 -52 -10t-36 -10q-20 0 -27 18q-3 10 1 20q5 11 16 17q24 11 59 17q36 6 67 6q41 0 77 -13q38 -14 63 -58t25 -157z
M295 465q-2 -3 -4.5 -4t-5.5 -3q-7 -1 -12 2l-62 46l-63 -46q-5 -3 -11 -2q-8 4 -10 7q-6 10 0 19l63 75q9 10 20 10q13 0 20 -10l62 -75q6 -10 1 -19h2z" />
    <glyph glyph-name="uni1EAE" unicode="&#x1eae;" horiz-adv-x="547" 
d="M270 742q-6 9 1 18l63 77l5 4q9 7 21 4q10 -3 18 -12q6 -8 4 -19q-3 -12 -12 -18l-77 -58q-7 -3 -12 -2q-7 3 -10 7zM346 723q2 5 5.5 5.5t5.5 0.5q9 0 11 -6.5t2 -13.5q0 -11 -4.5 -23.5t-14.5 -23.5t-26 -18.5t-40 -7.5q-22 0 -37.5 7t-26 17.5t-15.5 23.5t-5 25
q0 6 1.5 13t12.5 7q5 0 10 -5q1 -4 4 -10t9.5 -12t17.5 -10.5t29 -4.5t29.5 4t18 10t9.5 12t4 10zM357 729q2 0 2.5 0.5t-2.5 -0.5zM521 58q1 -14 -3 -30q-5 -17 -19 -27t-30 -10q-20 0 -36 12t-19 36q-8 55 -18 102q-2 4 -6 15q-5 11 -27 17q-46 11 -108 11t-108 -12
q-14 -3 -21 -9t-12 -23q-11 -55 -18 -121q-5 -29 -36 -29q-14 0 -25 11q-10 10 -7 29q8 57 20.5 113.5t29.5 115.5q33 117 81 213q68 137 121 137q47 0 115 -135q23 -46 42.5 -94.5t34.5 -100.5q31 -106 47 -221h2zM378 233q-9 30 -20.5 60.5t-25.5 62.5t-28.5 61.5
t-29.5 57.5q-3 7 -9 11q-7 5 -10 5q-11 0 -18 -16q-58 -110 -96 -242q44 14 118 14q28 0 63 -3q34 -3 54 -9z" />
    <glyph glyph-name="uni1EAF" unicode="&#x1eaf;" 
d="M198 564q-6 9 1 18l63 77l5 4q9 7 21 4q10 -3 18 -12q6 -8 4 -19q-3 -12 -12 -18l-77 -58q-7 -3 -12 -2q-7 3 -10 7zM285 551q2 0 2.5 0.5t-2.5 -0.5zM274 545q2 5 5.5 5.5t5.5 0.5q9 0 11 -6.5t2 -13.5q0 -11 -4.5 -23.5t-14.5 -23.5t-26 -18.5t-40 -7.5q-22 0 -37.5 7
t-26 17.5t-15.5 23.5t-5 25q0 6 1.5 13t12.5 7q5 0 10 -5q1 -4 4 -10t9.5 -12t17.5 -10.5t29 -4.5t29.5 4t18 10t9.5 12t4 10zM285 551q2 0 2.5 0.5t-2.5 -0.5zM362 190q0 -107 -46 -153q-47 -47 -136 -47q-23 0 -52 8q-27 7 -51 27q-24 19 -36 48q-12 28 -12 53q0 43 23 75
t66 50q44 18 100 14q9 -2 16 -7q7 -6 7 -14t-7 -15q-8 -8 -16 -9q-98 -12 -98 -95q0 -20 9 -41t25 -30t33 -9q37 0 57 36q20 37 20 122q0 71 -10 100q-11 30 -30 45q-20 15 -53 15q-21 0 -52 -10t-36 -10q-20 0 -27 18q-3 10 1 20q5 11 16 17q24 11 59 17q36 6 67 6
q41 0 77 -13q38 -14 63 -58t25 -157z" />
    <glyph glyph-name="uni1EB0" unicode="&#x1eb0;" horiz-adv-x="547" 
d="M314 743q-3 -4 -10 -7q-5 -1 -12 2l-77 58q-9 6 -12 18q-2 11 4 19q7 9 18 12q12 3 21 -4l5 -4l63 -77q7 -9 1 -18zM346 723q2 5 5.5 5.5t5.5 0.5q9 0 11 -6.5t2 -13.5q0 -11 -4.5 -23.5t-14.5 -23.5t-26 -18.5t-40 -7.5q-22 0 -37.5 7t-26 17.5t-15.5 23.5t-5 25
q0 6 1.5 13t12.5 7q5 0 10 -5q1 -4 4 -10t9.5 -12t17.5 -10.5t29 -4.5t29.5 4t18 10t9.5 12t4 10zM357 729q2 0 2.5 0.5t-2.5 -0.5zM521 58q1 -14 -3 -30q-5 -17 -19 -27t-30 -10q-20 0 -36 12t-19 36q-8 55 -18 102q-2 4 -6 15q-5 11 -27 17q-46 11 -108 11t-108 -12
q-14 -3 -21 -9t-12 -23q-11 -55 -18 -121q-5 -29 -36 -29q-14 0 -25 11q-10 10 -7 29q8 57 20.5 113.5t29.5 115.5q33 117 81 213q68 137 121 137q47 0 115 -135q23 -46 42.5 -94.5t34.5 -100.5q31 -106 47 -221h2zM378 233q-9 30 -20.5 60.5t-25.5 62.5t-28.5 61.5
t-29.5 57.5q-3 7 -9 11q-7 5 -10 5q-11 0 -18 -16q-58 -110 -96 -242q44 14 118 14q28 0 63 -3q34 -3 54 -9z" />
    <glyph glyph-name="uni1EB1" unicode="&#x1eb1;" 
d="M242 565q-3 -4 -10 -7q-5 -1 -12 2l-77 58q-9 6 -12 18q-2 11 4 19q7 9 18 12q12 3 21 -4l5 -4l63 -77q7 -9 1 -18zM285 551q2 0 2.5 0.5t-2.5 -0.5zM274 545q2 5 5.5 5.5t5.5 0.5q9 0 11 -6.5t2 -13.5q0 -11 -4.5 -23.5t-14.5 -23.5t-26 -18.5t-40 -7.5q-22 0 -37.5 7
t-26 17.5t-15.5 23.5t-5 25q0 6 1.5 13t12.5 7q5 0 10 -5q1 -4 4 -10t9.5 -12t17.5 -10.5t29 -4.5t29.5 4t18 10t9.5 12t4 10zM285 551q2 0 2.5 0.5t-2.5 -0.5zM362 190q0 -107 -46 -153q-47 -47 -136 -47q-23 0 -52 8q-27 7 -51 27q-24 19 -36 48q-12 28 -12 53q0 43 23 75
t66 50q44 18 100 14q9 -2 16 -7q7 -6 7 -14t-7 -15q-8 -8 -16 -9q-98 -12 -98 -95q0 -20 9 -41t25 -30t33 -9q37 0 57 36q20 37 20 122q0 71 -10 100q-11 30 -30 45q-20 15 -53 15q-21 0 -52 -10t-36 -10q-20 0 -27 18q-3 10 1 20q5 11 16 17q24 11 59 17q36 6 67 6
q41 0 77 -13q38 -14 63 -58t25 -157z" />
    <glyph glyph-name="uni1EB2" unicode="&#x1eb2;" horiz-adv-x="547" 
d="M353 819q0 -14 -6 -23q-4 -5 -9.5 -10.5t-13.5 -10.5q-2 -1 -3.5 -2t-3.5 -2h1q-6 -4 -6 -6l-4 -3v-5q0 -1 -0.5 -1t-0.5 -2q0 -8 -5 -14q-7 -5 -12 -5q-7 0 -11 3q-8 8 -8 16v3q0 8 1 12q2 6 3 9.5t3 6.5v-1l2 4v-1q0 1 1 1.5t1 1.5l13 13q5 5 7 9q2 3 2 8q0 7 -1 10v-1
l-8 5q-2 1 -5 1h-4h-6h-5q-2 -1 -5 -1h-5q-7 0 -8 1q-9 8 -9 15q0 11 13 14h-1q5 4 25 4q33 0 50 -11q18 -12 18 -38zM346 723q2 5 5.5 5.5t5.5 0.5q9 0 11 -6.5t2 -13.5q0 -11 -4.5 -23.5t-14.5 -23.5t-26 -18.5t-40 -7.5q-22 0 -37.5 7t-26 17.5t-15.5 23.5t-5 25
q0 6 1.5 13t12.5 7q5 0 10 -5q1 -4 4 -10t9.5 -12t17.5 -10.5t29 -4.5t29.5 4t18 10t9.5 12t4 10zM357 729q2 0 2.5 0.5t-2.5 -0.5zM521 58q1 -14 -3 -30q-5 -17 -19 -27t-30 -10q-20 0 -36 12t-19 36q-8 55 -18 102q-2 4 -6 15q-5 11 -27 17q-46 11 -108 11t-108 -12
q-14 -3 -21 -9t-12 -23q-11 -55 -18 -121q-5 -29 -36 -29q-14 0 -25 11q-10 10 -7 29q8 57 20.5 113.5t29.5 115.5q33 117 81 213q68 137 121 137q47 0 115 -135q23 -46 42.5 -94.5t34.5 -100.5q31 -106 47 -221h2zM378 233q-9 30 -20.5 60.5t-25.5 62.5t-28.5 61.5
t-29.5 57.5q-3 7 -9 11q-7 5 -10 5q-11 0 -18 -16q-58 -110 -96 -242q44 14 118 14q28 0 63 -3q34 -3 54 -9z" />
    <glyph glyph-name="uni1EB3" unicode="&#x1eb3;" 
d="M281 641q0 -14 -6 -23q-4 -5 -9.5 -10.5t-13.5 -10.5q-2 -1 -3.5 -2t-3.5 -2h1q-6 -4 -6 -6l-4 -3v-5q0 -1 -0.5 -1t-0.5 -2q0 -8 -5 -14q-7 -5 -12 -5q-7 0 -11 3q-8 8 -8 16v3q0 8 1 12q2 6 3 9.5t3 6.5v-1l2 4v-1q0 1 1 1.5t1 1.5l13 13q5 5 7 9q2 3 2 8q0 7 -1 10v-1
l-8 5q-2 1 -5 1h-4h-6h-5q-2 -1 -5 -1h-5q-7 0 -8 1q-9 8 -9 15q0 11 13 14h-1q5 4 25 4q33 0 50 -11q18 -12 18 -38zM285 551q2 0 2.5 0.5t-2.5 -0.5zM274 545q2 5 5.5 5.5t5.5 0.5q9 0 11 -6.5t2 -13.5q0 -11 -4.5 -23.5t-14.5 -23.5t-26 -18.5t-40 -7.5q-22 0 -37.5 7
t-26 17.5t-15.5 23.5t-5 25q0 6 1.5 13t12.5 7q5 0 10 -5q1 -4 4 -10t9.5 -12t17.5 -10.5t29 -4.5t29.5 4t18 10t9.5 12t4 10zM285 551q2 0 2.5 0.5t-2.5 -0.5zM362 190q0 -107 -46 -153q-47 -47 -136 -47q-23 0 -52 8q-27 7 -51 27q-24 19 -36 48q-12 28 -12 53q0 43 23 75
t66 50q44 18 100 14q9 -2 16 -7q7 -6 7 -14t-7 -15q-8 -8 -16 -9q-98 -12 -98 -95q0 -20 9 -41t25 -30t33 -9q37 0 57 36q20 37 20 122q0 71 -10 100q-11 30 -30 45q-20 15 -53 15q-21 0 -52 -10t-36 -10q-20 0 -27 18q-3 10 1 20q5 11 16 17q24 11 59 17q36 6 67 6
q41 0 77 -13q38 -14 63 -58t25 -157z" />
    <glyph glyph-name="uni1EB4" unicode="&#x1eb4;" horiz-adv-x="547" 
d="M374 799q0 -5 -5 -18q-4 -7 -8 -13t-12 -12q-7 -6 -12.5 -9t-13.5 -3q-11 0 -18 3q-4 1 -9.5 4t-12.5 7q-14 8 -23 8q-6 0 -15 -6q-8 -6 -11 -10q-5 -5 -11 -5q-4 0 -10 4q-4 4 -4 9q0 4 2 8.5t4 10.5q4 7 8 13t11 12q13 12 27 12t18 -2q4 -1 9.5 -3.5t13.5 -6.5
q13 -9 23 -9q6 0 14 5q4 4 7 6.5t5 5.5q4 4 11 4t10 -2q4 -8 4 -11zM346 723q2 5 5.5 5.5t5.5 0.5q9 0 11 -6.5t2 -13.5q0 -11 -4.5 -23.5t-14.5 -23.5t-26 -18.5t-40 -7.5q-22 0 -37.5 7t-26 17.5t-15.5 23.5t-5 25q0 6 1.5 13t12.5 7q5 0 10 -5q1 -4 4 -10t9.5 -12
t17.5 -10.5t29 -4.5t29.5 4t18 10t9.5 12t4 10zM357 729q2 0 2.5 0.5t-2.5 -0.5zM521 58q1 -14 -3 -30q-5 -17 -19 -27t-30 -10q-20 0 -36 12t-19 36q-8 55 -18 102q-2 4 -6 15q-5 11 -27 17q-46 11 -108 11t-108 -12q-14 -3 -21 -9t-12 -23q-11 -55 -18 -121
q-5 -29 -36 -29q-14 0 -25 11q-10 10 -7 29q8 57 20.5 113.5t29.5 115.5q33 117 81 213q68 137 121 137q47 0 115 -135q23 -46 42.5 -94.5t34.5 -100.5q31 -106 47 -221h2zM378 233q-9 30 -20.5 60.5t-25.5 62.5t-28.5 61.5t-29.5 57.5q-3 7 -9 11q-7 5 -10 5q-11 0 -18 -16
q-58 -110 -96 -242q44 14 118 14q28 0 63 -3q34 -3 54 -9z" />
    <glyph glyph-name="uni1EB5" unicode="&#x1eb5;" 
d="M302 621q0 -5 -5 -18q-4 -7 -8 -13t-12 -12q-7 -6 -12.5 -9t-13.5 -3q-11 0 -18 3q-4 1 -9.5 4t-12.5 7q-14 8 -23 8q-6 0 -15 -6q-8 -6 -11 -10q-5 -5 -11 -5q-4 0 -10 4q-4 4 -4 9q0 4 2 8.5t4 10.5q4 7 8 13t11 12q13 12 27 12t18 -2q4 -1 9.5 -3.5t13.5 -6.5
q13 -9 23 -9q6 0 14 5q4 4 7 6.5t5 5.5q4 4 11 4t10 -2q4 -8 4 -11zM285 551q2 0 2.5 0.5t-2.5 -0.5zM274 545q2 5 5.5 5.5t5.5 0.5q9 0 11 -6.5t2 -13.5q0 -11 -4.5 -23.5t-14.5 -23.5t-26 -18.5t-40 -7.5q-22 0 -37.5 7t-26 17.5t-15.5 23.5t-5 25q0 6 1.5 13t12.5 7
q5 0 10 -5q1 -4 4 -10t9.5 -12t17.5 -10.5t29 -4.5t29.5 4t18 10t9.5 12t4 10zM285 551q2 0 2.5 0.5t-2.5 -0.5zM362 190q0 -107 -46 -153q-47 -47 -136 -47q-23 0 -52 8q-27 7 -51 27q-24 19 -36 48q-12 28 -12 53q0 43 23 75t66 50q44 18 100 14q9 -2 16 -7q7 -6 7 -14
t-7 -15q-8 -8 -16 -9q-98 -12 -98 -95q0 -20 9 -41t25 -30t33 -9q37 0 57 36q20 37 20 122q0 71 -10 100q-11 30 -30 45q-20 15 -53 15q-21 0 -52 -10t-36 -10q-20 0 -27 18q-3 10 1 20q5 11 16 17q24 11 59 17q36 6 67 6q41 0 77 -13q38 -14 63 -58t25 -157z" />
    <glyph glyph-name="uni1EB6" unicode="&#x1eb6;" horiz-adv-x="547" 
d="M294 -104q0 17 -12 29q-11 12 -31 12q-17 0 -29 -13q-12 -12 -12 -29q0 -18 12 -30q12 -13 29 -13q19 0 31 12t12 29v3zM346 723q-1 -4 -4 -10t-9.5 -12t-18 -10t-29.5 -4t-29 4.5t-17.5 10.5t-9.5 12t-4 10q-5 5 -10 5q-11 0 -12.5 -7t-1.5 -13q0 -12 5 -25t15.5 -23.5
t26 -17.5t37.5 -7q24 0 40 7.5t26 18.5t14.5 23.5t4.5 23.5q0 7 -2 13.5t-11 6.5q-2 0 -5.5 -0.5t-5.5 -5.5zM357 729q3 1 2.5 0.5t-2.5 -0.5zM519 58q-16 115 -47 221q-15 52 -34.5 100.5t-42.5 94.5q-68 135 -115 135q-53 0 -121 -137q-48 -96 -81 -213
q-17 -59 -29.5 -115.5t-20.5 -113.5q-3 -19 7 -29q11 -11 25 -11q31 0 36 29q7 66 18 121q5 17 12 23t21 9q46 12 108 12t108 -11q22 -6 27 -17q4 -11 6 -15q10 -47 18 -102q3 -24 19 -36t36 -12q16 0 30 10t19 27q4 16 3 30h-2zM376 235q-20 6 -54 9q-35 3 -63 3
q-74 0 -118 -14q38 132 96 242q7 16 18 16q3 0 10 -5q6 -4 9 -11q15 -28 29.5 -57.5t28.5 -61.5t25.5 -62.5t20.5 -60.5z" />
    <glyph glyph-name="uni1EB7" unicode="&#x1eb7;" 
d="M238 -104q0 17 -12 29q-11 12 -31 12q-17 0 -29 -13q-12 -12 -12 -29q0 -18 12 -30q12 -13 29 -13q19 0 31 12t12 29v3zM274 545q-1 -4 -4 -10t-9.5 -12t-18 -10t-29.5 -4t-29 4.5t-17.5 10.5t-9.5 12t-4 10q-5 5 -10 5q-11 0 -12.5 -7t-1.5 -13q0 -12 5 -25t15.5 -23.5
t26 -17.5t37.5 -7q24 0 40 7.5t26 18.5t14.5 23.5t4.5 23.5q0 7 -2 13.5t-11 6.5q-2 0 -5.5 -0.5t-5.5 -5.5zM285 551q3 1 2.5 0.5t-2.5 -0.5zM364 193q0 113 -25 157t-63 58q-36 13 -77 13q-31 0 -67 -6q-35 -6 -59 -17q-11 -6 -16 -17q-4 -10 -1 -20q7 -18 27 -18
q5 0 36 10t52 10q33 0 53 -15q19 -15 30 -45q10 -29 10 -100q0 -85 -20 -122q-20 -36 -57 -36q-17 0 -33 9t-25 30t-9 41q0 83 98 95q8 1 16 9q7 7 7 15t-7 14q-7 5 -16 7q-56 4 -100 -14q-43 -18 -66 -50t-23 -75q0 -25 12 -53q12 -29 36 -48q24 -20 51 -27q29 -8 52 -8
q89 0 136 47q46 46 46 153z" />
    <glyph glyph-name="uni1EB8" unicode="&#x1eb8;" horiz-adv-x="465" 
d="M306 -107q0 -17 -12 -29t-31 -12q-17 0 -29 13q-12 12 -12 30q0 17 12 29q12 13 29 13q20 0 31 -12q12 -12 12 -29v-3zM450 34q0 -14 -10 -24t-24 -10h-159q-97 0 -146 45q-50 45 -50 131v247q0 61 26 101t70 59q46 20 105 20h135q14 0 24 -10q11 -11 11 -24
q0 -14 -10 -24t-24 -10h-122q-50 0 -78 -27t-28 -91v-74h190q15 0 24 -11t9 -24q0 -14 -10 -24t-24 -10h-190v-90q0 -64 29 -90q28 -25 80 -25h139q15 0 24 -11t9 -24z" />
    <glyph glyph-name="uni1EB9" unicode="&#x1eb9;" 
d="M264 -107q0 -17 -12 -29t-31 -12q-17 0 -29 13q-12 12 -12 30q0 17 12 29q12 13 29 13q20 0 31 -12q12 -12 12 -29v-3zM366 297q0 -27 -10 -51q-11 -26 -37 -45q-28 -20 -66 -29q-20 -5 -38 -7t-35 -3q-8 0 -16 8q-7 7 -7 15q0 9 6 15q7 7 15 8q103 10 103 93
q0 22 -12 42q-12 19 -40 19q-15 0 -37 -12t-40 -49q-18 -38 -18 -99q0 -53 15 -87q15 -35 39 -51q25 -17 48 -17q20 0 38 3q16 3 47 14l12 3q8 0 15 -4t10 -10q5 -11 2 -22t-12 -16q-17 -11 -49 -18q-31 -7 -79 -7q-84 0 -135 56q-51 55 -51 159q0 64 27 111t73 75t105 28
q34 0 64 -13q33 -14 50 -43q18 -30 18 -63z" />
    <glyph glyph-name="uni1EBA" unicode="&#x1eba;" horiz-adv-x="465" 
d="M348 720q0 -14 -6 -23q-4 -5 -9.5 -10.5t-13.5 -10.5q-2 -1 -3.5 -2t-3.5 -2h1q-6 -4 -6 -6l-4 -3v-5q0 -1 -0.5 -1t-0.5 -2q0 -8 -5 -14q-7 -5 -12 -5q-7 0 -11 3q-8 8 -8 16v3q0 8 1 12q2 6 3 9.5t3 6.5v-1l2 4v-1q0 1 1 1.5t1 1.5l13 13q5 5 7 9q2 3 2 8q0 7 -1 10v-1
l-8 5q-2 1 -5 1h-4h-6h-5q-2 -1 -5 -1h-5q-7 0 -8 1q-9 8 -9 15q0 11 13 14h-1q5 4 25 4q33 0 50 -11q18 -12 18 -38zM450 34q0 -14 -10 -24t-24 -10h-159q-97 0 -146 45q-50 45 -50 131v247q0 61 26 101t70 59q46 20 105 20h135q14 0 24 -10q11 -11 11 -24q0 -14 -10 -24
t-24 -10h-122q-50 0 -78 -27t-28 -91v-74h190q15 0 24 -11t9 -24q0 -14 -10 -24t-24 -10h-190v-90q0 -64 29 -90q28 -25 80 -25h139q15 0 24 -11t9 -24z" />
    <glyph glyph-name="uni1EBB" unicode="&#x1ebb;" 
d="M308 542q0 -14 -6 -23q-4 -5 -9.5 -10.5t-13.5 -10.5q-2 -1 -3.5 -2t-3.5 -2h1q-6 -4 -6 -6l-4 -3v-5q0 -1 -0.5 -1t-0.5 -2q0 -8 -5 -14q-7 -5 -12 -5q-7 0 -11 3q-8 8 -8 16v3q0 8 1 12q2 6 3 9.5t3 6.5v-1l2 4v-1q0 1 1 1.5t1 1.5l13 13q5 5 7 9q2 3 2 8q0 7 -1 10v-1
l-8 5q-2 1 -5 1h-4h-6h-5q-2 -1 -5 -1h-5q-7 0 -8 1q-9 8 -9 15q0 11 13 14h-1q5 4 25 4q33 0 50 -11q18 -12 18 -38zM366 297q0 -27 -10 -51q-11 -26 -37 -45q-28 -20 -66 -29q-20 -5 -38 -7t-35 -3q-8 0 -16 8q-7 7 -7 15q0 9 6 15q7 7 15 8q103 10 103 93q0 22 -12 42
q-12 19 -40 19q-15 0 -37 -12t-40 -49q-18 -38 -18 -99q0 -53 15 -87q15 -35 39 -51q25 -17 48 -17q20 0 38 3q16 3 47 14l12 3q8 0 15 -4t10 -10q5 -11 2 -22t-12 -16q-17 -11 -49 -18q-31 -7 -79 -7q-84 0 -135 56q-51 55 -51 159q0 64 27 111t73 75t105 28q34 0 64 -13
q33 -14 50 -43q18 -30 18 -63z" />
    <glyph glyph-name="uni1EBC" unicode="&#x1ebc;" horiz-adv-x="465" 
d="M361 690q0 -5 -5 -18q-4 -7 -8 -13t-12 -12q-7 -6 -12.5 -9t-13.5 -3q-11 0 -18 3q-4 1 -9.5 4t-12.5 7q-14 8 -23 8q-6 0 -15 -6q-8 -6 -11 -10q-5 -5 -11 -5q-4 0 -10 4q-4 4 -4 9q0 4 2 8.5t4 10.5q4 7 8 13t11 12q13 12 27 12t18 -2q4 -1 9.5 -3.5t13.5 -6.5
q13 -9 23 -9q6 0 14 5q4 4 7 6.5t5 5.5q4 4 11 4t10 -2q4 -8 4 -11zM450 34q0 -14 -10 -24t-24 -10h-159q-97 0 -146 45q-50 45 -50 131v247q0 61 26 101t70 59q46 20 105 20h135q14 0 24 -10q11 -11 11 -24q0 -14 -10 -24t-24 -10h-122q-50 0 -78 -27t-28 -91v-74h190
q15 0 24 -11t9 -24q0 -14 -10 -24t-24 -10h-190v-90q0 -64 29 -90q28 -25 80 -25h139q15 0 24 -11t9 -24z" />
    <glyph glyph-name="uni1EBD" unicode="&#x1ebd;" 
d="M327 513q0 -5 -5 -18q-4 -7 -8 -13t-12 -12q-7 -6 -12.5 -9t-13.5 -3q-11 0 -18 3q-4 1 -9.5 4t-12.5 7q-14 8 -23 8q-6 0 -15 -6q-8 -6 -11 -10q-5 -5 -11 -5q-4 0 -10 4q-4 4 -4 9q0 4 2 8.5t4 10.5q4 7 8 13t11 12q13 12 27 12t18 -2q4 -1 9.5 -3.5t13.5 -6.5
q13 -9 23 -9q6 0 14 5q4 4 7 6.5t5 5.5q4 4 11 4t10 -2q4 -8 4 -11zM366 297q0 -27 -10 -51q-11 -26 -37 -45q-28 -20 -66 -29q-20 -5 -38 -7t-35 -3q-8 0 -16 8q-7 7 -7 15q0 9 6 15q7 7 15 8q103 10 103 93q0 22 -12 42q-12 19 -40 19q-15 0 -37 -12t-40 -49
q-18 -38 -18 -99q0 -53 15 -87q15 -35 39 -51q25 -17 48 -17q20 0 38 3q16 3 47 14l12 3q8 0 15 -4t10 -10q5 -11 2 -22t-12 -16q-17 -11 -49 -18q-31 -7 -79 -7q-84 0 -135 56q-51 55 -51 159q0 64 27 111t73 75t105 28q34 0 64 -13q33 -14 50 -43q18 -30 18 -63z" />
    <glyph glyph-name="uni1EBE" unicode="&#x1ebe;" horiz-adv-x="460" 
d="M332 727q-6 9 1 18l63 77l5 4q9 7 21 4q10 -3 18 -12q6 -8 4 -19q-3 -12 -12 -18l-77 -58q-7 -3 -12 -2q-7 3 -10 7zM445 34q0 -14 -10 -24t-24 -10h-159q-97 0 -146 45q-50 45 -50 131v247q0 61 26 101t70 59q46 20 105 20h135q14 0 24 -10q11 -11 11 -24q0 -14 -10 -24
t-24 -10h-122q-50 0 -78 -27t-28 -91v-74h190q15 0 24 -11t9 -24q0 -14 -10 -24t-24 -10h-190v-90q0 -64 29 -90q28 -25 80 -25h139q15 0 24 -11t9 -24zM354 643q-2 -3 -4.5 -4t-5.5 -3q-7 -1 -12 2l-62 46l-63 -46q-5 -3 -11 -2q-8 4 -10 7q-6 10 0 19l63 75q9 10 20 10
q13 0 20 -10l62 -75q6 -10 1 -19h2z" />
    <glyph glyph-name="uni1EBF" unicode="&#x1ebf;" 
d="M299 549q-6 9 1 18l63 77l5 4q9 7 21 4q10 -3 18 -12q6 -8 4 -19q-3 -12 -12 -18l-77 -58q-7 -3 -12 -2q-7 3 -10 7zM366 297q0 -27 -10 -51q-11 -26 -37 -45q-28 -20 -66 -29q-20 -5 -38 -7t-35 -3q-8 0 -16 8q-7 7 -7 15q0 9 6 15q7 7 15 8q103 10 103 93q0 22 -12 42
q-12 19 -40 19q-15 0 -37 -12t-40 -49q-18 -38 -18 -99q0 -53 15 -87q15 -35 39 -51q25 -17 48 -17q20 0 38 3q16 3 47 14l12 3q8 0 15 -4t10 -10q5 -11 2 -22t-12 -16q-17 -11 -49 -18q-31 -7 -79 -7q-84 0 -135 56q-51 55 -51 159q0 64 27 111t73 75t105 28q34 0 64 -13
q33 -14 50 -43q18 -30 18 -63zM321 465q-2 -3 -4.5 -4t-5.5 -3q-7 -1 -12 2l-62 46l-63 -46q-5 -3 -11 -2q-8 4 -10 7q-6 10 0 19l63 75q9 10 20 10q13 0 20 -10l62 -75q6 -10 1 -19h2z" />
    <glyph glyph-name="uni1EC0" unicode="&#x1ec0;" horiz-adv-x="460" 
d="M384 728q-3 -4 -10 -7q-5 -1 -12 2l-77 58q-9 6 -12 18q-2 11 4 19q7 9 18 12q12 3 21 -4l5 -4l63 -77q7 -9 1 -18zM445 34q0 -14 -10 -24t-24 -10h-159q-97 0 -146 45q-50 45 -50 131v247q0 61 26 101t70 59q46 20 105 20h135q14 0 24 -10q11 -11 11 -24q0 -14 -10 -24
t-24 -10h-122q-50 0 -78 -27t-28 -91v-74h190q15 0 24 -11t9 -24q0 -14 -10 -24t-24 -10h-190v-90q0 -64 29 -90q28 -25 80 -25h139q15 0 24 -11t9 -24zM354 643q-2 -3 -4.5 -4t-5.5 -3q-7 -1 -12 2l-62 46l-63 -46q-5 -3 -11 -2q-8 4 -10 7q-6 10 0 19l63 75q9 10 20 10
q13 0 20 -10l62 -75q6 -10 1 -19h2z" />
    <glyph glyph-name="uni1EC1" unicode="&#x1ec1;" 
d="M351 550q-3 -4 -10 -7q-5 -1 -12 2l-77 58q-9 6 -12 18q-2 11 4 19q7 9 18 12q12 3 21 -4l5 -4l63 -77q7 -9 1 -18zM366 297q0 -27 -10 -51q-11 -26 -37 -45q-28 -20 -66 -29q-20 -5 -38 -7t-35 -3q-8 0 -16 8q-7 7 -7 15q0 9 6 15q7 7 15 8q103 10 103 93q0 22 -12 42
q-12 19 -40 19q-15 0 -37 -12t-40 -49q-18 -38 -18 -99q0 -53 15 -87q15 -35 39 -51q25 -17 48 -17q20 0 38 3q16 3 47 14l12 3q8 0 15 -4t10 -10q5 -11 2 -22t-12 -16q-17 -11 -49 -18q-31 -7 -79 -7q-84 0 -135 56q-51 55 -51 159q0 64 27 111t73 75t105 28q34 0 64 -13
q33 -14 50 -43q18 -30 18 -63zM321 465q-2 -3 -4.5 -4t-5.5 -3q-7 -1 -12 2l-62 46l-63 -46q-5 -3 -11 -2q-8 4 -10 7q-6 10 0 19l63 75q9 10 20 10q13 0 20 -10l62 -75q6 -10 1 -19h2z" />
    <glyph glyph-name="uni1EC2" unicode="&#x1ec2;" horiz-adv-x="460" 
d="M410 801q0 -14 -6 -23q-4 -5 -9.5 -10.5t-13.5 -10.5q-2 -1 -3.5 -2t-3.5 -2h1q-6 -4 -6 -6l-4 -3v-5q0 -1 -0.5 -1t-0.5 -2q0 -8 -5 -14q-7 -5 -12 -5q-7 0 -11 3q-8 8 -8 16v3q0 8 1 12q2 6 3 9.5t3 6.5v-1l2 4v-1q0 1 1 1.5t1 1.5l13 13q5 5 7 9q2 3 2 8q0 7 -1 10v-1
l-8 5q-2 1 -5 1h-4h-6h-5q-2 -1 -5 -1h-5q-7 0 -8 1q-9 8 -9 15q0 11 13 14h-1q5 4 25 4q33 0 50 -11q18 -12 18 -38zM445 34q0 -14 -10 -24t-24 -10h-159q-97 0 -146 45q-50 45 -50 131v247q0 61 26 101t70 59q46 20 105 20h135q14 0 24 -10q11 -11 11 -24q0 -14 -10 -24
t-24 -10h-122q-50 0 -78 -27t-28 -91v-74h190q15 0 24 -11t9 -24q0 -14 -10 -24t-24 -10h-190v-90q0 -64 29 -90q28 -25 80 -25h139q15 0 24 -11t9 -24zM354 643q-2 -3 -4.5 -4t-5.5 -3q-7 -1 -12 2l-62 46l-63 -46q-5 -3 -11 -2q-8 4 -10 7q-6 10 0 19l63 75q9 10 20 10
q13 0 20 -10l62 -75q6 -10 1 -19h2z" />
    <glyph glyph-name="uni1EC3" unicode="&#x1ec3;" 
d="M377 623q0 -14 -6 -23q-4 -5 -9.5 -10.5t-13.5 -10.5q-2 -1 -3.5 -2t-3.5 -2h1q-6 -4 -6 -6l-4 -3v-5q0 -1 -0.5 -1t-0.5 -2q0 -8 -5 -14q-7 -5 -12 -5q-7 0 -11 3q-8 8 -8 16v3q0 8 1 12q2 6 3 9.5t3 6.5v-1l2 4v-1q0 1 1 1.5t1 1.5l13 13q5 5 7 9q2 3 2 8q0 7 -1 10v-1
l-8 5q-2 1 -5 1h-4h-6h-5q-2 -1 -5 -1h-5q-7 0 -8 1q-9 8 -9 15q0 11 13 14h-1q5 4 25 4q33 0 50 -11q18 -12 18 -38zM366 297q0 -27 -10 -51q-11 -26 -37 -45q-28 -20 -66 -29q-20 -5 -38 -7t-35 -3q-8 0 -16 8q-7 7 -7 15q0 9 6 15q7 7 15 8q103 10 103 93q0 22 -12 42
q-12 19 -40 19q-15 0 -37 -12t-40 -49q-18 -38 -18 -99q0 -53 15 -87q15 -35 39 -51q25 -17 48 -17q20 0 38 3q16 3 47 14l12 3q8 0 15 -4t10 -10q5 -11 2 -22t-12 -16q-17 -11 -49 -18q-31 -7 -79 -7q-84 0 -135 56q-51 55 -51 159q0 64 27 111t73 75t105 28q34 0 64 -13
q33 -14 50 -43q18 -30 18 -63zM321 465q-2 -3 -4.5 -4t-5.5 -3q-7 -1 -12 2l-62 46l-63 -46q-5 -3 -11 -2q-8 4 -10 7q-6 10 0 19l63 75q9 10 20 10q13 0 20 -10l62 -75q6 -10 1 -19h2z" />
    <glyph glyph-name="uni1EC4" unicode="&#x1ec4;" horiz-adv-x="460" 
d="M355 818q0 -5 -5 -18q-4 -7 -8 -13t-12 -12q-7 -6 -12.5 -9t-13.5 -3q-11 0 -18 3q-4 1 -9.5 4t-12.5 7q-14 8 -23 8q-6 0 -15 -6q-8 -6 -11 -10q-5 -5 -11 -5q-4 0 -10 4q-4 4 -4 9q0 4 2 8.5t4 10.5q4 7 8 13t11 12q13 12 27 12t18 -2q4 -1 9.5 -3.5t13.5 -6.5
q13 -9 23 -9q6 0 14 5q4 4 7 6.5t5 5.5q4 4 11 4t10 -2q4 -8 4 -11zM445 34q0 -14 -10 -24t-24 -10h-159q-97 0 -146 45q-50 45 -50 131v247q0 61 26 101t70 59q46 20 105 20h135q14 0 24 -10q11 -11 11 -24q0 -14 -10 -24t-24 -10h-122q-50 0 -78 -27t-28 -91v-74h190
q15 0 24 -11t9 -24q0 -14 -10 -24t-24 -10h-190v-90q0 -64 29 -90q28 -25 80 -25h139q15 0 24 -11t9 -24zM354 643q-2 -3 -4.5 -4t-5.5 -3q-7 -1 -12 2l-62 46l-63 -46q-5 -3 -11 -2q-8 4 -10 7q-6 10 0 19l63 75q9 10 20 10q13 0 20 -10l62 -75q6 -10 1 -19h2z" />
    <glyph glyph-name="uni1EC5" unicode="&#x1ec5;" 
d="M322 640q0 -5 -5 -18q-4 -7 -8 -13t-12 -12q-7 -6 -12.5 -9t-13.5 -3q-11 0 -18 3q-4 1 -9.5 4t-12.5 7q-14 8 -23 8q-6 0 -15 -6q-8 -6 -11 -10q-5 -5 -11 -5q-4 0 -10 4q-4 4 -4 9q0 4 2 8.5t4 10.5q4 7 8 13t11 12q13 12 27 12t18 -2q4 -1 9.5 -3.5t13.5 -6.5
q13 -9 23 -9q6 0 14 5q4 4 7 6.5t5 5.5q4 4 11 4t10 -2q4 -8 4 -11zM366 297q0 -27 -10 -51q-11 -26 -37 -45q-28 -20 -66 -29q-20 -5 -38 -7t-35 -3q-8 0 -16 8q-7 7 -7 15q0 9 6 15q7 7 15 8q103 10 103 93q0 22 -12 42q-12 19 -40 19q-15 0 -37 -12t-40 -49
q-18 -38 -18 -99q0 -53 15 -87q15 -35 39 -51q25 -17 48 -17q20 0 38 3q16 3 47 14l12 3q8 0 15 -4t10 -10q5 -11 2 -22t-12 -16q-17 -11 -49 -18q-31 -7 -79 -7q-84 0 -135 56q-51 55 -51 159q0 64 27 111t73 75t105 28q34 0 64 -13q33 -14 50 -43q18 -30 18 -63zM321 465
q-2 -3 -4.5 -4t-5.5 -3q-7 -1 -12 2l-62 46l-63 -46q-5 -3 -11 -2q-8 4 -10 7q-6 10 0 19l63 75q9 10 20 10q13 0 20 -10l62 -75q6 -10 1 -19h2z" />
    <glyph glyph-name="uni1EC6" unicode="&#x1ec6;" horiz-adv-x="460" 
d="M306 -107q0 -17 -12 -29t-31 -12q-17 0 -29 13q-12 12 -12 30q0 17 12 29q12 13 29 13q20 0 31 -12q12 -12 12 -29v-3zM445 34q0 -14 -10 -24t-24 -10h-159q-97 0 -146 45q-50 45 -50 131v247q0 61 26 101t70 59q46 20 105 20h135q14 0 24 -10q11 -11 11 -24
q0 -14 -10 -24t-24 -10h-122q-50 0 -78 -27t-28 -91v-74h190q15 0 24 -11t9 -24q0 -14 -10 -24t-24 -10h-190v-90q0 -64 29 -90q28 -25 80 -25h139q15 0 24 -11t9 -24zM354 643q-2 -3 -4.5 -4t-5.5 -3q-7 -1 -12 2l-62 46l-63 -46q-5 -3 -11 -2q-8 4 -10 7q-6 10 0 19l63 75
q9 10 20 10q13 0 20 -10l62 -75q6 -10 1 -19h2z" />
    <glyph glyph-name="uni1EC7" unicode="&#x1ec7;" 
d="M264 -107q0 -17 -12 -29t-31 -12q-17 0 -29 13q-12 12 -12 30q0 17 12 29q12 13 29 13q20 0 31 -12q12 -12 12 -29v-3zM366 297q0 -27 -10 -51q-11 -26 -37 -45q-28 -20 -66 -29q-20 -5 -38 -7t-35 -3q-8 0 -16 8q-7 7 -7 15q0 9 6 15q7 7 15 8q103 10 103 93
q0 22 -12 42q-12 19 -40 19q-15 0 -37 -12t-40 -49q-18 -38 -18 -99q0 -53 15 -87q15 -35 39 -51q25 -17 48 -17q20 0 38 3q16 3 47 14l12 3q8 0 15 -4t10 -10q5 -11 2 -22t-12 -16q-17 -11 -49 -18q-31 -7 -79 -7q-84 0 -135 56q-51 55 -51 159q0 64 27 111t73 75t105 28
q34 0 64 -13q33 -14 50 -43q18 -30 18 -63zM321 465q-2 -3 -4.5 -4t-5.5 -3q-7 -1 -12 2l-62 46l-63 -46q-5 -3 -11 -2q-8 4 -10 7q-6 10 0 19l63 75q9 10 20 10q13 0 20 -10l62 -75q6 -10 1 -19h2z" />
    <glyph glyph-name="uni1EC8" unicode="&#x1ec8;" horiz-adv-x="302" 
d="M220 720q0 -14 -6 -23q-4 -5 -9.5 -10.5t-13.5 -10.5q-2 -1 -3.5 -2t-3.5 -2h1q-6 -4 -6 -6l-4 -3v-5q0 -1 -0.5 -1t-0.5 -2q0 -8 -5 -14q-7 -5 -12 -5q-7 0 -11 3q-8 8 -8 16v3q0 8 1 12q2 6 3 9.5t3 6.5v-1l2 4v-1q0 1 1 1.5t1 1.5l13 13q5 5 7 9q2 3 2 8q0 7 -1 10v-1
l-8 5q-2 1 -5 1h-4h-6h-5q-2 -1 -5 -1h-5q-7 0 -8 1q-9 8 -9 15q0 11 13 14h-1q5 4 25 4q33 0 50 -11q18 -12 18 -38zM277 30q0 -13 -9 -22t-21 -9h-190q-12 0 -21 9t-9 23q0 11 9 22q9 10 21 10h41v475h-41q-12 0 -21 9t-9 23q0 12 9 21t21 9h190q12 0 21 -9t9 -21
q0 -13 -9 -22t-21 -9h-42v-475h42q12 0 21 -10q9 -11 9 -22v-2z" />
    <glyph glyph-name="uni1EC9" unicode="&#x1ec9;" horiz-adv-x="227" 
d="M162 38q0 -19 -15 -34t-35 -15q-19 0 -34 15t-15 35v329q0 21 15 36t35 15t35 -15t15 -36v-329zM184 542q0 -14 -6 -23q-4 -5 -9.5 -10.5t-13.5 -10.5q-2 -1 -3.5 -2t-3.5 -2h1q-6 -4 -6 -6l-4 -3v-5q0 -1 -0.5 -1t-0.5 -2q0 -8 -5 -14q-7 -5 -12 -5q-7 0 -11 3
q-8 8 -8 16v3q0 8 1 12q2 6 3 9.5t3 6.5v-1l2 4v-1q0 1 1 1.5t1 1.5l13 13q5 5 7 9q2 3 2 8q0 7 -1 10v-1l-8 5q-2 1 -5 1h-4h-6h-5q-2 -1 -5 -1h-5q-7 0 -8 1q-9 8 -9 15q0 11 13 14h-1q5 4 25 4q33 0 50 -11q18 -12 18 -38z" />
    <glyph glyph-name="uni1ECA" unicode="&#x1eca;" horiz-adv-x="302" 
d="M190 -107q0 -17 -12 -29t-31 -12q-17 0 -29 13q-12 12 -12 30q0 17 12 29q12 13 29 13q20 0 31 -12q12 -12 12 -29v-3zM277 30q0 -13 -9 -22t-21 -9h-190q-12 0 -21 9t-9 23q0 11 9 22q9 10 21 10h41v475h-41q-12 0 -21 9t-9 23q0 12 9 21t21 9h190q12 0 21 -9t9 -21
q0 -13 -9 -22t-21 -9h-42v-475h42q12 0 21 -10q9 -11 9 -22v-2z" />
    <glyph glyph-name="uni1ECB" unicode="&#x1ecb;" horiz-adv-x="227" 
d="M153 -107q0 -17 -12 -29t-31 -12q-17 0 -29 13q-12 12 -12 30q0 17 12 29q12 13 29 13q20 0 31 -12q12 -12 12 -29v-3zM157 511q0 -17 -12 -29t-31 -12q-17 0 -29 13q-12 12 -12 30q0 17 12 29q12 13 29 13q20 0 31 -12q12 -12 12 -29v-3zM162 38q0 -19 -15 -34t-35 -15
q-19 0 -34 15t-15 35v329q0 21 15 36t35 15t35 -15t15 -36v-329z" />
    <glyph glyph-name="uni1ECC" unicode="&#x1ecc;" horiz-adv-x="594" 
d="M332 -107q0 -17 -12 -29t-31 -12q-17 0 -29 13q-12 12 -12 30q0 17 12 29q12 13 29 13q20 0 31 -12q12 -12 12 -29v-3zM552 298q0 -75 -19 -132q-20 -59 -54 -98q-34 -38 -81 -58q-45 -19 -102 -19q-54 0 -102 20q-46 19 -81 59q-34 39 -54 98q-19 57 -19 132t19 132
q20 59 54 98q35 40 81 59q48 20 102 20q53 0 102 -20q47 -19 82 -59q35 -39 54 -97q19 -57 19 -132zM439 298q0 248 -143 248q-144 0 -144 -248q0 -247 144 -247q143 0 143 247z" />
    <glyph glyph-name="uni1ECD" unicode="&#x1ecd;" horiz-adv-x="442" 
d="M262 -107q0 -17 -12 -29t-31 -12q-17 0 -29 13q-12 12 -12 30q0 17 12 29q12 13 29 13q20 0 31 -12q12 -12 12 -29v-3zM407 204q0 -104 -51 -159t-135 -55t-135 56q-51 55 -51 159q0 103 51 159t135 56t135 -55q51 -56 51 -159v-2zM307 202q0 86 -22 123q-23 38 -64 38
q-42 0 -64 -37t-22 -123t22 -123t64 -37q41 0 64 38q22 37 22 123v-2z" />
    <glyph glyph-name="uni1ECE" unicode="&#x1ece;" horiz-adv-x="594" 
d="M373 720q0 -14 -6 -23q-4 -5 -9.5 -10.5t-13.5 -10.5q-2 -1 -3.5 -2t-3.5 -2h1q-6 -4 -6 -6l-4 -3v-5q0 -1 -0.5 -1t-0.5 -2q0 -8 -5 -14q-7 -5 -12 -5q-7 0 -11 3q-8 8 -8 16v3q0 8 1 12q2 6 3 9.5t3 6.5v-1l2 4v-1q0 1 1 1.5t1 1.5l13 13q5 5 7 9q2 3 2 8q0 7 -1 10v-1
l-8 5q-2 1 -5 1h-4h-6h-5q-2 -1 -5 -1h-5q-7 0 -8 1q-9 8 -9 15q0 11 13 14h-1q5 4 25 4q33 0 50 -11q18 -12 18 -38zM552 298q0 -75 -19 -132q-20 -59 -54 -98q-34 -38 -81 -58q-45 -19 -102 -19q-54 0 -102 20q-46 19 -81 59q-34 39 -54 98q-19 57 -19 132t19 132
q20 59 54 98q35 40 81 59q48 20 102 20q53 0 102 -20q47 -19 82 -59q35 -39 54 -97q19 -57 19 -132zM439 298q0 248 -143 248q-144 0 -144 -248q0 -247 144 -247q143 0 143 247z" />
    <glyph glyph-name="uni1ECF" unicode="&#x1ecf;" horiz-adv-x="442" 
d="M301 542q0 -14 -6 -23q-4 -5 -9.5 -10.5t-13.5 -10.5q-2 -1 -3.5 -2t-3.5 -2h1q-6 -4 -6 -6l-4 -3v-5q0 -1 -0.5 -1t-0.5 -2q0 -8 -5 -14q-7 -5 -12 -5q-7 0 -11 3q-8 8 -8 16v3q0 8 1 12q2 6 3 9.5t3 6.5v-1l2 4v-1q0 1 1 1.5t1 1.5l13 13q5 5 7 9q2 3 2 8q0 7 -1 10v-1
l-8 5q-2 1 -5 1h-4h-6h-5q-2 -1 -5 -1h-5q-7 0 -8 1q-9 8 -9 15q0 11 13 14h-1q5 4 25 4q33 0 50 -11q18 -12 18 -38zM407 204q0 -104 -51 -159t-135 -55t-135 56q-51 55 -51 159q0 103 51 159t135 56t135 -55q51 -56 51 -159v-2zM307 202q0 86 -22 123q-23 38 -64 38
q-42 0 -64 -37t-22 -123t22 -123t64 -37q41 0 64 38q22 37 22 123v-2z" />
    <glyph glyph-name="uni1ED0" unicode="&#x1ed0;" horiz-adv-x="594" 
d="M366 727q-6 9 1 18l63 77l5 4q9 7 21 4q10 -3 18 -12q6 -8 4 -19q-3 -12 -12 -18l-77 -58q-7 -3 -12 -2q-7 3 -10 7zM552 298q0 -75 -19 -132q-20 -59 -54 -98q-34 -38 -81 -58q-45 -19 -102 -19q-54 0 -102 20q-46 19 -81 59q-34 39 -54 98q-19 57 -19 132t19 132
q20 59 54 98q35 40 81 59q48 20 102 20q53 0 102 -20q47 -19 82 -59q35 -39 54 -97q19 -57 19 -132zM439 298q0 248 -143 248q-144 0 -144 -248q0 -247 144 -247q143 0 143 247zM388 643q-2 -3 -4.5 -4t-5.5 -3q-7 -1 -12 2l-62 46l-63 -46q-5 -3 -11 -2q-8 4 -10 7
q-6 10 0 19l63 75q9 10 20 10q13 0 20 -10l62 -75q6 -10 1 -19h2z" />
    <glyph glyph-name="uni1ED1" unicode="&#x1ed1;" horiz-adv-x="442" 
d="M292 549q-6 9 1 18l63 77l5 4q9 7 21 4q10 -3 18 -12q6 -8 4 -19q-3 -12 -12 -18l-77 -58q-7 -3 -12 -2q-7 3 -10 7zM407 204q0 -104 -51 -159t-135 -55t-135 56q-51 55 -51 159q0 103 51 159t135 56t135 -55q51 -56 51 -159v-2zM307 202q0 86 -22 123q-23 38 -64 38
q-42 0 -64 -37t-22 -123t22 -123t64 -37q41 0 64 38q22 37 22 123v-2zM314 465q-2 -3 -4.5 -4t-5.5 -3q-7 -1 -12 2l-62 46l-63 -46q-5 -3 -11 -2q-8 4 -10 7q-6 10 0 19l63 75q9 10 20 10q13 0 20 -10l62 -75q6 -10 1 -19h2z" />
    <glyph glyph-name="uni1ED2" unicode="&#x1ed2;" horiz-adv-x="594" 
d="M418 728q-3 -4 -10 -7q-5 -1 -12 2l-77 58q-9 6 -12 18q-2 11 4 19q7 9 18 12q12 3 21 -4l5 -4l63 -77q7 -9 1 -18zM552 298q0 -75 -19 -132q-20 -59 -54 -98q-34 -38 -81 -58q-45 -19 -102 -19q-54 0 -102 20q-46 19 -81 59q-34 39 -54 98q-19 57 -19 132t19 132
q20 59 54 98q35 40 81 59q48 20 102 20q53 0 102 -20q47 -19 82 -59q35 -39 54 -97q19 -57 19 -132zM439 298q0 248 -143 248q-144 0 -144 -248q0 -247 144 -247q143 0 143 247zM388 643q-2 -3 -4.5 -4t-5.5 -3q-7 -1 -12 2l-62 46l-63 -46q-5 -3 -11 -2q-8 4 -10 7
q-6 10 0 19l63 75q9 10 20 10q13 0 20 -10l62 -75q6 -10 1 -19h2z" />
    <glyph glyph-name="uni1ED3" unicode="&#x1ed3;" horiz-adv-x="442" 
d="M344 550q-3 -4 -10 -7q-5 -1 -12 2l-77 58q-9 6 -12 18q-2 11 4 19q7 9 18 12q12 3 21 -4l5 -4l63 -77q7 -9 1 -18zM407 204q0 -104 -51 -159t-135 -55t-135 56q-51 55 -51 159q0 103 51 159t135 56t135 -55q51 -56 51 -159v-2zM307 202q0 86 -22 123q-23 38 -64 38
q-42 0 -64 -37t-22 -123t22 -123t64 -37q41 0 64 38q22 37 22 123v-2zM314 465q-2 -3 -4.5 -4t-5.5 -3q-7 -1 -12 2l-62 46l-63 -46q-5 -3 -11 -2q-8 4 -10 7q-6 10 0 19l63 75q9 10 20 10q13 0 20 -10l62 -75q6 -10 1 -19h2z" />
    <glyph glyph-name="uni1ED4" unicode="&#x1ed4;" horiz-adv-x="594" 
d="M444 801q0 -14 -6 -23q-4 -5 -9.5 -10.5t-13.5 -10.5q-2 -1 -3.5 -2t-3.5 -2h1q-6 -4 -6 -6l-4 -3v-5q0 -1 -0.5 -1t-0.5 -2q0 -8 -5 -14q-7 -5 -12 -5q-7 0 -11 3q-8 8 -8 16v3q0 8 1 12q2 6 3 9.5t3 6.5v-1l2 4v-1q0 1 1 1.5t1 1.5l13 13q5 5 7 9q2 3 2 8q0 7 -1 10v-1
l-8 5q-2 1 -5 1h-4h-6h-5q-2 -1 -5 -1h-5q-7 0 -8 1q-9 8 -9 15q0 11 13 14h-1q5 4 25 4q33 0 50 -11q18 -12 18 -38zM552 298q0 -75 -19 -132q-20 -59 -54 -98q-34 -38 -81 -58q-45 -19 -102 -19q-54 0 -102 20q-46 19 -81 59q-34 39 -54 98q-19 57 -19 132t19 132
q20 59 54 98q35 40 81 59q48 20 102 20q53 0 102 -20q47 -19 82 -59q35 -39 54 -97q19 -57 19 -132zM439 298q0 248 -143 248q-144 0 -144 -248q0 -247 144 -247q143 0 143 247zM388 643q-2 -3 -4.5 -4t-5.5 -3q-7 -1 -12 2l-62 46l-63 -46q-5 -3 -11 -2q-8 4 -10 7
q-6 10 0 19l63 75q9 10 20 10q13 0 20 -10l62 -75q6 -10 1 -19h2z" />
    <glyph glyph-name="uni1ED5" unicode="&#x1ed5;" horiz-adv-x="442" 
d="M370 623q0 -14 -6 -23q-4 -5 -9.5 -10.5t-13.5 -10.5q-2 -1 -3.5 -2t-3.5 -2h1q-6 -4 -6 -6l-4 -3v-5q0 -1 -0.5 -1t-0.5 -2q0 -8 -5 -14q-7 -5 -12 -5q-7 0 -11 3q-8 8 -8 16v3q0 8 1 12q2 6 3 9.5t3 6.5v-1l2 4v-1q0 1 1 1.5t1 1.5l13 13q5 5 7 9q2 3 2 8q0 7 -1 10v-1
l-8 5q-2 1 -5 1h-4h-6h-5q-2 -1 -5 -1h-5q-7 0 -8 1q-9 8 -9 15q0 11 13 14h-1q5 4 25 4q33 0 50 -11q18 -12 18 -38zM407 204q0 -104 -51 -159t-135 -55t-135 56q-51 55 -51 159q0 103 51 159t135 56t135 -55q51 -56 51 -159v-2zM307 202q0 86 -22 123q-23 38 -64 38
q-42 0 -64 -37t-22 -123t22 -123t64 -37q41 0 64 38q22 37 22 123v-2zM314 465q-2 -3 -4.5 -4t-5.5 -3q-7 -1 -12 2l-62 46l-63 -46q-5 -3 -11 -2q-8 4 -10 7q-6 10 0 19l63 75q9 10 20 10q13 0 20 -10l62 -75q6 -10 1 -19h2z" />
    <glyph glyph-name="uni1ED6" unicode="&#x1ed6;" horiz-adv-x="594" 
d="M389 818q0 -5 -5 -18q-4 -7 -8 -13t-12 -12q-7 -6 -12.5 -9t-13.5 -3q-11 0 -18 3q-4 1 -9.5 4t-12.5 7q-14 8 -23 8q-6 0 -15 -6q-8 -6 -11 -10q-5 -5 -11 -5q-4 0 -10 4q-4 4 -4 9q0 4 2 8.5t4 10.5q4 7 8 13t11 12q13 12 27 12t18 -2q4 -1 9.5 -3.5t13.5 -6.5
q13 -9 23 -9q6 0 14 5q4 4 7 6.5t5 5.5q4 4 11 4t10 -2q4 -8 4 -11zM552 298q0 -75 -19 -132q-20 -59 -54 -98q-34 -38 -81 -58q-45 -19 -102 -19q-54 0 -102 20q-46 19 -81 59q-34 39 -54 98q-19 57 -19 132t19 132q20 59 54 98q35 40 81 59q48 20 102 20q53 0 102 -20
q47 -19 82 -59q35 -39 54 -97q19 -57 19 -132zM439 298q0 248 -143 248q-144 0 -144 -248q0 -247 144 -247q143 0 143 247zM388 643q-2 -3 -4.5 -4t-5.5 -3q-7 -1 -12 2l-62 46l-63 -46q-5 -3 -11 -2q-8 4 -10 7q-6 10 0 19l63 75q9 10 20 10q13 0 20 -10l62 -75
q6 -10 1 -19h2z" />
    <glyph glyph-name="uni1ED7" unicode="&#x1ed7;" horiz-adv-x="442" 
d="M315 640q0 -5 -5 -18q-4 -7 -8 -13t-12 -12q-7 -6 -12.5 -9t-13.5 -3q-11 0 -18 3q-4 1 -9.5 4t-12.5 7q-14 8 -23 8q-6 0 -15 -6q-8 -6 -11 -10q-5 -5 -11 -5q-4 0 -10 4q-4 4 -4 9q0 4 2 8.5t4 10.5q4 7 8 13t11 12q13 12 27 12t18 -2q4 -1 9.5 -3.5t13.5 -6.5
q13 -9 23 -9q6 0 14 5q4 4 7 6.5t5 5.5q4 4 11 4t10 -2q4 -8 4 -11zM407 204q0 -104 -51 -159t-135 -55t-135 56q-51 55 -51 159q0 103 51 159t135 56t135 -55q51 -56 51 -159v-2zM307 202q0 86 -22 123q-23 38 -64 38q-42 0 -64 -37t-22 -123t22 -123t64 -37q41 0 64 38
q22 37 22 123v-2zM314 465q-2 -3 -4.5 -4t-5.5 -3q-7 -1 -12 2l-62 46l-63 -46q-5 -3 -11 -2q-8 4 -10 7q-6 10 0 19l63 75q9 10 20 10q13 0 20 -10l62 -75q6 -10 1 -19h2z" />
    <glyph glyph-name="uni1ED8" unicode="&#x1ed8;" horiz-adv-x="594" 
d="M332 -107q0 -17 -12 -29t-31 -12q-17 0 -29 13q-12 12 -12 30q0 17 12 29q12 13 29 13q20 0 31 -12q12 -12 12 -29v-3zM552 298q0 -75 -19 -132q-20 -59 -54 -98q-34 -38 -81 -58q-45 -19 -102 -19q-54 0 -102 20q-46 19 -81 59q-34 39 -54 98q-19 57 -19 132t19 132
q20 59 54 98q35 40 81 59q48 20 102 20q53 0 102 -20q47 -19 82 -59q35 -39 54 -97q19 -57 19 -132zM439 298q0 248 -143 248q-144 0 -144 -248q0 -247 144 -247q143 0 143 247zM388 643q-2 -3 -4.5 -4t-5.5 -3q-7 -1 -12 2l-62 46l-63 -46q-5 -3 -11 -2q-8 4 -10 7
q-6 10 0 19l63 75q9 10 20 10q13 0 20 -10l62 -75q6 -10 1 -19h2z" />
    <glyph glyph-name="uni1ED9" unicode="&#x1ed9;" horiz-adv-x="442" 
d="M262 -107q0 -17 -12 -29t-31 -12q-17 0 -29 13q-12 12 -12 30q0 17 12 29q12 13 29 13q20 0 31 -12q12 -12 12 -29v-3zM407 204q0 -104 -51 -159t-135 -55t-135 56q-51 55 -51 159q0 103 51 159t135 56t135 -55q51 -56 51 -159v-2zM307 202q0 86 -22 123q-23 38 -64 38
q-42 0 -64 -37t-22 -123t22 -123t64 -37q41 0 64 38q22 37 22 123v-2zM314 465q-2 -3 -4.5 -4t-5.5 -3q-7 -1 -12 2l-62 46l-63 -46q-5 -3 -11 -2q-8 4 -10 7q-6 10 0 19l63 75q9 10 20 10q13 0 20 -10l62 -75q6 -10 1 -19h2z" />
    <glyph glyph-name="uni1EDA" unicode="&#x1eda;" horiz-adv-x="594" 
d="M282 643q-6 9 1 18l63 77l5 4q9 7 21 4q10 -3 18 -12q6 -8 4 -19q-3 -12 -12 -18l-77 -58q-7 -3 -12 -2q-7 3 -10 7zM552 298q0 -75 -19 -132q-20 -59 -54 -98q-34 -38 -81 -58q-45 -19 -102 -19q-54 0 -102 20q-46 19 -81 59q-34 39 -54 98q-19 57 -19 132t19 132
q20 59 54 98q35 40 81 59q48 20 102 20q52 0 101 -20q26 -5 43.5 3t10.5 21q-4 8 -8 8q-11 4 -12.5 12.5t2.5 16.5t13 12.5t19 1.5q23 -7 33 -24t8.5 -36t-13 -35t-32.5 -20l9.5 -9.5l9.5 -9.5q35 -39 54 -97q19 -57 19 -132zM439 298q0 248 -143 248q-144 0 -144 -248
q0 -247 144 -247q143 0 143 247z" />
    <glyph glyph-name="uni1EDB" unicode="&#x1edb;" horiz-adv-x="442" 
d="M201 465q-6 9 1 18l63 77l5 4q9 7 21 4q10 -3 18 -12q6 -8 4 -19q-3 -12 -12 -18l-77 -58q-7 -3 -12 -2q-7 3 -10 7zM407 204q0 -104 -51 -159t-135 -55t-135 56q-51 55 -51 159q0 103 51 159t135 56q47 0 82 -16q9 -2 18 -1t15.5 4t9.5 8.5t-1 11.5q-4 8 -8 8
q-11 4 -12.5 12.5t2.5 16.5t13 12.5t19 1.5q22 -7 32.5 -24t9.5 -35.5t-12.5 -34.5t-31.5 -21q50 -56 50 -157v-2zM285 81q22 35 22 121t-22 123q-23 38 -64 38q-42 0 -64 -37t-22 -123t22 -123t64 -37q41 0 64 38z" />
    <glyph glyph-name="uni1EDC" unicode="&#x1edc;" horiz-adv-x="594" 
d="M360 644q-3 -4 -10 -7q-5 -1 -12 2l-77 58q-9 6 -12 18q-2 11 4 19q7 9 18 12q12 3 21 -4l5 -4l63 -77q7 -9 1 -18zM552 298q0 -75 -19 -132q-20 -59 -54 -98q-34 -38 -81 -58q-45 -19 -102 -19q-54 0 -102 20q-46 19 -81 59q-34 39 -54 98q-19 57 -19 132t19 132
q20 59 54 98q35 40 81 59q48 20 102 20q52 0 101 -20q26 -5 43.5 3t10.5 21q-4 8 -8 8q-11 4 -12.5 12.5t2.5 16.5t13 12.5t19 1.5q23 -7 33 -24t8.5 -36t-13 -35t-32.5 -20l9.5 -9.5l9.5 -9.5q35 -39 54 -97q19 -57 19 -132zM439 298q0 248 -143 248q-144 0 -144 -248
q0 -247 144 -247q143 0 143 247z" />
    <glyph glyph-name="uni1EDD" unicode="&#x1edd;" horiz-adv-x="442" 
d="M282 466q-3 -4 -10 -7q-5 -1 -12 2l-77 58q-9 6 -12 18q-2 11 4 19q7 9 18 12q12 3 21 -4l5 -4l63 -77q7 -9 1 -18zM407 204q0 -104 -51 -159t-135 -55t-135 56q-51 55 -51 159q0 103 51 159t135 56q47 0 82 -16q9 -2 18 -1t15.5 4t9.5 8.5t-1 11.5q-4 8 -8 8
q-11 4 -12.5 12.5t2.5 16.5t13 12.5t19 1.5q22 -7 32.5 -24t9.5 -35.5t-12.5 -34.5t-31.5 -21q50 -56 50 -157v-2zM285 81q22 35 22 121t-22 123q-23 38 -64 38q-42 0 -64 -37t-22 -123t22 -123t64 -37q41 0 64 38z" />
    <glyph glyph-name="uni1EDE" unicode="&#x1ede;" horiz-adv-x="594" 
d="M373 720q0 -14 -6 -23q-4 -5 -9.5 -10.5t-13.5 -10.5q-2 -1 -3.5 -2t-3.5 -2h1q-6 -4 -6 -6l-4 -3v-5q0 -1 -0.5 -1t-0.5 -2q0 -8 -5 -14q-7 -5 -12 -5q-7 0 -11 3q-8 8 -8 16v3q0 8 1 12q2 6 3 9.5t3 6.5v-1l2 4v-1q0 1 1 1.5t1 1.5l13 13q5 5 7 9q2 3 2 8q0 7 -1 10v-1
l-8 5q-2 1 -5 1h-4h-6h-5q-2 -1 -5 -1h-5q-7 0 -8 1q-9 8 -9 15q0 11 13 14h-1q5 4 25 4q33 0 50 -11q18 -12 18 -38zM552 298q0 -75 -19 -132q-20 -59 -54 -98q-34 -38 -81 -58q-45 -19 -102 -19q-54 0 -102 20q-46 19 -81 59q-34 39 -54 98q-19 57 -19 132t19 132
q20 59 54 98q35 40 81 59q48 20 102 20q52 0 101 -20q26 -5 43.5 3t10.5 21q-4 8 -8 8q-11 4 -12.5 12.5t2.5 16.5t13 12.5t19 1.5q23 -7 33 -24t8.5 -36t-13 -35t-32.5 -20l9.5 -9.5l9.5 -9.5q35 -39 54 -97q19 -57 19 -132zM439 298q0 248 -143 248q-144 0 -144 -248
q0 -247 144 -247q143 0 143 247z" />
    <glyph glyph-name="uni1EDF" unicode="&#x1edf;" horiz-adv-x="442" 
d="M301 542q0 -14 -6 -23q-4 -5 -9.5 -10.5t-13.5 -10.5q-2 -1 -3.5 -2t-3.5 -2h1q-6 -4 -6 -6l-4 -3v-5q0 -1 -0.5 -1t-0.5 -2q0 -8 -5 -14q-7 -5 -12 -5q-7 0 -11 3q-8 8 -8 16v3q0 8 1 12q2 6 3 9.5t3 6.5v-1l2 4v-1q0 1 1 1.5t1 1.5l13 13q5 5 7 9q2 3 2 8q0 7 -1 10v-1
l-8 5q-2 1 -5 1h-4h-6h-5q-2 -1 -5 -1h-5q-7 0 -8 1q-9 8 -9 15q0 11 13 14h-1q5 4 25 4q33 0 50 -11q18 -12 18 -38zM407 204q0 -104 -51 -159t-135 -55t-135 56q-51 55 -51 159q0 103 51 159t135 56q47 0 82 -16q9 -2 18 -1t15.5 4t9.5 8.5t-1 11.5q-4 8 -8 8
q-11 4 -12.5 12.5t2.5 16.5t13 12.5t19 1.5q22 -7 32.5 -24t9.5 -35.5t-12.5 -34.5t-31.5 -21q50 -56 50 -157v-2zM285 81q22 35 22 121t-22 123q-23 38 -64 38q-42 0 -64 -37t-22 -123t22 -123t64 -37q41 0 64 38z" />
    <glyph glyph-name="uni1EE0" unicode="&#x1ee0;" horiz-adv-x="594" 
d="M393 690q0 -5 -5 -18q-4 -7 -8 -13t-12 -12q-7 -6 -12.5 -9t-13.5 -3q-11 0 -18 3q-4 1 -9.5 4t-12.5 7q-14 8 -23 8q-6 0 -15 -6q-8 -6 -11 -10q-5 -5 -11 -5q-4 0 -10 4q-4 4 -4 9q0 4 2 8.5t4 10.5q4 7 8 13t11 12q13 12 27 12t18 -2q4 -1 9.5 -3.5t13.5 -6.5
q13 -9 23 -9q6 0 14 5q4 4 7 6.5t5 5.5q4 4 11 4t10 -2q4 -8 4 -11zM552 298q0 -75 -19 -132q-20 -59 -54 -98q-34 -38 -81 -58q-45 -19 -102 -19q-54 0 -102 20q-46 19 -81 59q-34 39 -54 98q-19 57 -19 132t19 132q20 59 54 98q35 40 81 59q48 20 102 20q52 0 101 -20
q26 -5 43.5 3t10.5 21q-4 8 -8 8q-11 4 -12.5 12.5t2.5 16.5t13 12.5t19 1.5q23 -7 33 -24t8.5 -36t-13 -35t-32.5 -20l9.5 -9.5l9.5 -9.5q35 -39 54 -97q19 -57 19 -132zM439 298q0 248 -143 248q-144 0 -144 -248q0 -247 144 -247q143 0 143 247z" />
    <glyph glyph-name="uni1EE1" unicode="&#x1ee1;" horiz-adv-x="442" 
d="M323 513q0 -5 -5 -18q-4 -7 -8 -13t-12 -12q-7 -6 -12.5 -9t-13.5 -3q-11 0 -18 3q-4 1 -9.5 4t-12.5 7q-14 8 -23 8q-6 0 -15 -6q-8 -6 -11 -10q-5 -5 -11 -5q-4 0 -10 4q-4 4 -4 9q0 4 2 8.5t4 10.5q4 7 8 13t11 12q13 12 27 12t18 -2q4 -1 9.5 -3.5t13.5 -6.5
q13 -9 23 -9q6 0 14 5q4 4 7 6.5t5 5.5q4 4 11 4t10 -2q4 -8 4 -11zM407 204q0 -104 -51 -159t-135 -55t-135 56q-51 55 -51 159q0 103 51 159t135 56q47 0 82 -16q9 -2 18 -1t15.5 4t9.5 8.5t-1 11.5q-4 8 -8 8q-11 4 -12.5 12.5t2.5 16.5t13 12.5t19 1.5q22 -7 32.5 -24
t9.5 -35.5t-12.5 -34.5t-31.5 -21q50 -56 50 -157v-2zM285 81q22 35 22 121t-22 123q-23 38 -64 38q-42 0 -64 -37t-22 -123t22 -123t64 -37q41 0 64 38z" />
    <glyph glyph-name="uni1EE2" unicode="&#x1ee2;" horiz-adv-x="594" 
d="M332 -107q0 -17 -12 -29t-31 -12q-17 0 -29 13q-12 12 -12 30q0 17 12 29q12 13 29 13q20 0 31 -12q12 -12 12 -29v-3zM552 298q0 -75 -19 -132q-20 -59 -54 -98q-34 -38 -81 -58q-45 -19 -102 -19q-54 0 -102 20q-46 19 -81 59q-34 39 -54 98q-19 57 -19 132t19 132
q20 59 54 98q35 40 81 59q48 20 102 20q52 0 101 -20q26 -5 43.5 3t10.5 21q-4 8 -8 8q-11 4 -12.5 12.5t2.5 16.5t13 12.5t19 1.5q23 -7 33 -24t8.5 -36t-13 -35t-32.5 -20l9.5 -9.5l9.5 -9.5q35 -39 54 -97q19 -57 19 -132zM439 298q0 248 -143 248q-144 0 -144 -248
q0 -247 144 -247q143 0 143 247z" />
    <glyph glyph-name="uni1EE3" unicode="&#x1ee3;" horiz-adv-x="442" 
d="M262 -107q0 -17 -12 -29t-31 -12q-17 0 -29 13q-12 12 -12 30q0 17 12 29q12 13 29 13q20 0 31 -12q12 -12 12 -29v-3zM407 204q0 -104 -51 -159t-135 -55t-135 56q-51 55 -51 159q0 103 51 159t135 56q47 0 82 -16q9 -2 18 -1t15.5 4t9.5 8.5t-1 11.5q-4 8 -8 8
q-11 4 -12.5 12.5t2.5 16.5t13 12.5t19 1.5q22 -7 32.5 -24t9.5 -35.5t-12.5 -34.5t-31.5 -21q50 -56 50 -157v-2zM285 81q22 35 22 121t-22 123q-23 38 -64 38q-42 0 -64 -37t-22 -123t22 -123t64 -37q41 0 64 38z" />
    <glyph glyph-name="uni1EE4" unicode="&#x1ee4;" horiz-adv-x="607" 
d="M339 -107q0 -17 -12 -29t-31 -12q-17 0 -29 13q-12 12 -12 30q0 17 12 29q12 13 29 13q20 0 31 -12q12 -12 12 -29v-3zM543 220q0 -46 -15 -88q-15 -41 -45 -73q-29 -30 -77 -49q-47 -18 -105 -18q-44 0 -87 12q-42 12 -82 44q-39 31 -57 78q-18 46 -18 93v337
q0 21 16 37t39 16t39 -16t16 -37v-308q0 -101 34 -147q35 -47 102 -47q135 0 135 195v308q0 21 16 37t37 16q23 0 39 -16t16 -37v-337h-3z" />
    <glyph glyph-name="uni1EE5" unicode="&#x1ee5;" horiz-adv-x="453" 
d="M262 -107q0 -17 -12 -29t-31 -12q-17 0 -29 13q-12 12 -12 30q0 17 12 29q12 13 29 13q20 0 31 -12q12 -12 12 -29v-3zM399 159q0 -43 -21 -83q-21 -41 -63 -63q-41 -22 -93 -22q-32 0 -63 9q-32 9 -57 30q-26 21 -42 54q-16 32 -16 75v210q0 20 15 35t35 15q21 0 36 -15
t15 -34v-183q0 -64 8 -91q7 -25 26 -39q17 -13 46 -13q21 0 38 9t29 33t12 101v183q0 20 15 35t35 15t35 -15t15 -34v-210z" />
    <glyph glyph-name="uni1EE6" unicode="&#x1ee6;" horiz-adv-x="607" 
d="M373 720q0 -14 -6 -23q-4 -5 -9.5 -10.5t-13.5 -10.5q-2 -1 -3.5 -2t-3.5 -2h1q-6 -4 -6 -6l-4 -3v-5q0 -1 -0.5 -1t-0.5 -2q0 -8 -5 -14q-7 -5 -12 -5q-7 0 -11 3q-8 8 -8 16v3q0 8 1 12q2 6 3 9.5t3 6.5v-1l2 4v-1q0 1 1 1.5t1 1.5l13 13q5 5 7 9q2 3 2 8q0 7 -1 10v-1
l-8 5q-2 1 -5 1h-4h-6h-5q-2 -1 -5 -1h-5q-7 0 -8 1q-9 8 -9 15q0 11 13 14h-1q5 4 25 4q33 0 50 -11q18 -12 18 -38zM543 220q0 -46 -15 -88q-15 -41 -45 -73q-29 -30 -77 -49q-47 -18 -105 -18q-44 0 -87 12q-42 12 -82 44q-39 31 -57 78q-18 46 -18 93v337q0 21 16 37
t39 16t39 -16t16 -37v-308q0 -101 34 -147q35 -47 102 -47q135 0 135 195v308q0 21 16 37t37 16q23 0 39 -16t16 -37v-337h-3z" />
    <glyph glyph-name="uni1EE7" unicode="&#x1ee7;" horiz-adv-x="453" 
d="M294 542q0 -14 -6 -23q-4 -5 -9.5 -10.5t-13.5 -10.5q-2 -1 -3.5 -2t-3.5 -2h1q-6 -4 -6 -6l-4 -3v-5q0 -1 -0.5 -1t-0.5 -2q0 -8 -5 -14q-7 -5 -12 -5q-7 0 -11 3q-8 8 -8 16v3q0 8 1 12q2 6 3 9.5t3 6.5v-1l2 4v-1q0 1 1 1.5t1 1.5l13 13q5 5 7 9q2 3 2 8q0 7 -1 10v-1
l-8 5q-2 1 -5 1h-4h-6h-5q-2 -1 -5 -1h-5q-7 0 -8 1q-9 8 -9 15q0 11 13 14h-1q5 4 25 4q33 0 50 -11q18 -12 18 -38zM399 159q0 -43 -21 -83q-21 -41 -63 -63q-41 -22 -93 -22q-32 0 -63 9q-32 9 -57 30q-26 21 -42 54q-16 32 -16 75v210q0 20 15 35t35 15q21 0 36 -15
t15 -34v-183q0 -64 8 -91q7 -25 26 -39q17 -13 46 -13q21 0 38 9t29 33t12 101v183q0 20 15 35t35 15t35 -15t15 -34v-210z" />
    <glyph glyph-name="uni1EE8" unicode="&#x1ee8;" horiz-adv-x="607" 
d="M278 643q-6 9 1 18l63 77l5 4q9 7 21 4q10 -3 18 -12q6 -8 4 -19q-3 -12 -12 -18l-77 -58q-7 -3 -12 -2q-7 3 -10 7zM543 220q0 -46 -15 -88q-15 -41 -45 -73q-29 -30 -77 -49q-47 -18 -105 -18q-44 0 -87 12q-42 12 -82 44q-39 31 -57 78q-18 46 -18 93v337q0 21 16 37
t39 16t39 -16t16 -37v-308q0 -101 34 -147q35 -47 102 -47q135 0 135 195v308q0 21 16 37t37 16q23 0 39 -16q1 -2 2 -2.5t2 -1.5q11 2 16.5 8.5t0.5 14.5q-4 8 -8 8q-11 4 -12.5 12.5t2.5 16.5t13 12.5t19 1.5q24 -7 34 -25t8 -37t-15 -35t-35 -19q-8 -4 -11 -4v-324h-3z
" />
    <glyph glyph-name="uni1EE9" unicode="&#x1ee9;" horiz-adv-x="453" 
d="M197 465q-6 9 1 18l63 77l5 4q9 7 21 4q10 -3 18 -12q6 -8 4 -19q-3 -12 -12 -18l-77 -58q-7 -3 -12 -2q-7 3 -10 7zM399 159q0 -43 -21 -83q-21 -41 -63 -63q-41 -22 -93 -22q-32 0 -63 9q-32 9 -57 30q-26 21 -42 54q-16 32 -16 75v210q0 20 15 35t35 15q21 0 36 -15
t15 -34v-183q0 -64 8 -91q7 -25 26 -39q17 -13 46 -13q21 0 38 9t29 33t12 101v183q0 20 15 35t35 15t35 -15q9 2 14.5 8t0.5 14q-4 8 -8 8q-11 4 -12.5 12.5t2.5 16.5t13 12.5t19 1.5q24 -7 34 -25t8 -37t-15 -35t-35 -19q-2 -1 -3 -2t-3 -1v-198z" />
    <glyph glyph-name="uni1EEA" unicode="&#x1eea;" horiz-adv-x="607" 
d="M350 644q-3 -4 -10 -7q-5 -1 -12 2l-77 58q-9 6 -12 18q-2 11 4 19q7 9 18 12q12 3 21 -4l5 -4l63 -77q7 -9 1 -18zM543 220q0 -46 -15 -88q-15 -41 -45 -73q-29 -30 -77 -49q-47 -18 -105 -18q-44 0 -87 12q-42 12 -82 44q-39 31 -57 78q-18 46 -18 93v337q0 21 16 37
t39 16t39 -16t16 -37v-308q0 -101 34 -147q35 -47 102 -47q135 0 135 195v308q0 21 16 37t37 16q23 0 39 -16q1 -2 2 -2.5t2 -1.5q11 2 16.5 8.5t0.5 14.5q-4 8 -8 8q-11 4 -12.5 12.5t2.5 16.5t13 12.5t19 1.5q24 -7 34 -25t8 -37t-15 -35t-35 -19q-8 -4 -11 -4v-324h-3z
" />
    <glyph glyph-name="uni1EEB" unicode="&#x1eeb;" horiz-adv-x="453" 
d="M259 466q-3 -4 -10 -7q-5 -1 -12 2l-77 58q-9 6 -12 18q-2 11 4 19q7 9 18 12q12 3 21 -4l5 -4l63 -77q7 -9 1 -18zM399 159q0 -43 -21 -83q-21 -41 -63 -63q-41 -22 -93 -22q-32 0 -63 9q-32 9 -57 30q-26 21 -42 54q-16 32 -16 75v210q0 20 15 35t35 15q21 0 36 -15
t15 -34v-183q0 -64 8 -91q7 -25 26 -39q17 -13 46 -13q21 0 38 9t29 33t12 101v183q0 20 15 35t35 15t35 -15q9 2 14.5 8t0.5 14q-4 8 -8 8q-11 4 -12.5 12.5t2.5 16.5t13 12.5t19 1.5q24 -7 34 -25t8 -37t-15 -35t-35 -19q-2 -1 -3 -2t-3 -1v-198z" />
    <glyph glyph-name="uni1EEC" unicode="&#x1eec;" horiz-adv-x="607" 
d="M373 720q0 -14 -6 -23q-4 -5 -9.5 -10.5t-13.5 -10.5q-2 -1 -3.5 -2t-3.5 -2h1q-6 -4 -6 -6l-4 -3v-5q0 -1 -0.5 -1t-0.5 -2q0 -8 -5 -14q-7 -5 -12 -5q-7 0 -11 3q-8 8 -8 16v3q0 8 1 12q2 6 3 9.5t3 6.5v-1l2 4v-1q0 1 1 1.5t1 1.5l13 13q5 5 7 9q2 3 2 8q0 7 -1 10v-1
l-8 5q-2 1 -5 1h-4h-6h-5q-2 -1 -5 -1h-5q-7 0 -8 1q-9 8 -9 15q0 11 13 14h-1q5 4 25 4q33 0 50 -11q18 -12 18 -38zM543 220q0 -46 -15 -88q-15 -41 -45 -73q-29 -30 -77 -49q-47 -18 -105 -18q-44 0 -87 12q-42 12 -82 44q-39 31 -57 78q-18 46 -18 93v337q0 21 16 37
t39 16t39 -16t16 -37v-308q0 -101 34 -147q35 -47 102 -47q135 0 135 195v308q0 21 16 37t37 16q23 0 39 -16q1 -2 2 -2.5t2 -1.5q11 2 16.5 8.5t0.5 14.5q-4 8 -8 8q-11 4 -12.5 12.5t2.5 16.5t13 12.5t19 1.5q24 -7 34 -25t8 -37t-15 -35t-35 -19q-8 -4 -11 -4v-324h-3z
" />
    <glyph glyph-name="uni1EED" unicode="&#x1eed;" horiz-adv-x="453" 
d="M294 542q0 -14 -6 -23q-4 -5 -9.5 -10.5t-13.5 -10.5q-2 -1 -3.5 -2t-3.5 -2h1q-6 -4 -6 -6l-4 -3v-5q0 -1 -0.5 -1t-0.5 -2q0 -8 -5 -14q-7 -5 -12 -5q-7 0 -11 3q-8 8 -8 16v3q0 8 1 12q2 6 3 9.5t3 6.5v-1l2 4v-1q0 1 1 1.5t1 1.5l13 13q5 5 7 9q2 3 2 8q0 7 -1 10v-1
l-8 5q-2 1 -5 1h-4h-6h-5q-2 -1 -5 -1h-5q-7 0 -8 1q-9 8 -9 15q0 11 13 14h-1q5 4 25 4q33 0 50 -11q18 -12 18 -38zM399 159q0 -43 -21 -83q-21 -41 -63 -63q-41 -22 -93 -22q-32 0 -63 9q-32 9 -57 30q-26 21 -42 54q-16 32 -16 75v210q0 20 15 35t35 15q21 0 36 -15
t15 -34v-183q0 -64 8 -91q7 -25 26 -39q17 -13 46 -13q21 0 38 9t29 33t12 101v183q0 20 15 35t35 15t35 -15q9 2 14.5 8t0.5 14q-4 8 -8 8q-11 4 -12.5 12.5t2.5 16.5t13 12.5t19 1.5q24 -7 34 -25t8 -37t-15 -35t-35 -19q-2 -1 -3 -2t-3 -1v-198z" />
    <glyph glyph-name="uni1EEE" unicode="&#x1eee;" horiz-adv-x="607" 
d="M388 690q0 -5 -5 -18q-4 -7 -8 -13t-12 -12q-7 -6 -12.5 -9t-13.5 -3q-11 0 -18 3q-4 1 -9.5 4t-12.5 7q-14 8 -23 8q-6 0 -15 -6q-8 -6 -11 -10q-5 -5 -11 -5q-4 0 -10 4q-4 4 -4 9q0 4 2 8.5t4 10.5q4 7 8 13t11 12q13 12 27 12t18 -2q4 -1 9.5 -3.5t13.5 -6.5
q13 -9 23 -9q6 0 14 5q4 4 7 6.5t5 5.5q4 4 11 4t10 -2q4 -8 4 -11zM543 220q0 -46 -15 -88q-15 -41 -45 -73q-29 -30 -77 -49q-47 -18 -105 -18q-44 0 -87 12q-42 12 -82 44q-39 31 -57 78q-18 46 -18 93v337q0 21 16 37t39 16t39 -16t16 -37v-308q0 -101 34 -147
q35 -47 102 -47q135 0 135 195v308q0 21 16 37t37 16q23 0 39 -16q1 -2 2 -2.5t2 -1.5q11 2 16.5 8.5t0.5 14.5q-4 8 -8 8q-11 4 -12.5 12.5t2.5 16.5t13 12.5t19 1.5q24 -7 34 -25t8 -37t-15 -35t-35 -19q-8 -4 -11 -4v-324h-3z" />
    <glyph glyph-name="uni1EEF" unicode="&#x1eef;" horiz-adv-x="453" 
d="M311 513q0 -5 -5 -18q-4 -7 -8 -13t-12 -12q-7 -6 -12.5 -9t-13.5 -3q-11 0 -18 3q-4 1 -9.5 4t-12.5 7q-14 8 -23 8q-6 0 -15 -6q-8 -6 -11 -10q-5 -5 -11 -5q-4 0 -10 4q-4 4 -4 9q0 4 2 8.5t4 10.5q4 7 8 13t11 12q13 12 27 12t18 -2q4 -1 9.5 -3.5t13.5 -6.5
q13 -9 23 -9q6 0 14 5q4 4 7 6.5t5 5.5q4 4 11 4t10 -2q4 -8 4 -11zM399 159q0 -43 -21 -83q-21 -41 -63 -63q-41 -22 -93 -22q-32 0 -63 9q-32 9 -57 30q-26 21 -42 54q-16 32 -16 75v210q0 20 15 35t35 15q21 0 36 -15t15 -34v-183q0 -64 8 -91q7 -25 26 -39
q17 -13 46 -13q21 0 38 9t29 33t12 101v183q0 20 15 35t35 15t35 -15q9 2 14.5 8t0.5 14q-4 8 -8 8q-11 4 -12.5 12.5t2.5 16.5t13 12.5t19 1.5q24 -7 34 -25t8 -37t-15 -35t-35 -19q-2 -1 -3 -2t-3 -1v-198z" />
    <glyph glyph-name="uni1EF0" unicode="&#x1ef0;" horiz-adv-x="607" 
d="M339 -107q0 -17 -12 -29t-31 -12q-17 0 -29 13q-12 12 -12 30q0 17 12 29q12 13 29 13q20 0 31 -12q12 -12 12 -29v-3zM543 220q0 -46 -15 -88q-15 -41 -45 -73q-29 -30 -77 -49q-47 -18 -105 -18q-44 0 -87 12q-42 12 -82 44q-39 31 -57 78q-18 46 -18 93v337
q0 21 16 37t39 16t39 -16t16 -37v-308q0 -101 34 -147q35 -47 102 -47q135 0 135 195v308q0 21 16 37t37 16q23 0 39 -16q1 -2 2 -2.5t2 -1.5q11 2 16.5 8.5t0.5 14.5q-4 8 -8 8q-11 4 -12.5 12.5t2.5 16.5t13 12.5t19 1.5q24 -7 34 -25t8 -37t-15 -35t-35 -19q-8 -4 -11 -4
v-324h-3z" />
    <glyph glyph-name="uni1EF1" unicode="&#x1ef1;" horiz-adv-x="453" 
d="M262 -107q0 -17 -12 -29t-31 -12q-17 0 -29 13q-12 12 -12 30q0 17 12 29q12 13 29 13q20 0 31 -12q12 -12 12 -29v-3zM399 159q0 -43 -21 -83q-21 -41 -63 -63q-41 -22 -93 -22q-32 0 -63 9q-32 9 -57 30q-26 21 -42 54q-16 32 -16 75v210q0 20 15 35t35 15q21 0 36 -15
t15 -34v-183q0 -64 8 -91q7 -25 26 -39q17 -13 46 -13q21 0 38 9t29 33t12 101v183q0 20 15 35t35 15t35 -15q9 2 14.5 8t0.5 14q-4 8 -8 8q-11 4 -12.5 12.5t2.5 16.5t13 12.5t19 1.5q24 -7 34 -25t8 -37t-15 -35t-35 -19q-2 -1 -3 -2t-3 -1v-198z" />
    <glyph glyph-name="Ygrave" unicode="&#x1ef2;" horiz-adv-x="470" 
d="M289 644q-3 -4 -10 -7q-5 -1 -12 2l-77 58q-9 6 -12 18q-2 11 4 19q7 9 18 12q12 3 21 -4l5 -4l63 -77q7 -9 1 -18zM465 568q-31 -153 -122 -289q-18 -26 -31.5 -42.5t-21.5 -24.5v-167q0 -23 -16 -39t-39 -16q-21 0 -37 16t-16 39v166q-8 6 -21 21q-7 8 -18 22t-27 36
q-14 19 -26 40t-23 44t-19.5 42.5t-14.5 36.5t-10.5 32.5t-8.5 30.5q-7 28 -7 41q0 25 17 39t36 14t34 -12q14 -12 19 -30q36 -168 127 -275q6 -9 14 -9t15 10q86 112 124 288q3 12 14 20t24 8q16 0 27 -12q10 -12 7 -29v-1z" />
    <glyph glyph-name="ygrave" unicode="&#x1ef3;" horiz-adv-x="453" 
d="M259 466q-3 -4 -10 -7q-5 -1 -12 2l-77 58q-9 6 -12 18q-2 11 4 19q7 9 18 12q12 3 21 -4l5 -4l63 -77q7 -9 1 -18zM399 157q0 -69 -45 -117q-9 -10 -51 -46q-41 -35 -54 -58q-14 -25 -14 -50q0 -6 0.5 -12t1.5 -12q1 -10 8 -27l7 -17q4 -14 3 -27q-2 -14 -15 -27
t-36 -13q-11 0 -24 8q-11 7 -19 21q-21 42 -21 83q0 29 13 55q14 28 55 66q4 3 4 5t-5 2q-29 1 -57 12q-29 11 -52 31q-24 21 -39 53q-15 31 -15 72v210q0 20 15 35t35 15q21 0 36 -15t15 -34v-183q0 -64 8 -91q7 -25 26 -39q17 -13 46 -13q21 0 38 9t29 33t12 101v183
q0 20 15 35t35 15t35 -15t15 -34v-210z" />
    <glyph glyph-name="uni1EF4" unicode="&#x1ef4;" horiz-adv-x="470" 
d="M277 -107q0 -17 -12 -29t-31 -12q-17 0 -29 13q-12 12 -12 30q0 17 12 29q12 13 29 13q20 0 31 -12q12 -12 12 -29v-3zM465 568q-31 -153 -122 -289q-18 -26 -31.5 -42.5t-21.5 -24.5v-167q0 -23 -16 -39t-39 -16q-21 0 -37 16t-16 39v166q-8 6 -21 21q-7 8 -18 22
t-27 36q-14 19 -26 40t-23 44t-19.5 42.5t-14.5 36.5t-10.5 32.5t-8.5 30.5q-7 28 -7 41q0 25 17 39t36 14t34 -12q14 -12 19 -30q36 -168 127 -275q6 -9 14 -9t15 10q86 112 124 288q3 12 14 20t24 8q16 0 27 -12q10 -12 7 -29v-1z" />
    <glyph glyph-name="uni1EF5" unicode="&#x1ef5;" horiz-adv-x="453" 
d="M395 -107q0 -17 -12 -29t-31 -12q-17 0 -29 13q-12 12 -12 30q0 17 12 29q12 13 29 13q20 0 31 -12q12 -12 12 -29v-3zM399 157q0 -69 -45 -117q-9 -10 -51 -46q-41 -35 -54 -58q-14 -25 -14 -50q0 -6 0.5 -12t1.5 -12q1 -10 8 -27l7 -17q4 -14 3 -27q-2 -14 -15 -27
t-36 -13q-11 0 -24 8q-11 7 -19 21q-21 42 -21 83q0 29 13 55q14 28 55 66q4 3 4 5t-5 2q-29 1 -57 12q-29 11 -52 31q-24 21 -39 53q-15 31 -15 72v210q0 20 15 35t35 15q21 0 36 -15t15 -34v-183q0 -64 8 -91q7 -25 26 -39q17 -13 46 -13q21 0 38 9t29 33t12 101v183
q0 20 15 35t35 15t35 -15t15 -34v-210z" />
    <glyph glyph-name="uni1EF6" unicode="&#x1ef6;" horiz-adv-x="470" 
d="M315 720q0 -14 -6 -23q-4 -5 -9.5 -10.5t-13.5 -10.5q-2 -1 -3.5 -2t-3.5 -2h1q-6 -4 -6 -6l-4 -3v-5q0 -1 -0.5 -1t-0.5 -2q0 -8 -5 -14q-7 -5 -12 -5q-7 0 -11 3q-8 8 -8 16v3q0 8 1 12q2 6 3 9.5t3 6.5v-1l2 4v-1q0 1 1 1.5t1 1.5l13 13q5 5 7 9q2 3 2 8q0 7 -1 10v-1
l-8 5q-2 1 -5 1h-4h-6h-5q-2 -1 -5 -1h-5q-7 0 -8 1q-9 8 -9 15q0 11 13 14h-1q5 4 25 4q33 0 50 -11q18 -12 18 -38zM465 568q-31 -153 -122 -289q-18 -26 -31.5 -42.5t-21.5 -24.5v-167q0 -23 -16 -39t-39 -16q-21 0 -37 16t-16 39v166q-8 6 -21 21q-7 8 -18 22t-27 36
q-14 19 -26 40t-23 44t-19.5 42.5t-14.5 36.5t-10.5 32.5t-8.5 30.5q-7 28 -7 41q0 25 17 39t36 14t34 -12q14 -12 19 -30q36 -168 127 -275q6 -9 14 -9t15 10q86 112 124 288q3 12 14 20t24 8q16 0 27 -12q10 -12 7 -29v-1z" />
    <glyph glyph-name="uni1EF7" unicode="&#x1ef7;" horiz-adv-x="453" 
d="M294 542q0 -14 -6 -23q-4 -5 -9.5 -10.5t-13.5 -10.5q-2 -1 -3.5 -2t-3.5 -2h1q-6 -4 -6 -6l-4 -3v-5q0 -1 -0.5 -1t-0.5 -2q0 -8 -5 -14q-7 -5 -12 -5q-7 0 -11 3q-8 8 -8 16v3q0 8 1 12q2 6 3 9.5t3 6.5v-1l2 4v-1q0 1 1 1.5t1 1.5l13 13q5 5 7 9q2 3 2 8q0 7 -1 10v-1
l-8 5q-2 1 -5 1h-4h-6h-5q-2 -1 -5 -1h-5q-7 0 -8 1q-9 8 -9 15q0 11 13 14h-1q5 4 25 4q33 0 50 -11q18 -12 18 -38zM399 157q0 -69 -45 -117q-9 -10 -51 -46q-41 -35 -54 -58q-14 -25 -14 -50q0 -6 0.5 -12t1.5 -12q1 -10 8 -27l7 -17q4 -14 3 -27q-2 -14 -15 -27t-36 -13
q-11 0 -24 8q-11 7 -19 21q-21 42 -21 83q0 29 13 55q14 28 55 66q4 3 4 5t-5 2q-29 1 -57 12q-29 11 -52 31q-24 21 -39 53q-15 31 -15 72v210q0 20 15 35t35 15q21 0 36 -15t15 -34v-183q0 -64 8 -91q7 -25 26 -39q17 -13 46 -13q21 0 38 9t29 33t12 101v183q0 20 15 35
t35 15t35 -15t15 -34v-210z" />
    <glyph glyph-name="uni1EF8" unicode="&#x1ef8;" horiz-adv-x="470" 
d="M332 690q0 -5 -5 -18q-4 -7 -8 -13t-12 -12q-7 -6 -12.5 -9t-13.5 -3q-11 0 -18 3q-4 1 -9.5 4t-12.5 7q-14 8 -23 8q-6 0 -15 -6q-8 -6 -11 -10q-5 -5 -11 -5q-4 0 -10 4q-4 4 -4 9q0 4 2 8.5t4 10.5q4 7 8 13t11 12q13 12 27 12t18 -2q4 -1 9.5 -3.5t13.5 -6.5
q13 -9 23 -9q6 0 14 5q4 4 7 6.5t5 5.5q4 4 11 4t10 -2q4 -8 4 -11zM465 568q-31 -153 -122 -289q-18 -26 -31.5 -42.5t-21.5 -24.5v-167q0 -23 -16 -39t-39 -16q-21 0 -37 16t-16 39v166q-8 6 -21 21q-7 8 -18 22t-27 36q-14 19 -26 40t-23 44t-19.5 42.5t-14.5 36.5
t-10.5 32.5t-8.5 30.5q-7 28 -7 41q0 25 17 39t36 14t34 -12q14 -12 19 -30q36 -168 127 -275q6 -9 14 -9t15 10q86 112 124 288q3 12 14 20t24 8q16 0 27 -12q10 -12 7 -29v-1z" />
    <glyph glyph-name="uni1EF9" unicode="&#x1ef9;" horiz-adv-x="453" 
d="M315 513q0 -5 -5 -18q-4 -7 -8 -13t-12 -12q-7 -6 -12.5 -9t-13.5 -3q-11 0 -18 3q-4 1 -9.5 4t-12.5 7q-14 8 -23 8q-6 0 -15 -6q-8 -6 -11 -10q-5 -5 -11 -5q-4 0 -10 4q-4 4 -4 9q0 4 2 8.5t4 10.5q4 7 8 13t11 12q13 12 27 12t18 -2q4 -1 9.5 -3.5t13.5 -6.5
q13 -9 23 -9q6 0 14 5q4 4 7 6.5t5 5.5q4 4 11 4t10 -2q4 -8 4 -11zM399 157q0 -69 -45 -117q-9 -10 -51 -46q-41 -35 -54 -58q-14 -25 -14 -50q0 -6 0.5 -12t1.5 -12q1 -10 8 -27l7 -17q4 -14 3 -27q-2 -14 -15 -27t-36 -13q-11 0 -24 8q-11 7 -19 21q-21 42 -21 83
q0 29 13 55q14 28 55 66q4 3 4 5t-5 2q-29 1 -57 12q-29 11 -52 31q-24 21 -39 53q-15 31 -15 72v210q0 20 15 35t35 15q21 0 36 -15t15 -34v-183q0 -64 8 -91q7 -25 26 -39q17 -13 46 -13q21 0 38 9t29 33t12 101v183q0 20 15 35t35 15t35 -15t15 -34v-210z" />
    <glyph glyph-name="endash" unicode="&#x2013;" horiz-adv-x="438" 
d="M485 267q0 -21 -15 -36t-34 -15h-438q-19 0 -34 15t-15 36q0 20 15 35t35 15h438q20 0 35 -15t15 -34z" />
    <glyph glyph-name="emdash" unicode="&#x2014;" horiz-adv-x="876" 
d="M924 267q0 -21 -15 -36t-34 -15h-877q-19 0 -34 15t-15 36q0 20 15 35t35 15h877q20 0 35 -15t15 -34z" />
    <glyph glyph-name="quoteleft" unicode="&#x2018;" horiz-adv-x="185" 
d="M161 594l-46 -138q-5 -14 -13 -24q-9 -11 -19 -15q-9 -4 -19 -4q-21 0 -36 15t-15 38q0 16 10 30l80 126q11 17 30 17q14 0 24 -10t10 -24z" />
    <glyph glyph-name="quoteright" unicode="&#x2019;" horiz-adv-x="185" 
d="M169 582q0 -14 -10 -30l-80 -126q-10 -16 -27 -16q-13 0 -24 11q-10 10 -10 24l2 12l46 138q5 14 13 24q9 10 20 15q9 4 20 4q21 0 36 -15t15 -37z" />
    <glyph glyph-name="quotesinglbase" unicode="&#x201a;" horiz-adv-x="185" 
d="M170 44q0 -17 -10 -31l-80 -126q-10 -16 -28 -16q-13 0 -24 11q-10 10 -10 24l2 12l46 138q5 14 13 24q9 10 20 15q9 4 20 4q21 0 36 -15t15 -36v-4z" />
    <glyph glyph-name="quotedblleft" unicode="&#x201c;" horiz-adv-x="326" 
d="M304 593l-29 -138q-3 -18 -18 -30t-34 -12q-21 0 -36 15t-15 38q0 13 10 30l63 126q8 17 29 17q14 0 24 -10t10 -24zM159 594l-46 -138q-5 -14 -13 -24q-9 -11 -19 -15q-9 -4 -19 -4q-21 0 -36 15t-15 38q0 16 10 30l80 126q11 17 30 17q14 0 24 -10t10 -24z" />
    <glyph glyph-name="quotedblright" unicode="&#x201d;" horiz-adv-x="326" 
d="M310 582q0 -14 -10 -30l-80 -126q-10 -16 -27 -16q-13 0 -24 11q-10 10 -10 24l2 12l46 138q5 14 13 24q9 10 20 15q9 4 20 4q21 0 36 -15t15 -37zM153 579q0 -11 -10 -30l-63 -126q-3 -7 -11 -12q-7 -4 -17 -4q-13 0 -24 11q-10 10 -10 24l2 12l29 138q5 18 19 30
q15 12 33 12q21 0 36 -15t15 -37z" />
    <glyph glyph-name="quotedblbase" unicode="&#x201e;" horiz-adv-x="326" 
d="M311 44q0 -17 -10 -31l-80 -126q-10 -16 -28 -16q-13 0 -24 11q-10 10 -10 24l2 12l46 138q5 14 13 24q9 10 20 15q9 4 20 4q21 0 36 -15t15 -36v-4zM154 41q0 -11 -10 -30l-63 -126q-3 -7 -11 -12q-7 -4 -17 -4q-13 0 -24 11q-10 10 -10 24l2 12l29 138q5 18 19 29
q15 12 33 12q21 0 36 -15t15 -36z" />
    <glyph glyph-name="dagger" unicode="&#x2020;" horiz-adv-x="275" 
d="M248 484q0 -13 -9 -22t-22 -9h-48v-232q0 -13 -10 -22q-11 -9 -22 -9q-14 0 -24 9t-10 23v232h-48q-13 0 -22 9t-9 23t9 23t23 9h48v58q0 14 10 23t24 9q11 0 22 -9q10 -9 10 -22v-58h48q14 0 23 -9t9 -22z" />
    <glyph glyph-name="daggerdbl" unicode="&#x2021;" horiz-adv-x="275" 
d="M246 309q0 -12 -9 -22t-22 -10h-48v-58q0 -13 -10 -22q-11 -9 -22 -9q-14 0 -24 9t-10 23v58h-48q-13 0 -22 10t-9 22q0 14 9 23t23 9h48v110h-48q-13 0 -22 9t-9 23t9 23t23 9h48v58q0 14 10 23t24 9q11 0 22 -9q10 -9 10 -22v-58h48q14 0 23 -9t9 -22t-9 -22t-22 -9
h-48v-110h48q14 0 23 -9t9 -22z" />
    <glyph glyph-name="bullet" unicode="&#x2022;" horiz-adv-x="485" 
d="M415 310q0 -39 -13 -68q-14 -31 -34 -54q-21 -25 -58 -45q-38 -21 -84 -21q-39 0 -68 13q-31 14 -54 34q-25 21 -45 58q-21 37 -21 84q0 49 25 93q26 45 71 71q44 25 93 25t93 -25q46 -26 71 -70t25 -93z" />
    <glyph glyph-name="ellipsis" unicode="&#x2026;" horiz-adv-x="630" 
d="M158 46q0 -23 -16 -39t-39 -16t-39 16t-16 39q0 22 17 39q16 16 39 16t39 -16q17 -17 17 -39h-2zM366 46q0 -23 -16 -39t-39 -16t-39 16t-16 39q0 22 17 39q16 16 39 16t39 -16q17 -17 17 -39h-2zM574 46q0 -23 -16 -39t-39 -16t-39 16t-16 39q0 22 17 39q16 16 39 16
t39 -16q17 -17 17 -39h-2z" />
    <glyph glyph-name="perthousand" unicode="&#x2030;" horiz-adv-x="916" 
d="M863 125q0 -33 -10 -63q-11 -32 -39 -51q-29 -20 -67 -20q-39 0 -68 20q-29 19 -39 51q-10 30 -10 63q0 62 33 98t86 36q24 0 52 -11q26 -10 46 -42q19 -31 19 -81h-3zM302 477q0 -65 -33 -99t-84 -34q-52 0 -85 34t-33 99q0 64 33 99q33 34 85 34q51 0 84 -34
q33 -35 33 -99zM169 4q-7 -10 -19 -13q-13 -3 -23 4t-13 21q-3 13 3 24l357 558q7 10 21 13q13 3 24 -3q10 -7 13 -21t-3 -24zM576 124q0 -33 -10 -63q-11 -32 -39 -51q-29 -20 -67 -20q-39 0 -68 20q-29 19 -39 51q-10 30 -10 63q0 62 33 98t86 36q24 0 52 -11
q26 -10 46 -42q19 -31 19 -81h-3zM792 124q0 91 -52 91t-52 -91q0 -92 52 -92t52 92zM231 476q0 92 -52 92t-52 -92t52 -92t52 92zM511 124q0 91 -52 91t-52 -91q0 -92 52 -92t52 92z" />
    <glyph glyph-name="guilsinglleft" unicode="&#x2039;" horiz-adv-x="280" 
d="M234 81q7 -11 3 -24q-5 -14 -15 -21q-8 -5 -18 -5q-11 0 -18 7l-141 127q-20 20 -20 42t20 42l141 127q6 5 16 6q11 2 21 -4q10 -8 15 -21q4 -14 -3 -24l-105 -126l105 -126h-1z" />
    <glyph glyph-name="guilsinglright" unicode="&#x203a;" horiz-adv-x="280" 
d="M251 206q0 -24 -21 -42l-140 -127q-6 -5 -16 -6q-9 -1 -22 5q-10 7 -13 21q-3 13 5 24l105 126l-105 126q-7 10 -4 24q3 13 14 21q10 5 20 5q11 0 18 -7l140 -127q21 -18 21 -42z" />
    <glyph glyph-name="Euro" unicode="&#x20ac;" horiz-adv-x="480" 
d="M344 225q0 -13 -11 -24q-10 -10 -24 -10h-123q7 -37 24 -70q16 -32 42 -49t51 -17q18 0 35 5q16 5 35 15q20 11 30 11q11 0 20 -10q9 -11 9 -25q0 -22 -17 -33q-50 -30 -131 -30q-70 0 -128 53q-56 52 -79 150h-26q-13 0 -24 11t-11 24t11 24t24 11h16l-1 38v25h-15
q-13 0 -24 11t-11 24t11 24t24 11h24q11 53 39 104t78 81q49 30 102 30q66 0 113 -22q15 -8 20 -16q6 -9 6 -22t-7 -24q-8 -12 -21 -12q-14 0 -30 12q-32 19 -70 19q-28 0 -52 -15q-25 -15 -41 -48q-17 -33 -24 -85h156q13 0 24 -11t11 -24t-11 -24q-10 -10 -24 -10h-162
v-25l1 -38h131q13 0 24 -11t11 -24z" />
    <glyph glyph-name="trademark" unicode="&#x2122;" horiz-adv-x="656" 
d="M608 334q1 -13 -8 -24q-9 -10 -23 -10q-13 0 -22 9q-9 8 -10 22l-11 155l-62 -132q-9 -18 -29 -18q-9 0 -18 6q-8 5 -13 14l-62 131l-9 -163q-2 -9 -9 -15q-8 -6 -16 -6t-16 8t-6 17l16 253q1 13 11 23q9 9 23 9q9 0 17 -6q9 -7 11 -13l82 -171l79 169q11 20 30 20
q13 0 21 -9q7 -9 9 -21l17 -245zM277 580q0 -9 -7 -16t-18 -7h-76v-228q0 -13 -9 -22t-22 -9q-14 0 -24 9t-10 23v228h-76q-8 0 -16 8q-7 7 -7 17t8 18q7 7 17 7h217q11 0 18 -7q8 -8 8 -18z" />
    </font>
</defs>
</svg>
